<svg width="24" height="24" viewBox="0 0 24 24" fill="none" xmlns="http://www.w3.org/2000/svg">
<path fill-rule="evenodd" clip-rule="evenodd" d="M12.0001 4.00005C11.2451 4.00011 10.5097 4.24048 9.9004 4.68635C9.29111 5.13222 8.83955 5.76044 8.61109 6.48005L7.81109 9.00005H16.1891L15.3891 6.48005C15.1606 5.76044 14.7091 5.13222 14.0998 4.68635C13.4905 4.24048 12.7551 4.00011 12.0001 4.00005ZM18.2871 9.00005L17.2951 5.87505C16.9384 4.75053 16.2329 3.76876 15.2809 3.07199C14.3289 2.37522 13.1798 1.99963 12.0001 1.99963C10.8203 1.99963 9.67124 2.37522 8.71924 3.07199C7.76724 3.76876 7.06179 4.75053 6.70509 5.87505L5.71309 9.00005H3.34809C3.03584 9.00006 2.72793 9.07318 2.44902 9.21355C2.1701 9.35393 1.92793 9.55766 1.74189 9.80843C1.55585 10.0592 1.43111 10.3501 1.37766 10.6577C1.32421 10.9653 1.34354 11.2812 1.43409 11.5801L2.55809 15.2901L3.94609 19.8701C4.13278 20.4861 4.51268 21.0258 5.02968 21.4094C5.54668 21.7929 6.17335 22 6.81709 22H17.1831C17.8267 21.9998 18.4531 21.7926 18.9699 21.4091C19.4867 21.0255 19.8665 20.486 20.0531 19.8701L21.4421 15.2901L22.5661 11.5801C22.6566 11.2812 22.676 10.9653 22.6225 10.6577C22.5691 10.3501 22.4443 10.0592 22.2583 9.80843C22.0723 9.55766 21.8301 9.35393 21.5512 9.21355C21.2722 9.07318 20.9643 9.00006 20.6521 9.00005H18.2871ZM6.44409 11.0001H3.34809L4.25709 14.0001H8.03709L7.62709 11.0001H6.44409ZM9.64609 11.0001L10.0551 14.0001H13.9451L14.3551 11.0001H9.64509H9.64609ZM16.3731 11.0001L15.9631 14.0001H19.7431L20.6521 11.0001H16.3731ZM19.1371 16.0001H15.6901L15.1451 20H17.1821C17.3967 20 17.6056 19.931 17.7779 19.8032C17.9502 19.6753 18.0769 19.4954 18.1391 19.2901L19.1361 16.0001H19.1371ZM13.1271 20L13.6721 16.0001H10.3271L10.8731 20H13.1271ZM8.85409 20L8.30909 16.0001H4.86309L5.86009 19.2901C5.92232 19.4954 6.04896 19.6753 6.22129 19.8032C6.39362 19.931 6.60251 20 6.81709 20H8.85409Z" fill="white"/>
</svg>
