<svg width="39" height="39" viewBox="0 0 39 39" fill="none" xmlns="http://www.w3.org/2000/svg">
<g filter="url(#filter0_d_4951_3554)">
<rect x="1" width="36.6372" height="36.8182" rx="18.3186" fill="white"/>
<path d="M15.712 10.6362V12.6929M22.1111 10.6362V12.6929M12.2625 20.6577C11.9008 19.0714 11.9008 17.4206 12.2625 15.8343C12.7635 13.6379 14.431 11.9228 16.5667 11.4076C18.109 11.0355 19.7141 11.0355 21.2565 11.4076C23.3921 11.9228 25.0596 13.6379 25.5606 15.8343C25.9224 17.4206 25.9224 19.0714 25.5606 20.6577C25.0596 22.8542 23.3921 24.5692 21.2565 25.0844C19.7141 25.4565 18.109 25.4565 16.5667 25.0844C14.431 24.5692 12.7635 22.8542 12.2625 20.6577Z" stroke="#363740" stroke-width="1.5" stroke-linecap="round"/>
<path d="M20.5398 18.818H17.2832M18.9115 20.4544L18.9115 17.1816" stroke="#363740" stroke-width="1.5" stroke-linecap="round"/>
</g>
<defs>
<filter id="filter0_d_4951_3554" x="0" y="0" width="38.6372" height="38.8184" filterUnits="userSpaceOnUse" color-interpolation-filters="sRGB">
<feFlood flood-opacity="0" result="BackgroundImageFix"/>
<feColorMatrix in="SourceAlpha" type="matrix" values="0 0 0 0 0 0 0 0 0 0 0 0 0 0 0 0 0 0 127 0" result="hardAlpha"/>
<feOffset dy="1"/>
<feGaussianBlur stdDeviation="0.5"/>
<feColorMatrix type="matrix" values="0 0 0 0 0 0 0 0 0 0 0 0 0 0 0 0 0 0 0.1 0"/>
<feBlend mode="normal" in2="BackgroundImageFix" result="effect1_dropShadow_4951_3554"/>
<feBlend mode="normal" in="SourceGraphic" in2="effect1_dropShadow_4951_3554" result="shape"/>
</filter>
</defs>
</svg>
