<svg width="18" height="18" viewBox="0 0 18 18" fill="none"
    xmlns="http://www.w3.org/2000/svg">
    <path fill-rule="evenodd" clip-rule="evenodd" d="M4.94185 0.398109C3.65722 -0.270551 2.25244 -0.0424548 1.28173 0.679501C0.305745 1.40538 -0.281953 2.68005 0.183992 4.05656L0.938655 6.28601L6.55088 7.79397C7.54016 8.05978 7.53751 9.46436 6.54723 9.72643L0.926492 11.2139L0.166273 13.4321C-0.30487 14.8069 0.278006 16.0838 1.25124 16.8133C2.21921 17.5389 3.62312 17.7723 4.91027 17.1085L15.7972 11.494C18.0785 10.3175 18.0843 7.23888 15.8075 6.05377L4.94185 0.398109ZM1.5113 9.50752L4.35087 8.75604L1.51701 7.99461L1.61476 8.28338C1.71723 8.58609 1.71662 8.90844 1.61301 9.21076L1.5113 9.50752Z" fill="#A1A4B2"/>
</svg>
