<svg width="17" height="17" viewBox="0 0 17 17" fill="none"
    xmlns="http://www.w3.org/2000/svg">
    <path fill-rule="evenodd" clip-rule="evenodd" d="M2.87276 6.87172C1.97315 6.87172 1.24387 7.60103 1.24387 8.50066C1.24387 9.4003 1.97315 10.1296 2.87276 10.1296C3.77236 10.1296 4.50164 9.4003 4.50164 8.50066C4.50164 7.60103 3.77236 6.87172 2.87276 6.87172ZM0 8.50066C0 6.91403 1.28618 5.62781 2.87276 5.62781C4.45934 5.62781 5.74551 6.91403 5.74551 8.50066C5.74551 10.0873 4.45934 11.3735 2.87276 11.3735C1.28618 11.3735 0 10.0873 0 8.50066Z" fill="white"/>
    <path fill-rule="evenodd" clip-rule="evenodd" d="M14.1272 1.24392C13.2275 1.24392 12.4983 1.97322 12.4983 2.87286C12.4983 3.7725 13.2275 4.50181 14.1272 4.50181C15.0268 4.50181 15.756 3.7725 15.756 2.87286C15.756 1.97322 15.0268 1.24392 14.1272 1.24392ZM11.2544 2.87286C11.2544 1.28622 12.5406 0 14.1272 0C15.7137 0 16.9999 1.28622 16.9999 2.87286C16.9999 4.4595 15.7137 5.74573 14.1272 5.74573C12.5406 5.74573 11.2544 4.4595 11.2544 2.87286Z" fill="white"/>
    <path fill-rule="evenodd" clip-rule="evenodd" d="M14.1272 12.4982C13.2275 12.4982 12.4983 13.2275 12.4983 14.1271C12.4983 15.0268 13.2275 15.7561 14.1272 15.7561C15.0268 15.7561 15.756 15.0268 15.756 14.1271C15.756 13.2275 15.0268 12.4982 14.1272 12.4982ZM11.2544 14.1271C11.2544 12.5405 12.5406 11.2543 14.1272 11.2543C15.7137 11.2543 16.9999 12.5405 16.9999 14.1271C16.9999 15.7138 15.7137 17 14.1272 17C12.5406 17 11.2544 15.7138 11.2544 14.1271Z" fill="white"/>
    <path fill-rule="evenodd" clip-rule="evenodd" d="M12.4131 3.68489C12.5861 3.9816 12.4859 4.36244 12.1892 4.53552L5.92284 8.19106C5.81292 8.25518 5.74534 8.37285 5.74534 8.50009C5.74534 8.62734 5.81292 8.74501 5.92284 8.80913L12.1892 12.4647C12.4859 12.6377 12.5861 13.0186 12.4131 13.3153C12.24 13.612 11.8592 13.7122 11.5625 13.5391L4.85117 9.62405C4.63462 9.49773 4.50146 9.26589 4.50146 9.01519V7.985C4.50146 7.73429 4.63462 7.50245 4.85117 7.37613L11.5625 3.46105C11.8592 3.28797 12.24 3.38819 12.4131 3.68489Z" fill="white"/>
</svg>
