<svg width="43" height="43" viewBox="0 0 43 43" fill="none" xmlns="http://www.w3.org/2000/svg">
<path fill-rule="evenodd" clip-rule="evenodd" d="M21.5 42.75C9.76362 42.75 0.25 33.2364 0.25 21.5C0.25 9.76362 9.76362 0.25 21.5 0.25C33.2364 0.25 42.75 9.76362 42.75 21.5C42.75 33.2364 33.2364 42.75 21.5 42.75ZM28.1852 15.4352C28.6007 15.0198 29.2743 15.0198 29.6897 15.4352C30.1052 15.8507 30.1052 16.5243 29.6897 16.9397L19.0647 27.5648C18.8654 27.7646 18.5948 27.8769 18.3125 27.8769C18.0302 27.8769 17.7596 27.7646 17.5602 27.5648L13.3102 23.3148C12.8948 22.8993 12.8948 22.2257 13.3102 21.8103C13.7257 21.3948 14.3993 21.3948 14.8147 21.8103L18.3125 25.3101L28.1852 15.4352Z" fill="#8E97FD"/>
</svg>
