<svg width="76" height="76" viewBox="0 0 76 76" fill="none" xmlns="http://www.w3.org/2000/svg">
<path d="M0 38C0 17.0132 17.0132 0 38 0C58.9868 0 76 17.0132 76 38C76 58.9868 58.9868 76 38 76C17.0132 76 0 58.9868 0 38Z" fill="#D3DCFF" fill-opacity="0.2"/>
<path fill-rule="evenodd" clip-rule="evenodd" d="M2 38C2 57.8823 18.1178 74 38 74C57.8823 74 74 57.8823 74 38C74 18.1178 57.8823 2 38 2C18.1178 2 2 18.1178 2 38ZM38 0C17.0132 0 0 17.0132 0 38C0 58.9868 17.0132 76 38 76C58.9868 76 76 58.9868 76 38C76 17.0132 58.9868 0 38 0Z" fill="#8E97FD"/>
<path d="M14.8293 38.0003C14.8293 25.2035 25.2032 14.8296 38.0001 14.8296C50.7969 14.8296 61.1708 25.2035 61.1708 38.0003C61.1708 50.7972 50.7969 61.1711 38.0001 61.1711C25.2032 61.1711 14.8293 50.7972 14.8293 38.0003Z" fill="#8E97FD"/>
<path fill-rule="evenodd" clip-rule="evenodd" d="M15.8293 38.0003C15.8293 50.2449 25.7555 60.1711 38.0001 60.1711C50.2446 60.1711 60.1708 50.2449 60.1708 38.0003C60.1708 25.7558 50.2446 15.8296 38.0001 15.8296C25.7555 15.8296 15.8293 25.7558 15.8293 38.0003ZM38.0001 14.8296C25.2032 14.8296 14.8293 25.2035 14.8293 38.0003C14.8293 50.7972 25.2032 61.1711 38.0001 61.1711C50.7969 61.1711 61.1708 50.7972 61.1708 38.0003C61.1708 25.2035 50.7969 14.8296 38.0001 14.8296Z" fill="#8E97FD"/>
<path d="M48.375 37.4999C48.3788 39.9351 47.5651 42.301 46.0643 44.2188C44.5636 46.1366 42.4626 47.4951 40.0979 48.0768C37.7332 48.6586 35.2417 48.4298 33.0225 47.4272C30.8033 46.4245 28.9848 44.7061 27.8584 42.5471C26.732 40.3881 26.3628 37.9135 26.8099 35.5197C27.2571 33.126 28.4948 30.9515 30.3246 29.3448C32.1545 27.7381 34.4707 26.792 36.9022 26.6581C39.3337 26.5243 41.7398 27.2104 43.735 28.6066L43.6021 28.2199C43.4995 27.9074 43.5253 27.567 43.6737 27.2736C43.8222 26.9801 44.0811 26.7576 44.3935 26.6551C44.706 26.5525 45.0464 26.5783 45.3399 26.7267C45.6333 26.8752 45.8558 27.1341 45.9583 27.4466L47.1667 31.0716C47.2266 31.2533 47.2425 31.4466 47.2131 31.6357C47.1837 31.8247 47.1098 32.0041 46.9975 32.1591C46.8805 32.3238 46.7241 32.4565 46.5426 32.5452C46.361 32.6339 46.1602 32.6756 45.9583 32.6666H42.3333C42.0129 32.6666 41.7055 32.5392 41.4789 32.3126C41.2523 32.086 41.125 31.7787 41.125 31.4582C41.1294 31.2025 41.2148 30.9547 41.369 30.7506C41.5231 30.5465 41.7381 30.3965 41.9829 30.3224C40.3934 29.3289 38.5189 28.8916 36.6539 29.0791C34.7888 29.2666 33.0389 30.0683 31.679 31.3583C30.319 32.6483 29.4261 34.3535 29.1405 36.206C28.8548 38.0586 29.1926 39.9535 30.1008 41.5932C31.009 43.233 32.4361 44.5246 34.1581 45.2652C35.88 46.0058 37.7991 46.1534 39.6141 45.6849C41.429 45.2164 43.0369 44.1583 44.1853 42.6768C45.3336 41.1953 45.9573 39.3743 45.9583 37.4999C45.9583 37.1794 46.0856 36.8721 46.3122 36.6455C46.5389 36.4189 46.8462 36.2916 47.1667 36.2916C47.4871 36.2916 47.7945 36.4189 48.0211 36.6455C48.2477 36.8721 48.375 37.1794 48.375 37.4999Z" fill="white"/>
</svg>
