<svg width="804" height="660" viewBox="0 0 804 660" fill="none" xmlns="http://www.w3.org/2000/svg">
<g id="No Results">
<g id="circle">
<path id="Stroke 1" d="M27.7925 303.217V310.023" stroke="#D2D8DF" stroke-width="2.921" stroke-linecap="round"/>
<g id="Group 8">
<path id="Stroke 2" d="M12.5039 306.906L18.0658 312.631" stroke="#D2D8DF" stroke-width="2.921" stroke-linecap="round"/>
<path id="Stroke 4" d="M6 322.147H13.8644" stroke="#D2D8DF" stroke-width="2.921" stroke-linecap="round"/>
<path id="Stroke 6" d="M11.8682 337.66L17.4301 331.934" stroke="#D2D8DF" stroke-width="2.921" stroke-linecap="round"/>
</g>
<path id="Stroke 9" d="M27.7925 339.519V332.713" stroke="#D2D8DF" stroke-width="2.921" stroke-linecap="round"/>
<path id="Stroke 10" d="M39.1358 334.982L34.5981 330.444" stroke="#D2D8DF" stroke-width="2.921" stroke-linecap="round"/>
<path id="Stroke 11" d="M48.2103 323.637H41.4038" stroke="#D2D8DF" stroke-width="2.921" stroke-linecap="round"/>
<path id="Stroke 12" d="M43.6739 307.755L39.1362 312.293" stroke="#D2D8DF" stroke-width="2.921" stroke-linecap="round"/>
<path id="Stroke 13" d="M393.076 6V10.5377" stroke="#D2D8DF" stroke-width="2.921" stroke-linecap="round"/>
<path id="Stroke 15" d="M379.462 19.6132H384" stroke="#D2D8DF" stroke-width="2.921" stroke-linecap="round"/>
<path id="Stroke 16" d="M393.076 33.2265V28.6888" stroke="#D2D8DF" stroke-width="2.921" stroke-linecap="round"/>
<path id="Stroke 17" d="M404.42 19.6132H399.882" stroke="#D2D8DF" stroke-width="2.921" stroke-linecap="round"/>
<path id="Stroke 18" d="M129.891 196.583V203.389" stroke="#D2D8DF" stroke-width="2.921" stroke-linecap="round"/>
<path id="Stroke 19" d="M109.471 217.001H116.277" stroke="#D2D8DF" stroke-width="2.921" stroke-linecap="round"/>
<path id="Stroke 20" d="M129.891 235.152V228.345" stroke="#D2D8DF" stroke-width="2.921" stroke-linecap="round"/>
<path id="Stroke 21" d="M148.039 217.001H141.233" stroke="#D2D8DF" stroke-width="2.921" stroke-linecap="round"/>
<g id="Group 42">
<path id="Stroke 22" d="M767.183 483.056C772.605 483.056 777.003 487.454 777.003 492.878C777.003 498.303 772.605 502.7 767.183 502.7C761.761 502.7 757.364 498.303 757.364 492.878" stroke="#D2D8DF" stroke-width="2.921" stroke-linecap="round"/>
<path id="Fill 26" fill-rule="evenodd" clip-rule="evenodd" d="M663.208 354.865C669.038 353.046 677.976 345.915 680.044 338.243C681.921 345.025 689.785 353.046 696.881 353.653C688.893 356.481 681.256 364.883 680.044 371.484C679.22 364.756 668.657 355.845 663.208 354.865Z" fill="#EBECEE"/>
<path id="Fill 28" fill-rule="evenodd" clip-rule="evenodd" d="M64.7139 440.947C67.6301 440.038 72.0968 436.474 73.1311 432.638C74.0692 436.027 78.0004 440.038 81.5484 440.342C77.5555 441.754 73.7379 445.957 73.1311 449.257C72.7189 445.893 67.4374 441.437 64.7139 440.947Z" fill="#EBECEE"/>
<path id="Fill 30" fill-rule="evenodd" clip-rule="evenodd" d="M118.832 125.335C118.832 129.543 115.423 132.951 111.218 132.951C107.011 132.951 103.604 129.543 103.604 125.335C103.604 121.129 107.011 117.719 111.218 117.719C115.423 117.719 118.832 121.129 118.832 125.335Z" fill="#D1D8DF"/>
<path id="Fill 32" fill-rule="evenodd" clip-rule="evenodd" d="M627.262 145.785C627.262 152.815 621.562 158.514 614.536 158.514C607.505 158.514 601.808 152.815 601.808 145.785C601.808 138.754 607.505 133.055 614.536 133.055C621.562 133.055 627.262 138.754 627.262 145.785Z" fill="#EBECEE"/>
<path id="Fill 34" fill-rule="evenodd" clip-rule="evenodd" d="M803.542 111.295C803.542 116.873 799.024 121.393 793.449 121.393C787.873 121.393 783.354 116.873 783.354 111.295C783.354 105.718 787.873 101.198 793.449 101.198C799.024 101.198 803.542 105.718 803.542 111.295Z" fill="#EBECEE"/>
<path id="Stroke 36" fill-rule="evenodd" clip-rule="evenodd" d="M261.131 582.891C261.131 586.407 258.283 589.257 254.767 589.257C251.254 589.257 248.405 586.407 248.405 582.891C248.405 579.375 251.254 576.526 254.767 576.526C258.283 576.526 261.131 579.375 261.131 582.891Z" stroke="#D2D8DF" stroke-width="2.921" stroke-linecap="round"/>
<path id="Stroke 38" fill-rule="evenodd" clip-rule="evenodd" d="M257.345 76.4069C257.345 80.6148 253.936 84.023 249.731 84.023C245.526 84.023 242.117 80.6148 242.117 76.4069C242.117 72.2011 245.526 68.7909 249.731 68.7909C253.936 68.7909 257.345 72.2011 257.345 76.4069Z" stroke="#D2D8DF" stroke-width="2.921" stroke-linecap="round"/>
<path id="Stroke 40" fill-rule="evenodd" clip-rule="evenodd" d="M451.566 653.382C446.7 655.233 441.255 652.788 439.404 647.924C437.553 643.057 439.995 637.608 444.863 635.759C449.726 633.907 455.171 636.35 457.022 641.217C458.875 646.084 456.431 651.53 451.566 653.382Z" stroke="#D2D8DF" stroke-width="2.921" stroke-linecap="round"/>
</g>
</g>
<g id="search">
<g id="documents">
<path id="Fill 1" fill-rule="evenodd" clip-rule="evenodd" d="M448.664 473.381H262.609C249.514 473.381 238.794 462.63 238.794 449.491V184.167C238.794 171.027 249.514 160.282 262.609 160.282H448.664C461.765 160.282 472.485 171.027 472.485 184.167V449.491C472.485 462.63 461.765 473.381 448.664 473.381Z" fill="#E0E2EE"/>
<path id="Fill 3" fill-rule="evenodd" clip-rule="evenodd" d="M432.781 484.725H246.726C233.63 484.725 222.911 473.974 222.911 460.835V195.511C222.911 182.371 233.63 171.626 246.726 171.626H432.781C445.882 171.626 456.601 182.371 456.601 195.511V460.835C456.601 473.974 445.882 484.725 432.781 484.725Z" fill="#E8EBF2"/>
<path id="Fill 5" fill-rule="evenodd" clip-rule="evenodd" d="M417.333 493.681H230.893C217.771 493.681 207.029 482.975 207.029 469.889V205.664C207.029 192.579 217.771 181.878 230.893 181.878H417.333C430.461 181.878 441.203 192.579 441.203 205.664V469.889C441.203 482.975 430.461 493.681 417.333 493.681Z" fill="#D8DBEA"/>
<path id="Fill 8" fill-rule="evenodd" clip-rule="evenodd" d="M417.333 493.681H230.893C217.771 493.681 207.029 482.975 207.029 469.889V205.664C207.029 192.579 217.771 181.878 230.893 181.878H417.333C430.461 181.878 441.203 192.579 441.203 205.664V469.889C441.203 482.975 430.461 493.681 417.333 493.681Z" fill="#F1F2F7"/>
<path id="Fill 11" fill-rule="evenodd" clip-rule="evenodd" d="M390.46 262.38H252.752C248.819 262.38 245.6 259.317 245.6 255.576C245.6 251.829 248.819 248.767 252.752 248.767H390.46C394.393 248.767 397.612 251.829 397.612 255.576C397.612 259.317 394.393 262.38 390.46 262.38Z" fill="#E0E2EE"/>
<path id="Fill 13" fill-rule="evenodd" clip-rule="evenodd" d="M390.46 303.218H252.752C248.819 303.218 245.6 300.156 245.6 296.414C245.6 292.668 248.819 289.605 252.752 289.605H390.46C394.393 289.605 397.612 292.668 397.612 296.414C397.612 300.156 394.393 303.218 390.46 303.218Z" fill="#E0E2EE"/>
<path id="Fill 15" fill-rule="evenodd" clip-rule="evenodd" d="M390.46 344.058H252.752C248.819 344.058 245.6 340.995 245.6 337.254C245.6 333.512 248.819 330.445 252.752 330.445H390.46C394.393 330.445 397.612 333.512 397.612 337.254C397.612 340.995 394.393 344.058 390.46 344.058Z" fill="#E0E2EE"/>
<path id="Fill 17" fill-rule="evenodd" clip-rule="evenodd" d="M390.46 384.897H252.752C248.819 384.897 245.6 381.834 245.6 378.093C245.6 374.346 248.819 371.284 252.752 371.284H390.46C394.393 371.284 397.612 374.346 397.612 378.093C397.612 381.834 394.393 384.897 390.46 384.897Z" fill="#E0E2EE"/>
<path id="Fill 19" fill-rule="evenodd" clip-rule="evenodd" d="M324.634 425.736H252.783C248.833 425.736 245.6 422.673 245.6 418.932C245.6 415.185 248.833 412.123 252.783 412.123H324.634C328.583 412.123 331.816 415.185 331.816 418.932C331.816 422.673 328.583 425.736 324.634 425.736Z" fill="#E0E2EE"/>
</g>
<g id="search_2">
<path id="Fill 21" fill-rule="evenodd" clip-rule="evenodd" d="M469.661 372.956C442.125 400.487 399.496 403.593 368.547 382.337C364.592 379.571 360.827 376.466 357.316 372.956C355.509 371.154 353.806 369.295 352.201 367.338C348.99 363.43 346.178 359.262 343.875 354.955C339.816 347.681 337.056 339.963 335.549 331.985C330.687 306.964 337.956 280.033 357.316 260.682C376.723 241.273 403.659 234.051 428.683 238.866C436.657 240.419 444.383 243.178 451.658 247.191C455.971 249.546 460.082 252.357 463.997 255.567C465.948 257.166 467.808 258.875 469.609 260.682C473.126 264.192 476.278 267.95 478.992 271.911C500.258 302.848 497.145 345.476 469.661 372.956Z" fill="white" fill-opacity="0.1"/>
<path id="Fill 23" fill-rule="evenodd" clip-rule="evenodd" d="M461.954 367.534C433.307 396.187 386.881 396.181 358.228 367.534C329.612 338.918 329.612 292.487 358.265 263.839C386.881 235.223 433.307 235.223 461.922 263.839C490.57 292.487 490.57 338.918 461.954 367.534ZM476.658 249.12C439.886 212.348 380.299 212.348 343.527 249.12C306.76 285.886 306.728 345.511 343.495 382.283C376.962 415.739 429.417 418.756 466.311 391.287C469.915 388.6 473.385 385.588 476.695 382.283C480 378.973 483.012 375.502 485.694 371.899C513.163 334.999 510.119 282.581 476.658 249.12Z" fill="#E0E2EE"/>
<path id="Fill 25" fill-rule="evenodd" clip-rule="evenodd" d="M621.373 520.895L619.829 522.439C609.616 532.657 592.891 532.657 582.672 522.439L488.369 428.135L527.069 389.435L621.373 483.738C631.591 493.957 631.591 510.676 621.373 520.895Z" fill="#EF5858"/>
<path id="Fill 27" fill-rule="evenodd" clip-rule="evenodd" d="M487.727 369.016L515.594 396.883L495.81 416.662L467.949 388.794C471.626 386.053 475.162 382.979 478.545 379.607C481.918 376.234 484.991 372.693 487.727 369.016Z" fill="#E0E2EE"/>
<path id="Fill 29" fill-rule="evenodd" clip-rule="evenodd" d="M619.96 482.579L581.506 521.027L574.583 514.099L613.032 475.651L619.96 482.579Z" fill="#EF5858"/>
<path id="Fill 31" fill-rule="evenodd" clip-rule="evenodd" d="M529.206 390.766L489.699 430.274L483.829 424.405L523.336 384.897L529.206 390.766Z" fill="#FDEEEE"/>
<path id="Fill 33" fill-rule="evenodd" clip-rule="evenodd" d="M442.99 253.982L346.103 350.864C342.454 344.325 339.973 337.385 338.624 330.213L422.338 246.497C429.506 247.899 436.45 250.374 442.99 253.982Z" fill="white" fill-opacity="0.5"/>
<path id="Fill 35" fill-rule="evenodd" clip-rule="evenodd" d="M474.755 277.012L370.01 375.823C366.258 373.354 362.688 370.574 359.359 367.433C357.645 365.817 356.024 364.158 354.507 362.407L460.528 262.381C462.385 263.818 464.148 265.347 465.857 266.964C469.186 270.105 472.181 273.468 474.755 277.012Z" fill="white" fill-opacity="0.5"/>
</g>
</g>
</g>
</svg>
