<svg width="247" height="228" viewBox="0 0 247 228" fill="none" xmlns="http://www.w3.org/2000/svg">
<path fill-rule="evenodd" clip-rule="evenodd" d="M208 210.086C208 219.98 172.182 228 128 228C83.8169 228 48 219.98 48 210.086C48 200.192 83.8169 192.171 128 192.171C172.182 192.171 208 200.192 208 210.086Z" fill="#F2F3FB"/>
<path fill-rule="evenodd" clip-rule="evenodd" d="M186.439 118.343H81V84.8912C81 70.3869 91.7935 58.6285 105.109 58.6285H164.89C178.206 58.6285 189 70.3869 189 84.8912V115.554C189 117.094 187.854 118.343 186.439 118.343Z" fill="#BEC0D5"/>
<path fill-rule="evenodd" clip-rule="evenodd" d="M186 112.914H78V84.5693C78 70.2424 88.7935 58.6285 102.109 58.6285H161.89C175.206 58.6285 186 70.2424 186 84.5693V112.914Z" fill="#D8DBE8"/>
<path fill-rule="evenodd" clip-rule="evenodd" d="M102 61.8857C90.4024 61.8857 81 71.9825 81 84.4385V112.914H123V84.4385C123 71.9825 113.598 61.8857 102 61.8857Z" fill="#FEFEFE"/>
<path fill-rule="evenodd" clip-rule="evenodd" d="M78 83.6V84.6857C78 84.3221 78.014 83.9615 78.026 83.6H78Z" fill="#E7EAF0"/>
<path fill-rule="evenodd" clip-rule="evenodd" d="M183.027 83.6H183C183.012 83.9615 183.027 84.3221 183.027 84.6857V83.6Z" fill="#E7EAF0"/>
<path fill-rule="evenodd" clip-rule="evenodd" d="M161.216 58.6285H102.189C102.125 58.6285 102.063 58.6329 102 58.6338C114.483 58.7446 124.573 69.7867 124.573 83.3978V83.6H185C184.548 69.7261 174.076 58.6285 161.216 58.6285Z" fill="#E7EAF0"/>
<path fill-rule="evenodd" clip-rule="evenodd" d="M185 117.257H66.1707C64.971 117.257 64 116.285 64 115.085C64 113.886 64.971 112.914 66.1707 112.914H185V117.257Z" fill="#D8DBE8"/>
<path fill-rule="evenodd" clip-rule="evenodd" d="M125 210.629H134V117.257H125V210.629Z" fill="#F0F1F5"/>
<path fill-rule="evenodd" clip-rule="evenodd" d="M128 210.629H134V117.257H128V210.629Z" fill="#BEC0D5"/>
<path fill-rule="evenodd" clip-rule="evenodd" d="M140.058 123.771H118.941C116.764 123.771 115 121.988 115 119.787V117.257H144V119.787C144 121.988 142.235 123.771 140.058 123.771Z" fill="#BEC0D5"/>
<path fill-rule="evenodd" clip-rule="evenodd" d="M115 119.429H144V117.257H115V119.429Z" fill="#F0F1F5"/>
<path fill-rule="evenodd" clip-rule="evenodd" d="M129.5 204.114C121.492 204.114 115 207.735 115 212.201C115 216.667 121.492 217.143 129.5 217.143C137.508 217.143 144 216.667 144 212.201C144 207.735 137.508 204.114 129.5 204.114Z" fill="#BEC0D5"/>
<path fill-rule="evenodd" clip-rule="evenodd" d="M125.535 214.382C128.458 210.713 127.981 206.453 127.958 204.114C119.896 204.114 115 207.558 115 211.843C115 214.165 116.92 215.362 119.962 215.972C119.962 215.972 123.759 216.612 125.535 214.382Z" fill="#F0F1F5"/>
<path fill-rule="evenodd" clip-rule="evenodd" d="M154.914 98.2168C154.383 101.463 151.527 103.627 148.537 103.05C145.548 102.473 143.554 99.373 144.086 96.1267C144.617 92.8805 147.472 90.7163 150.463 91.2931C153.453 91.8708 155.446 94.9705 154.914 98.2168Z" fill="#BEC0D5"/>
<path fill-rule="evenodd" clip-rule="evenodd" d="M153.836 97.3897C153.173 99.9895 150.693 101.513 148.299 100.793C145.905 100.073 144.501 97.3819 145.164 94.7821C145.827 92.1823 148.307 90.6582 150.701 91.3786C153.095 92.0989 154.499 94.7899 153.836 97.3897Z" fill="#F07185"/>
<path fill-rule="evenodd" clip-rule="evenodd" d="M170.784 66.7402L158.248 63.0496C157.173 62.7326 156.049 63.4088 155.751 64.5517L154.03 71.1569L153.222 74.2581L147 98.1349L149.258 98.8L155.479 74.9223L167.713 78.5236C170.763 79.4215 173.947 77.5045 174.792 74.2641C175.637 71.0229 173.833 67.6373 170.784 66.7402Z" fill="#EF5858"/>
<path d="M119 90.1143C120.917 91.4607 122 92.2857 122 92.2857" stroke="#9D9D9D"/>
<path d="M246 53.1206C246 53.1206 244.346 53.4682 243.243 52.7088C241.296 51.3681 242.021 49.5973 240.541 48.792C238.702 47.7901 237.748 49.8522 235.985 48.8925C233.914 47.7646 235.28 45.9266 233.325 44.8617C231.278 43.7474 229.775 45.5338 227.845 44.4825C226.841 43.9352 226.712 43.401 226.284 42.3884C225.821 41.2968 225.911 40.3471 224.649 39.6643C222.987 38.7664 221.754 40.6692 219.707 39.555C217.752 38.4901 219.117 36.6521 217.046 35.5242C215.283 34.5645 214.33 36.6265 212.49 35.6252C211.011 34.8194 211.789 32.9636 209.789 31.7079C208.155 30.6828 206.847 31.6152 206.003 31.4803C204.527 31.245 204 29.3143 204 29.3143" stroke="#F06D8D"/>
<path d="M27 163.943C27 163.943 27.1173 162.082 28.1381 161.121C29.9396 159.428 31.4263 160.704 32.5929 159.356C34.0431 157.68 32.341 156.076 33.7303 154.47C35.3628 152.584 36.7408 154.562 38.2819 152.78C39.8952 150.916 38.6046 148.805 40.1265 147.048C40.9179 146.133 41.4607 146.147 42.5391 145.978C43.7024 145.796 44.5806 146.162 45.5722 145.011C46.8746 143.495 45.4005 141.638 47.0132 139.774C48.5556 137.992 49.9329 139.97 51.5654 138.084C52.9547 136.477 51.2532 134.874 52.7028 133.199C53.8694 131.85 55.423 133.207 57.1576 131.432C58.5747 129.983 58.0425 128.323 58.3984 127.462C59.0221 125.954 61 125.943 61 125.943" stroke="#F06D8D"/>
<path fill-rule="evenodd" clip-rule="evenodd" d="M16.9317 122.017C16.7232 121.294 15.8167 120.415 13.8606 121.134C12.4594 121.648 10.2104 123.098 9.12118 124.144C9.68646 122.625 10.2483 119.676 10.2483 118.001C10.2483 115.678 9.16599 115.086 8.49385 115.086C7.82344 115.086 6.80317 115.791 6.80317 118.114C6.80317 119.782 7.32882 122.648 7.8717 124.142C6.7687 123.065 4.46276 121.549 3.053 121.031C1.09692 120.314 0.266226 121.294 0.0576913 122.017C-0.14912 122.738 0.128352 124.053 2.08271 124.77C3.48386 125.286 6.05693 125.608 7.48392 125.483C6.23617 126.338 4.24906 128.349 3.37701 129.704C2.17061 131.584 2.73762 132.782 3.28049 133.228C3.8251 133.675 5.01598 133.784 6.2241 131.903C7.08926 130.555 8.15606 127.887 8.49385 126.315C8.82647 127.921 9.90361 130.68 10.7739 132.036C11.9821 133.914 13.1643 133.675 13.7089 133.228C14.2518 132.782 14.7102 131.535 13.5038 129.655C12.637 128.308 10.7205 126.336 9.50378 125.487C10.9566 125.627 13.6107 125.319 15.0205 124.803C16.9748 124.086 17.1385 122.738 16.9317 122.017Z" fill="#EF5858"/>
<path fill-rule="evenodd" clip-rule="evenodd" d="M28.9995 71.263C29.0151 70.8782 28.6983 70.2762 27.5763 70.2286C26.7727 70.194 25.3792 70.4374 24.6457 70.7186C25.1903 70.1069 25.9721 68.8126 26.2515 68.0133C26.6416 66.9048 26.1859 66.4049 25.8426 66.2717C25.4993 66.1368 24.8595 66.27 24.4694 67.3785C24.1901 68.1745 23.9778 69.648 24.0059 70.4687C23.6221 69.7335 22.6951 68.5511 22.0616 68.0215C21.1799 67.288 20.5885 67.5906 20.3622 67.8949C20.1344 68.1975 20.0579 68.88 20.938 69.6135C21.5685 70.1381 22.8325 70.8058 23.5815 71.0311C22.7997 71.1906 21.4452 71.7531 20.7742 72.2251C19.8395 72.8813 19.93 73.5671 20.1328 73.8878C20.3357 74.2101 20.9287 74.4996 21.8618 73.8434C22.5297 73.373 23.5238 72.3123 23.9607 71.6297C23.8608 72.4619 23.9513 73.9947 24.1682 74.8153C24.4725 75.9534 25.1186 76.0751 25.4712 75.9698C25.8239 75.8662 26.2686 75.363 25.9659 74.2233C25.7474 73.4075 25.0967 72.0853 24.6161 71.4373C25.337 71.7926 26.7477 72.1774 27.5545 72.2119C28.6764 72.2596 28.9854 71.6478 28.9995 71.263Z" fill="#DFE1EC"/>
<path fill-rule="evenodd" clip-rule="evenodd" d="M125.677 30.5242C125.341 30.2913 124.637 30.2836 123.996 31.4258C123.535 32.2446 123.006 33.8371 122.865 34.7609C122.611 33.8477 121.877 32.3014 121.316 31.5576C120.537 30.5251 119.851 30.7195 119.547 31.0024C119.244 31.2843 119.02 32.0272 119.798 33.0597C120.357 33.7987 121.554 34.8513 122.301 35.2853C121.441 35.2728 119.892 35.5711 119.082 35.9348C117.959 36.439 117.913 37.2261 118.061 37.6341C118.21 38.0412 118.774 38.5088 119.898 38.0036C120.703 37.6418 121.974 36.6998 122.575 36.0455C122.298 36.95 122.075 38.6811 122.135 39.6491C122.22 40.9933 122.878 41.2858 123.273 41.255C123.667 41.2242 124.242 40.7701 124.157 39.4268C124.096 38.4626 123.683 36.8287 123.309 35.9897C123.998 36.5622 125.408 37.333 126.256 37.5677C127.43 37.8939 127.884 37.2877 127.98 36.8615C128.075 36.4342 127.864 35.6866 126.689 35.3604C125.847 35.1275 124.322 35.0592 123.488 35.1949C124.191 34.6445 125.286 33.3907 125.749 32.567C126.39 31.4248 126.013 30.757 125.677 30.5242Z" fill="#DFE1EC"/>
<path fill-rule="evenodd" clip-rule="evenodd" d="M184.042 14.3988C181.44 13.3334 179.33 11.5681 178.046 9.38041L177 7.59998L176.173 9.11017C174.883 11.4642 172.651 13.3593 169.869 14.4598L168 15.2002L169.929 16.0187C172.248 17.0031 174.167 18.5494 175.44 20.46L177 22.8L178.198 20.8864C179.392 18.9811 181.221 17.4128 183.459 16.3763L186 15.2002L184.042 14.3988Z" fill="#E8E9EB"/>
<path fill-rule="evenodd" clip-rule="evenodd" d="M191.347 1.94254C190.48 1.63825 189.776 1.13348 189.349 0.508345L189 0L188.724 0.431377C188.295 1.10395 187.55 1.64541 186.623 1.95999L186 2.17165L186.643 2.40524C187.416 2.68671 188.056 3.12838 188.48 3.67431L189 4.34286L189.399 3.79648C189.797 3.25188 190.407 2.8035 191.153 2.50771L192 2.17165L191.347 1.94254Z" fill="#E8E9EB"/>
<path fill-rule="evenodd" clip-rule="evenodd" d="M170.347 7.37113C169.48 7.06684 168.776 6.56252 168.349 5.93738L168 5.42859L167.724 5.85997C167.295 6.53254 166.55 7.074 165.623 7.38858L165 7.60024L165.644 7.83428C166.416 8.1153 167.056 8.55697 167.48 9.1029L168 9.77145L168.399 9.22506C168.797 8.68047 169.407 8.23209 170.153 7.9363L171 7.60024L170.347 7.37113Z" fill="#E8E9EB"/>
<path d="M172.239 24.3009C160.35 32.258 165.314 42.2796 171.069 46.5261" stroke="#E8E9EB"/>
</svg>
