<svg width="215" height="144" viewBox="0 0 215 144" fill="none" xmlns="http://www.w3.org/2000/svg">
<path fill-rule="evenodd" clip-rule="evenodd" d="M145.059 135.522C145.059 136.927 126.984 138.066 104.685 138.066C82.3871 138.066 64.3101 136.927 64.3101 135.522C64.3101 134.118 82.3871 132.979 104.685 132.979C126.984 132.979 145.059 134.118 145.059 135.522Z" fill="#DCDCE2"/>
<path fill-rule="evenodd" clip-rule="evenodd" d="M66.6813 109H146.342C148.362 109 150 107.406 150 105.44V53.5677C150 51.5972 148.358 50 146.334 50H64.7483C63.7824 50 63 50.7615 63 51.7014V105.417C63 107.396 64.6476 109 66.6813 109Z" fill="#F1F2F7"/>
<path fill-rule="evenodd" clip-rule="evenodd" d="M66.649 109.454H76.2571C76.3307 109.454 76.3911 109.394 76.3911 109.32V42.1909C76.3911 42.1168 76.3307 42.0566 76.2571 42.0566H66.649C64.6547 42.0566 63.0388 43.6677 63.0388 45.6561V105.854C63.0388 107.842 64.6547 109.454 66.649 109.454Z" fill="#BEC0D6"/>
<path fill-rule="evenodd" clip-rule="evenodd" d="M135.074 42.0566H66.736V42.0656C64.6873 42.115 63.0388 43.7956 63.0388 45.8719C63.0388 47.9482 64.6873 49.6288 66.736 49.6782V49.6865H139.203C139.277 49.6865 139.337 49.6262 139.337 49.5512V46.3522C139.337 43.9797 137.428 42.0566 135.074 42.0566Z" fill="#D8DBEA"/>
<path fill-rule="evenodd" clip-rule="evenodd" d="M138.065 79.57C138.065 81.3259 136.642 82.7491 134.886 82.7491C133.13 82.7491 131.707 81.3259 131.707 79.57C131.707 77.814 133.13 76.3909 134.886 76.3909C136.642 76.3909 138.065 77.814 138.065 79.57Z" fill="#FEFEFF"/>
<path d="M7.7229 63.675V65.5825" stroke="#D2D8DF" stroke-width="2.921" stroke-linecap="round"/>
<path d="M3.90698 65.5825L5.17863 66.8542" stroke="#D2D8DF" stroke-width="2.921" stroke-linecap="round"/>
<path d="M2 69.3972H3.90747" stroke="#D2D8DF" stroke-width="2.921" stroke-linecap="round"/>
<path d="M3.90698 73.2121L5.17863 71.9404" stroke="#D2D8DF" stroke-width="2.921" stroke-linecap="round"/>
<path d="M7.7229 75.1196V73.2122" stroke="#D2D8DF" stroke-width="2.921" stroke-linecap="round"/>
<path d="M11.537 73.2121L10.2654 71.9404" stroke="#D2D8DF" stroke-width="2.921" stroke-linecap="round"/>
<path d="M13.4441 69.3972H11.5366" stroke="#D2D8DF" stroke-width="2.921" stroke-linecap="round"/>
<path d="M11.537 65.5825L10.2654 66.8542" stroke="#D2D8DF" stroke-width="2.921" stroke-linecap="round"/>
<path d="M35.6987 35.6986V37.6061" stroke="#D2D8DF" stroke-width="2.921" stroke-linecap="round"/>
<path d="M29.9756 41.4211H31.8831" stroke="#D2D8DF" stroke-width="2.921" stroke-linecap="round"/>
<path d="M35.063 46.5073V44.5999" stroke="#D2D8DF" stroke-width="2.921" stroke-linecap="round"/>
<path d="M40.7842 41.4211H38.8767" stroke="#D2D8DF" stroke-width="2.921" stroke-linecap="round"/>
<path d="M165.406 102.46C166.81 102.46 167.949 103.598 167.949 105.003C167.949 106.408 166.81 107.546 165.406 107.546C164.001 107.546 162.862 106.408 162.862 105.003" stroke="#D2D8DF" stroke-width="2.921" stroke-linecap="round"/>
<path d="M177.445 137.138C177.77 139.409 176.2 141.513 173.941 141.839C171.683 142.164 169.588 140.587 169.264 138.317C168.941 136.046 170.509 133.941 172.769 133.615" stroke="#D2D8DF" stroke-width="2.921" stroke-linecap="round"/>
<path fill-rule="evenodd" clip-rule="evenodd" d="M177.486 78.2983C179.028 77.8108 181.39 75.902 181.937 73.8479C182.433 75.6636 184.512 77.8108 186.388 77.9739C184.276 78.7317 182.258 80.9821 181.937 82.7494C181.719 80.9477 178.927 78.5609 177.486 78.2983Z" fill="#EBECEF"/>
<path fill-rule="evenodd" clip-rule="evenodd" d="M17.8953 101.506C18.6663 101.263 19.8474 100.308 20.121 99.281C20.3687 100.189 21.4077 101.263 22.346 101.344C21.2901 101.723 20.2807 102.848 20.121 103.732C20.0115 102.831 18.616 101.637 17.8953 101.506Z" fill="#EBECEF"/>
<path fill-rule="evenodd" clip-rule="evenodd" d="M31.8838 17.2596C31.8838 18.3135 31.0296 19.1671 29.9763 19.1671C28.9224 19.1671 28.0688 18.3135 28.0688 17.2596C28.0688 16.2058 28.9224 15.3522 29.9763 15.3522C31.0296 15.3522 31.8838 16.2058 31.8838 17.2596Z" fill="#D1D9E0"/>
<path fill-rule="evenodd" clip-rule="evenodd" d="M215 13.4446C215 14.8498 213.862 15.9882 212.457 15.9882C211.052 15.9882 209.914 14.8498 209.914 13.4446C209.914 12.04 211.052 10.9016 212.457 10.9016C213.862 10.9016 215 12.04 215 13.4446Z" fill="#EBECEF"/>
<path fill-rule="evenodd" clip-rule="evenodd" d="M68.7617 3.90747C68.7617 4.96134 67.9075 5.81493 66.8542 5.81493C65.8004 5.81493 64.9468 4.96134 64.9468 3.90747C64.9468 2.85359 65.8004 2 66.8542 2C67.9075 2 68.7617 2.85359 68.7617 3.90747Z" stroke="#D2D8DF" stroke-width="2.921" stroke-linecap="round"/>
<path fill-rule="evenodd" clip-rule="evenodd" d="M39.1461 124.547C37.8336 125.046 36.3652 124.387 35.8659 123.074C35.3659 121.762 36.0257 120.293 37.3382 119.794C38.6507 119.294 40.1191 119.954 40.6184 121.266C41.1178 122.579 40.4586 124.047 39.1461 124.547Z" stroke="#D2D8DF" stroke-width="2.921" stroke-linecap="round"/>
<rect x="119" y="46" width="61" height="61" rx="30.5" fill="#FDEEEE" stroke="#EF5858" stroke-width="2"/>
<rect x="130.793" y="57.793" width="37.4146" height="37.4146" rx="18.7073" fill="#EF5858" stroke="#EF5858"/>
<path d="M151.421 84.5673H147.195V81.3404H151.421V84.5673ZM151.421 78.1136H147.195V68.4331H151.421V78.1136Z" fill="white"/>
</svg>
