<svg width="270" height="221" viewBox="0 0 270 221" fill="none" xmlns="http://www.w3.org/2000/svg">
<path fill-rule="evenodd" clip-rule="evenodd" d="M146.135 11C121.452 11 98.7654 19.5562 80.8518 33.8715H51.9C48.1386 33.8715 45.061 36.9592 45.061 40.733C45.061 44.5068 48.1386 47.5944 51.9 47.5944H66.6344H70.9521C74.7136 47.5944 77.7911 50.6821 77.7911 54.4559C77.7911 56.3405 77.0206 58.0605 75.7804 59.3001C74.5449 60.5443 72.8306 61.3174 70.9521 61.3174H61.7404H56.6541H31.839C28.0775 61.3174 25 64.405 25 68.1788C25 71.9526 28.0775 75.0403 31.839 75.0403H49.604C44.2413 87.6846 41.2709 101.597 41.2709 116.209C41.2709 121.511 41.663 126.721 42.4153 131.812C42.7299 133.939 43.1083 136.048 43.5505 138.134C56.4534 136.153 70.1405 134.561 84.4295 133.399L85.5055 134.383L86.5177 133.235C103.684 131.894 121.702 131.181 140.286 131.181C179.77 131.181 216.718 134.401 248.31 140C249.527 134.703 250.348 129.255 250.736 123.683C250.913 121.213 251 118.72 251 116.209C251 58.1016 204.053 11 146.135 11Z" fill="#F1F2F7"/>
<path fill-rule="evenodd" clip-rule="evenodd" d="M11.0723 61H6.9277C3.11746 61 0 64.15 0 68C0 71.85 3.11746 75 6.9277 75H11.0723C14.8825 75 18 71.85 18 68C18 64.15 14.8825 61 11.0723 61Z" fill="#F1F2F7"/>
<mask id="mask0_5336_3700" style="mask-type:alpha" maskUnits="userSpaceOnUse" x="43" y="131" width="227" height="90">
<path fill-rule="evenodd" clip-rule="evenodd" d="M269.93 131.332V221H156.669H43.4087V131.332H269.93Z" fill="white"/>
</mask>
<g mask="url(#mask0_5336_3700)">
<path fill-rule="evenodd" clip-rule="evenodd" d="M269.93 166C269.93 169.75 266.853 172.818 263.093 172.818H219.42C217.542 172.818 215.828 173.586 214.593 174.823C213.353 176.055 212.582 177.764 212.582 179.636C212.582 183.386 215.659 186.455 219.42 186.455H227.534C229.411 186.455 231.126 187.223 232.361 188.459C233.601 189.691 234.371 191.4 234.371 193.273C234.371 197.023 231.294 200.091 227.534 200.091H208.877C191.35 213.218 169.571 221 145.969 221C95.5594 221 53.4596 185.523 43.4087 138.241C56.3085 136.273 69.9923 134.691 84.2778 133.536L85.3531 134.514L86.3655 133.373C103.527 132.041 121.541 131.332 140.121 131.332C179.595 131.332 216.534 134.532 248.118 140.095C246.583 146.723 244.413 153.105 241.678 159.182H263.093C264.975 159.182 266.68 159.95 267.92 161.186C269.16 162.418 269.93 164.127 269.93 166Z" fill="#E8EBF2"/>
</g>
<path fill-rule="evenodd" clip-rule="evenodd" d="M250 123.372C249.613 129.05 248.793 134.602 247.578 140C216.028 134.294 179.128 131.013 139.697 131.013C121.138 131.013 103.143 131.74 86 133.106L97.8886 119.331L116.383 131.4L141.418 124.487L184.486 131.013L203.183 124.487L207.919 131.013L219.217 122.627L229.774 132.304L246.426 119L250 123.372Z" fill="#E0E2EE"/>
<path fill-rule="evenodd" clip-rule="evenodd" d="M86 133L85.0301 134L84 133.143C84.6633 133.092 85.3319 133.044 86 133Z" fill="#F1F2F7"/>
<path fill-rule="evenodd" clip-rule="evenodd" d="M84 133.258C69.7159 134.422 56.0334 136.016 43.1349 138C42.6928 135.911 42.3145 133.799 42 131.668L64.1094 115L84 133.258Z" fill="#E0E2EE"/>
<path fill-rule="evenodd" clip-rule="evenodd" d="M184 167.5C184 169.433 166.539 171 145 171C123.461 171 106 169.433 106 167.5C106 165.568 123.461 164 145 164C166.539 164 184 165.568 184 167.5Z" fill="#D8DBEA"/>
<path fill-rule="evenodd" clip-rule="evenodd" d="M248 200C244.15 200 241 196.85 241 193C241 189.15 244.15 186 248 186C251.85 186 255 189.15 255 193C255 196.85 251.85 200 248 200Z" fill="#E1E3EF"/>
<path d="M139.61 1.25014C128.167 3.69082 120.801 14.989 123.252 26.4787C125.693 37.9213 136.991 45.2872 148.481 42.8362C159.97 40.3852 167.279 29.0509 164.839 17.6074C162.398 6.16383 151.053 -1.19093 139.61 1.25014ZM141.882 11.9025C143.163 11.6294 144.496 11.7427 145.712 12.2283C146.928 12.7138 147.973 13.5496 148.714 14.6297C149.454 15.7099 149.857 16.9856 149.872 18.2951C149.886 19.6047 149.512 20.889 148.795 21.9853C148.079 23.0816 147.053 23.9404 145.848 24.4528C144.642 24.9652 143.312 25.1081 142.026 24.8634C140.739 24.6187 139.554 23.9974 138.621 23.0784C137.688 22.1593 137.049 20.9838 136.785 19.7011C136.031 16.1658 138.346 12.6569 141.882 11.9025ZM147.568 38.5567C143.769 39.3729 139.805 38.8431 136.354 37.0581C138.636 33.1669 141.878 30.5787 145.692 29.765C149.507 28.9514 153.558 29.935 157.194 32.6126C154.772 35.6505 151.369 37.7518 147.568 38.5567Z" fill="#FF797C"/>
<path d="M197.904 100.078C195.839 99.4083 193.622 99.3664 191.533 99.9571C189.445 100.548 187.578 101.745 186.17 103.396C184.761 105.048 183.874 107.08 183.621 109.235C183.367 111.391 183.758 113.573 184.745 115.507C185.732 117.44 187.27 119.037 189.165 120.096C191.059 121.155 193.225 121.629 195.389 121.457C197.553 121.285 199.617 120.476 201.32 119.131C203.024 117.786 204.29 115.966 204.959 113.901C205.854 111.132 205.613 108.122 204.29 105.53C202.967 102.939 200.67 100.978 197.904 100.078ZM196.17 105.426C196.813 105.634 197.38 106.029 197.798 106.56C198.217 107.091 198.468 107.734 198.521 108.408C198.573 109.082 198.424 109.757 198.092 110.346C197.761 110.935 197.262 111.412 196.658 111.718C196.055 112.023 195.375 112.142 194.704 112.06C194.033 111.978 193.401 111.698 192.889 111.257C192.377 110.815 192.008 110.231 191.828 109.58C191.649 108.928 191.666 108.238 191.88 107.596C192.165 106.743 192.776 106.036 193.579 105.63C194.383 105.223 195.313 105.15 196.17 105.426ZM191.832 118.808C189.924 118.193 188.288 116.933 187.207 115.244C189.231 114.094 191.348 113.773 193.264 114.394C195.179 115.015 196.736 116.501 197.67 118.636C195.803 119.368 193.739 119.43 191.832 118.808Z" fill="#FF797C"/>
<path fill-rule="evenodd" clip-rule="evenodd" d="M100.994 143.951C89.3229 137.211 84.4659 123.238 88.7998 110.987C89.3699 109.417 90.0711 107.88 90.93 106.392C91.3703 105.627 91.8392 104.891 92.3496 104.179C93.3687 102.755 94.5103 101.442 95.7437 100.286C97.8119 98.2774 100.145 96.6633 102.677 95.4447C110.606 91.5781 120.261 91.5959 128.465 96.3349C136.692 101.084 141.519 109.442 142.151 118.24C142.346 121.044 142.116 123.874 141.426 126.666C141.025 128.319 140.454 129.945 139.731 131.542C139.371 132.337 138.967 133.112 138.524 133.876C137.665 135.366 136.691 136.757 135.611 138.019C127.173 147.899 112.643 150.678 100.994 143.951Z" fill="white" fill-opacity="0.1"/>
<path fill-rule="evenodd" clip-rule="evenodd" d="M102.116 140.889C89.971 133.878 85.814 118.357 92.8246 106.211C99.8279 94.0813 115.351 89.922 127.495 96.9349C139.625 103.938 143.784 119.459 136.78 131.589C129.769 143.733 114.246 147.892 102.116 140.889ZM143.021 135.197C152.02 119.61 146.683 99.6885 131.095 90.6891C115.51 81.6911 95.5736 87.0215 86.5737 102.607C78.3868 116.793 82.077 134.599 94.5655 144.473C95.7865 145.437 97.1043 146.327 98.5058 147.138C99.9086 147.947 101.339 148.643 102.784 149.216C117.58 155.094 134.832 149.381 143.021 135.197Z" fill="#E0E2EE"/>
<path fill-rule="evenodd" clip-rule="evenodd" d="M65.1258 207.923L64.4714 207.545C60.1403 205.046 58.6421 199.455 61.1429 195.123L84.2224 155.148L100.627 164.619L77.5478 204.594C75.0469 208.926 69.4574 210.424 65.1258 207.923Z" fill="#EF5858"/>
<path fill-rule="evenodd" clip-rule="evenodd" d="M103.929 149.638L97.1093 161.45L88.7249 156.608L95.5455 144.797C96.7914 145.781 98.1356 146.688 99.5662 147.517C100.996 148.342 102.455 149.052 103.929 149.638Z" fill="#E0E2EE"/>
<path fill-rule="evenodd" clip-rule="evenodd" d="M77.809 204.018L61.5103 194.607L63.2063 191.672L79.5045 201.081L77.809 204.018Z" fill="#EF5858"/>
<path fill-rule="evenodd" clip-rule="evenodd" d="M100.374 165.453L83.6268 155.784L85.0631 153.296L101.81 162.965L100.374 165.453Z" fill="#EF5858"/>
<path fill-rule="evenodd" clip-rule="evenodd" d="M138.38 124.377L97.3112 100.664C99.1706 98.8589 101.268 97.4078 103.545 96.3142L139.032 116.802C139.205 119.324 139 121.867 138.38 124.377Z" fill="white" fill-opacity="0.5"/>
<path fill-rule="evenodd" clip-rule="evenodd" d="M133.526 137.059L91.1085 110.893C91.598 109.418 92.2073 107.975 92.9592 106.58C93.3462 105.863 93.7554 105.172 94.205 104.508L137.142 130.993C136.829 131.742 136.475 132.468 136.088 133.184C135.336 134.579 134.48 135.881 133.526 137.059Z" fill="white" fill-opacity="0.5"/>
</svg>
