<svg width="810" height="804" viewBox="0 0 810 804" fill="none" xmlns="http://www.w3.org/2000/svg">
<g id="No Upcoming Trips">
<g id="Group 3">
<mask id="mask0_1455_2471" style="mask-type:alpha" maskUnits="userSpaceOnUse" x="75" y="174" width="678" height="387">
<path id="Clip 2" fill-rule="evenodd" clip-rule="evenodd" d="M242.556 242.616H155.7C144.414 242.616 135.183 251.877 135.183 263.199C135.183 274.521 144.414 283.782 155.7 283.782H199.902H212.856C224.142 283.782 233.373 293.046 233.373 304.368C233.373 310.026 231.06 315.183 227.34 318.9C223.635 322.635 218.493 324.954 212.856 324.954H185.22H169.962H95.517C84.231 324.954 75 334.218 75 345.537C75 356.856 84.231 366.12 95.517 366.12H148.812C132.723 404.055 123.813 445.794 123.813 489.63C123.813 505.533 124.989 521.163 127.245 536.436C128.187 542.817 129.324 549.144 130.653 555.402C169.362 549.462 210.423 544.683 253.29 541.197L256.515 544.149L259.551 540.705C311.052 536.685 365.106 534.543 420.858 534.543C539.31 534.543 650.154 544.203 744.927 561C748.581 545.112 751.044 528.765 752.208 512.052C752.739 504.642 753 497.163 753 489.63C753 315.306 612.159 174 438.408 174C364.356 174 296.295 199.671 242.556 242.616Z" fill="white"/>
</mask>
<g mask="url(#mask0_1455_2471)">
<path id="Fill 1" fill-rule="evenodd" clip-rule="evenodd" d="M60 576H768V159H60V576Z" fill="#F1F2F7"/>
</g>
</g>
<g id="Group 6">
<mask id="mask1_1455_2471" style="mask-type:alpha" maskUnits="userSpaceOnUse" x="0" y="324" width="54" height="42">
<path id="Clip 5" fill-rule="evenodd" clip-rule="evenodd" d="M20.781 324C9.351 324 0 333.453 0 345C0 356.547 9.351 366 20.781 366H33.216C44.649 366 54 356.547 54 345C54 333.453 44.649 324 33.216 324H20.781Z" fill="white"/>
</mask>
<g mask="url(#mask1_1455_2471)">
<path id="Fill 4" fill-rule="evenodd" clip-rule="evenodd" d="M-15 381H69V309H-15V381Z" fill="#F1F2F7"/>
</g>
</g>
<g id="Group 9">
<mask id="mask2_1455_2471" style="mask-type:alpha" maskUnits="userSpaceOnUse" x="130" y="534" width="680" height="270">
<path id="Clip 8" fill-rule="evenodd" clip-rule="evenodd" d="M259.096 541.119L256.057 544.542L252.832 541.608C209.977 545.073 168.928 549.816 130.225 555.723C160.378 697.569 286.678 804 437.905 804C508.714 804 574.051 780.654 626.632 741.273H682.603C693.883 741.273 703.114 732.066 703.114 720.819C703.114 715.203 700.801 710.073 697.084 706.38C693.376 702.669 688.234 700.365 682.603 700.365H658.261C646.978 700.365 637.747 691.161 637.747 679.911C637.747 674.292 640.06 669.165 643.777 665.469C647.485 661.758 652.627 659.457 658.261 659.457H789.28C800.563 659.457 809.791 650.253 809.791 639C809.791 633.381 807.478 628.254 803.761 624.561C800.041 620.85 794.923 618.546 789.28 618.546H725.035C733.24 600.315 739.75 581.169 744.355 561.288C649.603 544.599 538.786 534.996 420.361 534.996C364.624 534.996 310.579 537.123 259.096 541.119Z" fill="white"/>
</mask>
<g mask="url(#mask2_1455_2471)">
<path id="Fill 7" fill-rule="evenodd" clip-rule="evenodd" d="M115.225 819H824.788V519.996H115.225V819Z" fill="#E8EBF2"/>
</g>
</g>
<g id="Group 12">
<mask id="mask3_1455_2471" style="mask-type:alpha" maskUnits="userSpaceOnUse" x="258" y="498" width="492" height="63">
<path id="Clip 11" fill-rule="evenodd" clip-rule="evenodd" d="M689.325 537.912L657.651 508.881L623.757 534.039L609.549 514.464L553.461 534.039L424.254 514.464L349.149 535.2C372.114 534.432 395.448 534.039 419.091 534.039C537.384 534.039 648.084 543.882 742.734 561C746.376 544.806 748.839 528.15 750 511.119L739.278 498L689.325 537.912ZM258 540.318C287.592 537.96 318.027 536.238 349.149 535.2L293.667 498.996L258 540.318Z" fill="white"/>
</mask>
<g mask="url(#mask3_1455_2471)">
<path id="Fill 10" fill-rule="evenodd" clip-rule="evenodd" d="M243 576H765V483H243V576Z" fill="#E0E2EE"/>
</g>
</g>
<g id="Group 15">
<mask id="mask4_1455_2471" style="mask-type:alpha" maskUnits="userSpaceOnUse" x="252" y="540" width="6" height="4">
<path id="Clip 14" fill-rule="evenodd" clip-rule="evenodd" d="M252 540.432L255.09 543.003L258 540C255.996 540.132 253.989 540.276 252 540.432Z" fill="white"/>
</mask>
<g mask="url(#mask4_1455_2471)">
<path id="Fill 13" fill-rule="evenodd" clip-rule="evenodd" d="M237 558H273V525H237V558Z" fill="#F1F2F7"/>
</g>
</g>
<g id="Group 18">
<mask id="mask5_1455_2471" style="mask-type:alpha" maskUnits="userSpaceOnUse" x="126" y="486" width="126" height="69">
<path id="Clip 17" fill-rule="evenodd" clip-rule="evenodd" d="M126 536.004C126.942 542.397 128.079 548.733 129.402 555C168.099 549.051 209.148 544.266 252 540.774L192.327 486L126 536.004Z" fill="white"/>
</mask>
<g mask="url(#mask5_1455_2471)">
<path id="Fill 16" fill-rule="evenodd" clip-rule="evenodd" d="M111 570H267V471H111V570Z" fill="#E0E2EE"/>
</g>
</g>
<g id="Group 21">
<mask id="mask6_1455_2471" style="mask-type:alpha" maskUnits="userSpaceOnUse" x="326" y="653" width="235" height="22">
<path id="Clip 20" fill-rule="evenodd" clip-rule="evenodd" d="M326.15 663.654C326.15 669.45 378.533 674.154 443.153 674.154C507.77 674.154 560.153 669.45 560.153 663.654C560.153 657.858 507.77 653.154 443.153 653.154C378.533 653.154 326.15 657.858 326.15 663.654Z" fill="white"/>
</mask>
<g mask="url(#mask6_1455_2471)">
<path id="Fill 19" fill-rule="evenodd" clip-rule="evenodd" d="M311.153 689.154H575.153V638.154H311.153V689.154Z" fill="#D8DBEA"/>
</g>
</g>
<g id="Group 24">
<mask id="mask7_1455_2471" style="mask-type:alpha" maskUnits="userSpaceOnUse" x="723" y="699" width="42" height="42">
<path id="Clip 23" fill-rule="evenodd" clip-rule="evenodd" d="M723 720C723 731.55 732.45 741 744 741C755.55 741 765 731.55 765 720C765 708.453 755.55 699 744 699C732.45 699 723 708.453 723 720Z" fill="white"/>
</mask>
<g mask="url(#mask7_1455_2471)">
<path id="Fill 22" fill-rule="evenodd" clip-rule="evenodd" d="M708 756H780V684H708V756Z" fill="#E1E3EF"/>
</g>
</g>
<g id="Bee">
<path id="Stroke 3" d="M490.437 126C386.516 134.797 348.321 222.759 379.611 274.033C401.69 310.21 439.103 359.102 508.843 347.374C578.58 335.643 584.456 271.103 547.729 262.324C511.001 253.548 380.157 294.492 394.945 389.08C405.619 457.328 498.142 477 498.142 477" stroke="#D7DAE9" stroke-width="2" stroke-dasharray="7"/>
<path id="Fill 5" fill-rule="evenodd" clip-rule="evenodd" d="M550.502 72C550.502 72 565.393 33.1008 566.963 17.9685C567.789 10.0615 554.685 -11.9535 539.35 8.41034C524.014 28.7742 531.011 53.7429 550.502 72Z" fill="#D8DBEA"/>
<path id="Fill 7_2" fill-rule="evenodd" clip-rule="evenodd" d="M497.662 29.636C480.217 23.7366 472.32 28.3363 468.955 37.5172C465.588 46.7012 470.288 64.1823 496.599 68.1672C522.914 72.1521 549 71.9992 549 71.9992C549 71.9992 515.107 35.5354 497.662 29.636Z" fill="#D8DBEA"/>
<path id="Fill 9" fill-rule="evenodd" clip-rule="evenodd" d="M547.548 79.7076C547.944 78.0816 548.468 76.5231 549.051 75C545.831 75.5087 542.554 76.2232 539.256 77.1906C535.678 78.2374 532.339 79.6106 529.198 81.1837C527.835 83.7595 526.731 86.5117 526.014 89.4669C521.593 107.659 532.029 125.996 549.563 132C551.462 131.624 553.37 131.188 555.281 130.63C560.621 129.065 565.547 126.995 570 124.596C552.876 117.083 543.021 98.3352 547.548 79.7076Z" fill="#D8DBEA"/>
<path id="Fill 11" fill-rule="evenodd" clip-rule="evenodd" d="M522.514 89.195C522.933 87.3978 523.502 85.6792 524.132 84C508.962 93.7183 500.467 108.801 501.868 117.597C492.174 121.763 486 125.273 486 125.273C486 125.273 493.314 124.716 503.971 122.668C509.68 131.009 525.503 136.595 543 134.592C527.15 126.395 518.204 107.742 522.514 89.195Z" fill="#D8DBEA"/>
<path id="Fill 13_2" fill-rule="evenodd" clip-rule="evenodd" d="M572.751 95.7902C568.733 94.8259 566.241 90.7892 567.209 86.7464C568.173 82.7314 572.235 80.2433 576.25 81.2076C580.287 82.1781 582.754 86.2302 581.792 90.2483C580.822 94.2881 576.791 96.7577 572.751 95.7902ZM590.356 90.3895C587.122 79.1878 572.253 73.4031 554.712 75.384C553.979 77.1197 553.355 78.9508 552.909 80.8472C549.003 97.474 558.026 114.199 573.327 120C586.096 111.877 593.265 100.376 590.356 90.3895Z" fill="#D8DBEA"/>
</g>
<g id="search">
<path id="Fill 21" fill-rule="evenodd" clip-rule="evenodd" d="M256.083 557.689C281.669 583.27 321.278 586.156 350.034 566.405C353.709 563.836 357.207 560.95 360.469 557.689C362.149 556.015 363.731 554.288 365.223 552.469C368.206 548.838 370.818 544.965 372.959 540.964C376.73 534.205 379.295 527.033 380.695 519.62C385.212 496.372 378.458 471.349 360.469 453.369C342.438 435.335 317.41 428.625 294.158 433.098C286.749 434.541 279.571 437.105 272.811 440.833C268.804 443.022 264.984 445.634 261.346 448.616C259.533 450.102 257.806 451.69 256.132 453.369C252.864 456.63 249.935 460.122 247.414 463.802C227.655 492.548 230.546 532.156 256.083 557.689Z" fill="white" fill-opacity="0.1"/>
<path id="Fill 23" fill-rule="evenodd" clip-rule="evenodd" d="M263.243 552.65C289.861 579.273 332.998 579.268 359.621 552.65C386.209 526.061 386.209 482.919 359.586 456.301C332.998 429.713 289.861 429.713 263.272 456.301C236.654 482.919 236.654 526.061 263.243 552.65ZM249.582 442.625C283.749 408.458 339.115 408.458 373.282 442.625C407.444 476.787 407.473 532.188 373.311 566.355C342.216 597.441 293.477 600.244 259.196 574.721C255.848 572.224 252.623 569.426 249.547 566.355C246.476 563.279 243.678 560.054 241.186 556.706C215.663 522.42 218.491 473.716 249.582 442.625Z" fill="#E0E2EE"/>
<path id="Fill 25" fill-rule="evenodd" clip-rule="evenodd" d="M115.121 695.146L116.555 696.581C126.045 706.075 141.585 706.075 151.079 696.581L238.702 608.958L202.743 572.999L115.121 660.622C105.626 670.117 105.626 685.651 115.121 695.146Z" fill="#EF5858"/>
<path id="Fill 27" fill-rule="evenodd" clip-rule="evenodd" d="M239.298 554.027L213.405 579.92L231.787 598.298L257.675 572.405C254.258 569.857 250.973 567.002 247.829 563.868C244.695 560.734 241.84 557.444 239.298 554.027Z" fill="#E0E2EE"/>
<path id="Fill 29" fill-rule="evenodd" clip-rule="evenodd" d="M116.432 659.545L152.162 695.27L158.594 688.832L122.869 653.108L116.432 659.545Z" fill="#EF5858"/>
<path id="Fill 31" fill-rule="evenodd" clip-rule="evenodd" d="M200.756 574.236L237.464 610.945L242.918 605.492L206.21 568.783L200.756 574.236Z" fill="#FDEEEE"/>
<path id="Fill 33" fill-rule="evenodd" clip-rule="evenodd" d="M280.864 447.142L370.888 537.161C374.278 531.085 376.584 524.638 377.837 517.973L300.054 440.188C293.394 441.491 286.941 443.791 280.864 447.142Z" fill="white" fill-opacity="0.5"/>
<path id="Fill 35" fill-rule="evenodd" clip-rule="evenodd" d="M251.351 468.541L348.676 560.352C352.161 558.058 355.479 555.475 358.573 552.557C360.165 551.054 361.671 549.514 363.081 547.886L264.57 454.947C262.845 456.281 261.207 457.702 259.619 459.204C256.525 462.123 253.742 465.248 251.351 468.541Z" fill="white" fill-opacity="0.5"/>
</g>
</g>
</svg>
