<svg width="810" height="795" viewBox="0 0 810 795" fill="none" xmlns="http://www.w3.org/2000/svg">
<g id="No Upcoming Trips">
<g id="Group 3">
<mask id="mask0_1455_2841" style="mask-type:alpha" maskUnits="userSpaceOnUse" x="75" y="165" width="678" height="387">
<path id="Clip 2" fill-rule="evenodd" clip-rule="evenodd" d="M242.556 233.616H155.7C144.414 233.616 135.183 242.877 135.183 254.199C135.183 265.521 144.414 274.782 155.7 274.782H199.902H212.856C224.142 274.782 233.373 284.046 233.373 295.368C233.373 301.026 231.06 306.183 227.34 309.9C223.635 313.635 218.493 315.954 212.856 315.954H185.22H169.962H95.517C84.231 315.954 75 325.218 75 336.537C75 347.856 84.231 357.12 95.517 357.12H148.812C132.723 395.055 123.813 436.794 123.813 480.63C123.813 496.533 124.989 512.163 127.245 527.436C128.187 533.817 129.324 540.144 130.653 546.402C169.362 540.462 210.423 535.683 253.29 532.197L256.515 535.149L259.551 531.705C311.052 527.685 365.106 525.543 420.858 525.543C539.31 525.543 650.154 535.203 744.927 552C748.581 536.112 751.044 519.765 752.208 503.052C752.739 495.642 753 488.163 753 480.63C753 306.306 612.159 165 438.408 165C364.356 165 296.295 190.671 242.556 233.616Z" fill="white"/>
</mask>
<g mask="url(#mask0_1455_2841)">
<path id="Fill 1" fill-rule="evenodd" clip-rule="evenodd" d="M60 567H768V150H60V567Z" fill="#F1F2F7"/>
</g>
</g>
<g id="Group 6">
<mask id="mask1_1455_2841" style="mask-type:alpha" maskUnits="userSpaceOnUse" x="0" y="315" width="54" height="42">
<path id="Clip 5" fill-rule="evenodd" clip-rule="evenodd" d="M20.781 315C9.351 315 0 324.453 0 336C0 347.547 9.351 357 20.781 357H33.216C44.649 357 54 347.547 54 336C54 324.453 44.649 315 33.216 315H20.781Z" fill="white"/>
</mask>
<g mask="url(#mask1_1455_2841)">
<path id="Fill 4" fill-rule="evenodd" clip-rule="evenodd" d="M-15 372H69V300H-15V372Z" fill="#F1F2F7"/>
</g>
</g>
<g id="Group 9">
<mask id="mask2_1455_2841" style="mask-type:alpha" maskUnits="userSpaceOnUse" x="130" y="525" width="680" height="270">
<path id="Clip 8" fill-rule="evenodd" clip-rule="evenodd" d="M259.096 532.119L256.057 535.542L252.832 532.608C209.977 536.073 168.928 540.816 130.225 546.723C160.378 688.569 286.678 795 437.905 795C508.714 795 574.051 771.654 626.632 732.273H682.603C693.883 732.273 703.114 723.066 703.114 711.819C703.114 706.203 700.801 701.073 697.084 697.38C693.376 693.669 688.234 691.365 682.603 691.365H658.261C646.978 691.365 637.747 682.161 637.747 670.911C637.747 665.292 640.06 660.165 643.777 656.469C647.485 652.758 652.627 650.457 658.261 650.457H789.28C800.563 650.457 809.791 641.253 809.791 630C809.791 624.381 807.478 619.254 803.761 615.561C800.041 611.85 794.923 609.546 789.28 609.546H725.035C733.24 591.315 739.75 572.169 744.355 552.288C649.603 535.599 538.786 525.996 420.361 525.996C364.624 525.996 310.579 528.123 259.096 532.119Z" fill="white"/>
</mask>
<g mask="url(#mask2_1455_2841)">
<path id="Fill 7" fill-rule="evenodd" clip-rule="evenodd" d="M115.225 810H824.788V510.996H115.225V810Z" fill="#E8EBF2"/>
</g>
</g>
<g id="Group 12">
<mask id="mask3_1455_2841" style="mask-type:alpha" maskUnits="userSpaceOnUse" x="258" y="489" width="492" height="63">
<path id="Clip 11" fill-rule="evenodd" clip-rule="evenodd" d="M689.325 528.912L657.651 499.881L623.757 525.039L609.549 505.464L553.461 525.039L424.254 505.464L349.149 526.2C372.114 525.432 395.448 525.039 419.091 525.039C537.384 525.039 648.084 534.882 742.734 552C746.376 535.806 748.839 519.15 750 502.119L739.278 489L689.325 528.912ZM258 531.318C287.592 528.96 318.027 527.238 349.149 526.2L293.667 489.996L258 531.318Z" fill="white"/>
</mask>
<g mask="url(#mask3_1455_2841)">
<path id="Fill 10" fill-rule="evenodd" clip-rule="evenodd" d="M243 567H765V474H243V567Z" fill="#E0E2EE"/>
</g>
</g>
<g id="Group 15">
<mask id="mask4_1455_2841" style="mask-type:alpha" maskUnits="userSpaceOnUse" x="252" y="531" width="6" height="4">
<path id="Clip 14" fill-rule="evenodd" clip-rule="evenodd" d="M252 531.432L255.09 534.003L258 531C255.996 531.132 253.989 531.276 252 531.432Z" fill="white"/>
</mask>
<g mask="url(#mask4_1455_2841)">
<path id="Fill 13" fill-rule="evenodd" clip-rule="evenodd" d="M237 549H273V516H237V549Z" fill="#F1F2F7"/>
</g>
</g>
<g id="Group 18">
<mask id="mask5_1455_2841" style="mask-type:alpha" maskUnits="userSpaceOnUse" x="126" y="477" width="126" height="69">
<path id="Clip 17" fill-rule="evenodd" clip-rule="evenodd" d="M126 527.004C126.942 533.397 128.079 539.733 129.402 546C168.099 540.051 209.148 535.266 252 531.774L192.327 477L126 527.004Z" fill="white"/>
</mask>
<g mask="url(#mask5_1455_2841)">
<path id="Fill 16" fill-rule="evenodd" clip-rule="evenodd" d="M111 561H267V462H111V561Z" fill="#E0E2EE"/>
</g>
</g>
<g id="Group 21">
<mask id="mask6_1455_2841" style="mask-type:alpha" maskUnits="userSpaceOnUse" x="326" y="644" width="235" height="22">
<path id="Clip 20" fill-rule="evenodd" clip-rule="evenodd" d="M326.15 654.654C326.15 660.45 378.533 665.154 443.153 665.154C507.77 665.154 560.153 660.45 560.153 654.654C560.153 648.858 507.77 644.154 443.153 644.154C378.533 644.154 326.15 648.858 326.15 654.654Z" fill="white"/>
</mask>
<g mask="url(#mask6_1455_2841)">
<path id="Fill 19" fill-rule="evenodd" clip-rule="evenodd" d="M311.153 680.154H575.153V629.154H311.153V680.154Z" fill="#D8DBEA"/>
</g>
</g>
<g id="Group 24">
<mask id="mask7_1455_2841" style="mask-type:alpha" maskUnits="userSpaceOnUse" x="723" y="690" width="42" height="42">
<path id="Clip 23" fill-rule="evenodd" clip-rule="evenodd" d="M723 711C723 722.55 732.45 732 744 732C755.55 732 765 722.55 765 711C765 699.453 755.55 690 744 690C732.45 690 723 699.453 723 711Z" fill="white"/>
</mask>
<g mask="url(#mask7_1455_2841)">
<path id="Fill 22" fill-rule="evenodd" clip-rule="evenodd" d="M708 747H780V675H708V747Z" fill="#E1E3EF"/>
</g>
</g>
<g id="Group">
<path id="Vector" d="M330.941 554.817L330.544 557.292C330.212 559.353 329.076 561.198 327.384 562.421C325.693 563.645 323.584 564.146 321.523 563.815L321.342 563.786C319.606 563.507 317.826 563.817 316.287 564.668C314.748 565.518 313.537 566.859 312.849 568.478L257.028 699.762C255.418 703.556 252.583 706.702 248.976 708.697C245.369 710.691 241.197 711.42 237.127 710.767L81.4511 685.754C77.2904 685.096 73.4821 683.028 70.6631 679.898C67.8441 676.767 66.1854 672.764 65.9645 668.557L58.2339 527.79C58.1354 525.996 57.4258 524.289 56.2231 522.954C55.0205 521.619 53.3971 520.735 51.6228 520.45C50.6021 520.286 49.6238 519.923 48.7436 519.381C47.8635 518.838 47.0987 518.128 46.4929 517.291C45.8872 516.453 45.4524 515.504 45.2134 514.499C44.9743 513.493 44.9357 512.45 45.0997 511.429L45.4972 508.955C45.6611 507.935 46.0245 506.956 46.5666 506.076C47.1087 505.196 47.8188 504.431 48.6564 503.825C49.4941 503.22 50.4428 502.785 51.4485 502.546C52.4542 502.307 53.4971 502.268 54.5177 502.432L120.463 513.027C121.476 513.19 122.514 513.057 123.453 512.643C124.392 512.229 125.191 511.553 125.754 510.696L171.813 440.613C172.422 439.681 173.288 438.945 174.307 438.494C175.325 438.043 176.452 437.897 177.552 438.072C178.351 438.196 179.113 438.491 179.787 438.937C180.423 439.353 180.971 439.891 181.399 440.518C181.827 441.146 182.127 441.853 182.282 442.597C182.437 443.341 182.444 444.108 182.303 444.855C182.161 445.602 181.874 446.313 181.457 446.949L140.86 508.707C140.372 509.449 140.078 510.302 140.004 511.187C139.93 512.072 140.079 512.962 140.437 513.775C140.795 514.588 141.351 515.298 142.054 515.841C142.757 516.384 143.585 516.742 144.462 516.883L232.23 530.984C233.108 531.125 234.006 531.044 234.844 530.748C235.682 530.453 236.433 529.952 237.028 529.292C237.622 528.632 238.042 527.833 238.249 526.969C238.456 526.105 238.443 525.203 238.212 524.345L218.972 452.977C218.583 451.494 218.796 449.918 219.563 448.591C220.329 447.265 221.589 446.294 223.068 445.891C223.847 445.678 224.663 445.637 225.461 445.77C226.56 445.947 227.584 446.44 228.41 447.187C229.236 447.934 229.828 448.904 230.115 449.98L251.902 530.964C252.168 531.955 252.715 532.847 253.477 533.534C254.239 534.221 255.183 534.673 256.196 534.836L324.417 545.797C325.438 545.961 326.416 546.324 327.297 546.866C328.177 547.408 328.942 548.118 329.548 548.956C330.153 549.793 330.588 550.742 330.827 551.748C331.066 552.754 331.105 553.797 330.941 554.817Z" fill="#EF5858"/>
<path id="Vector_2" d="M124.304 535.533L107.113 532.771C106.973 532.749 106.842 532.844 106.82 532.983L86.3307 660.502C86.3083 660.641 86.4031 660.772 86.5424 660.794L103.734 663.557C103.873 663.579 104.004 663.484 104.027 663.345L124.516 535.826C124.538 535.687 124.443 535.556 124.304 535.533Z" fill="#E0E2EE"/>
<path id="Vector_3" d="M266.615 557.993L249.424 555.231C249.284 555.208 249.153 555.303 249.131 555.442L228.642 682.961C228.62 683.1 228.714 683.231 228.854 683.254L246.045 686.016C246.184 686.038 246.315 685.943 246.338 685.804L266.827 558.286C266.849 558.146 266.754 558.015 266.615 557.993Z" fill="#E0E2EE"/>
<path id="Vector_4" d="M159.705 541.26L142.519 538.491C142.38 538.469 142.249 538.563 142.226 538.703L121.691 666.178C121.668 666.317 121.763 666.448 121.902 666.471L139.088 669.239C139.227 669.261 139.358 669.167 139.381 669.028L159.916 541.552C159.939 541.413 159.844 541.282 159.705 541.26Z" fill="#E0E2EE"/>
<path id="Vector_5" d="M195.491 546.564L178.3 543.802C178.16 543.78 178.029 543.875 178.007 544.014L157.518 671.532C157.495 671.672 157.59 671.803 157.729 671.825L174.921 674.587C175.06 674.61 175.191 674.515 175.214 674.376L195.703 546.857C195.725 546.718 195.63 546.587 195.491 546.564Z" fill="#E0E2EE"/>
<path id="Vector_6" d="M231.054 552.278L213.863 549.516C213.724 549.494 213.593 549.589 213.57 549.728L193.081 677.246C193.059 677.386 193.154 677.517 193.293 677.539L210.484 680.301C210.624 680.324 210.755 680.229 210.777 680.09L231.266 552.571C231.289 552.432 231.194 552.301 231.054 552.278Z" fill="#E0E2EE"/>
</g>
<g id="Bee">
<path id="Stroke 3" d="M481.437 126C377.516 134.797 339.321 222.759 370.611 274.033C392.69 310.21 430.103 359.102 499.843 347.374C569.58 335.643 575.456 271.103 538.729 262.324C502.001 253.548 371.157 294.492 385.945 389.08C396.619 457.328 489.142 477 489.142 477" stroke="#D7DAE9" stroke-width="2" stroke-dasharray="7"/>
<path id="Fill 5" fill-rule="evenodd" clip-rule="evenodd" d="M541.502 72C541.502 72 556.393 33.1008 557.963 17.9685C558.789 10.0615 545.685 -11.9535 530.35 8.41034C515.014 28.7742 522.011 53.7429 541.502 72Z" fill="#D8DBEA"/>
<path id="Fill 7_2" fill-rule="evenodd" clip-rule="evenodd" d="M488.662 29.636C471.217 23.7366 463.32 28.3363 459.955 37.5172C456.588 46.7012 461.288 64.1823 487.599 68.1672C513.914 72.1521 540 71.9992 540 71.9992C540 71.9992 506.107 35.5354 488.662 29.636Z" fill="#D8DBEA"/>
<path id="Fill 9" fill-rule="evenodd" clip-rule="evenodd" d="M538.548 79.7076C538.944 78.0816 539.468 76.5231 540.051 75C536.831 75.5087 533.554 76.2232 530.256 77.1906C526.678 78.2374 523.339 79.6106 520.198 81.1837C518.835 83.7595 517.731 86.5117 517.014 89.4669C512.593 107.659 523.029 125.996 540.563 132C542.462 131.624 544.37 131.188 546.281 130.63C551.621 129.065 556.547 126.995 561 124.596C543.876 117.083 534.021 98.3352 538.548 79.7076Z" fill="#D8DBEA"/>
<path id="Fill 11" fill-rule="evenodd" clip-rule="evenodd" d="M513.514 89.195C513.933 87.3978 514.502 85.6792 515.132 84C499.962 93.7183 491.467 108.801 492.868 117.597C483.174 121.763 477 125.273 477 125.273C477 125.273 484.314 124.716 494.971 122.668C500.68 131.009 516.503 136.595 534 134.592C518.15 126.395 509.204 107.742 513.514 89.195Z" fill="#D8DBEA"/>
<path id="Fill 13_2" fill-rule="evenodd" clip-rule="evenodd" d="M563.751 95.7902C559.733 94.8259 557.241 90.7892 558.209 86.7464C559.173 82.7314 563.235 80.2433 567.25 81.2076C571.287 82.1781 573.754 86.2302 572.792 90.2483C571.822 94.2881 567.791 96.7577 563.751 95.7902ZM581.356 90.3895C578.122 79.1878 563.253 73.4031 545.712 75.384C544.979 77.1197 544.355 78.9508 543.909 80.8472C540.003 97.474 549.026 114.199 564.327 120C577.096 111.877 584.265 100.376 581.356 90.3895Z" fill="#D8DBEA"/>
</g>
</g>
</svg>
