<svg width="24" height="24" viewBox="0 0 24 24" fill="none" xmlns="http://www.w3.org/2000/svg">
<path d="M9.40936 20.7352V14.758C9.42224 14.5462 9.51835 14.3482 9.67671 14.207C9.83507 14.0659 10.0428 13.9931 10.2546 14.0046H13.7473C13.9591 13.9931 14.1669 14.0659 14.3252 14.207C14.4836 14.3482 14.5797 14.5462 14.5926 14.758V20.7352" stroke="#8E97FD" stroke-linecap="round" stroke-linejoin="round"/>
<path d="M4.71527 11.7598V19.4102C4.75823 19.7991 4.95196 20.1557 5.25486 20.4034C5.55777 20.6511 5.94572 20.7702 6.33542 20.735H17.6665C18.0562 20.7702 18.4442 20.6511 18.7471 20.4034C19.05 20.1557 19.2437 19.7991 19.2867 19.4102V11.7598" stroke="#8E97FD" stroke-linecap="round" stroke-linejoin="round"/>
<path d="M3.49915 7.89209V10.057C3.53565 10.5855 3.77947 11.0782 4.17751 11.4277C4.57556 11.7773 5.09558 11.9555 5.62436 11.9234C6.15314 11.9555 6.67317 11.7773 7.07121 11.4277C7.46925 11.0782 7.71307 10.5855 7.74958 10.057V7.89209" stroke="#8E97FD" stroke-linecap="round" stroke-linejoin="round"/>
<path d="M7.74957 7.89209V10.057C7.78608 10.5855 8.0299 11.0782 8.42794 11.4277C8.82598 11.7773 9.34601 11.9555 9.87479 11.9234C10.4036 11.9555 10.9236 11.7773 11.3216 11.4278C11.7197 11.0782 11.9635 10.5855 12 10.057V7.89209" stroke="#8E97FD" stroke-linecap="round" stroke-linejoin="round"/>
<path d="M12 7.89209V10.057C12.0365 10.5855 12.2803 11.0782 12.6784 11.4277C13.0764 11.7773 13.5964 11.9555 14.1252 11.9234V11.9234C14.654 11.9555 15.174 11.7773 15.5721 11.4277C15.9701 11.0782 16.2139 10.5855 16.2504 10.057V7.89209" stroke="#8E97FD" stroke-linecap="round" stroke-linejoin="round"/>
<path d="M16.2504 7.89209V10.057C16.2869 10.5855 16.5308 11.0782 16.9288 11.4277C17.3268 11.7773 17.8469 11.9555 18.3756 11.9234C18.9044 11.9555 19.4244 11.7773 19.8225 11.4277C20.2205 11.0782 20.4644 10.5855 20.5009 10.057V7.89209" stroke="#8E97FD" stroke-linecap="round" stroke-linejoin="round"/>
<path d="M20.5009 7.89217H3.49915L5.92159 3.94155C6.04836 3.7348 6.22605 3.56403 6.43767 3.44556C6.64928 3.32709 6.88775 3.26489 7.13027 3.26489H16.8698C17.1123 3.26489 17.3508 3.3271 17.5624 3.44557C17.774 3.56404 17.9517 3.73481 18.0784 3.94155L20.5009 7.89217Z" stroke="#8E97FD" stroke-linecap="round" stroke-linejoin="round"/>
</svg>
