<svg width="40" height="40" viewBox="0 0 40 40" fill="none" xmlns="http://www.w3.org/2000/svg">
<rect x="0.6" y="0.6" width="38.8" height="38.8" rx="19.4" stroke="#AAAAAA" stroke-width="1.2" stroke-dasharray="4 4"/>
<path fill-rule="evenodd" clip-rule="evenodd" d="M19.1497 11.8691L19.1876 11.8691H20.8124L20.8503 11.8691C21.2892 11.8691 21.677 11.8691 21.9896 11.9111C22.3285 11.9567 22.6673 12.0613 22.9438 12.3378C23.2203 12.6143 23.3249 12.9531 23.3704 13.2919C23.4125 13.6045 23.4124 13.9924 23.4124 14.4312L23.4124 14.4691C23.4124 14.5864 23.5075 14.6815 23.6248 14.6815H24.4372L24.4801 14.6815C25.3864 14.6815 26.127 14.6815 26.7116 14.7601C27.3228 14.8423 27.8527 15.0201 28.2756 15.443C28.6986 15.866 28.8764 16.3959 28.9586 17.007C29.0372 17.5917 29.0372 18.3323 29.0372 19.2385V19.2386V19.2815V22.531V22.574V22.574C29.0372 23.4803 29.0372 24.2208 28.9586 24.8055C28.8764 25.4167 28.6986 25.9466 28.2756 26.3695C27.8527 26.7925 27.3228 26.9703 26.7116 27.0525C26.127 27.1311 25.3864 27.1311 24.4801 27.131H24.4372H15.5629H15.5199C14.6137 27.1311 13.8731 27.1311 13.2884 27.0525C12.6772 26.9703 12.1474 26.7925 11.7244 26.3695C11.3015 25.9466 11.1236 25.4167 11.0415 24.8055C10.9629 24.2208 10.9629 23.4803 10.9629 22.574V22.574V22.531V19.2815V19.2386V19.2386C10.9629 18.3323 10.9629 17.5917 11.0415 17.007C11.1236 16.3959 11.3015 15.866 11.7244 15.443C12.1474 15.0201 12.6772 14.8423 13.2884 14.7601C13.8731 14.6815 14.6137 14.6815 15.5199 14.6815H15.5199L15.5629 14.6815H16.3753C16.4926 14.6815 16.5876 14.5864 16.5876 14.4691L16.5876 14.4312V14.4312V14.4312C16.5876 13.9924 16.5876 13.6045 16.6296 13.2919C16.6752 12.9531 16.7798 12.6143 17.0563 12.3378C17.3328 12.0613 17.6716 11.9567 18.0104 11.9111C18.323 11.8691 18.7109 11.8691 19.1497 11.8691ZM22.2124 15.7322C22.2124 15.7422 22.2205 15.7503 22.2304 15.7503C22.2404 15.7503 22.2485 15.7583 22.2485 15.7683V15.8159C22.2485 15.8521 22.2778 15.8815 22.3141 15.8815H24.4372C25.3969 15.8815 26.0564 15.8828 26.5518 15.9494C27.0298 16.0137 27.2643 16.1287 27.4271 16.2916C27.5899 16.4544 27.705 16.6888 27.7693 17.1669C27.8359 17.6623 27.8372 18.3218 27.8372 19.2815V22.531C27.8372 23.4908 27.8359 24.1503 27.7693 24.6456C27.705 25.1237 27.5899 25.3581 27.4271 25.521C27.2643 25.6838 27.0298 25.7989 26.5518 25.8632C26.0564 25.9298 25.3969 25.931 24.4372 25.931H15.5629C14.6031 25.931 13.9437 25.9298 13.4483 25.8632C12.9702 25.7989 12.7358 25.6838 12.5729 25.521C12.4101 25.3581 12.295 25.1237 12.2308 24.6456C12.1642 24.1503 12.1629 23.4908 12.1629 22.531V19.2815C12.1629 18.3218 12.1642 17.6623 12.2308 17.1669C12.295 16.6888 12.4101 16.4544 12.5729 16.2916C12.7358 16.1287 12.9702 16.0137 13.4483 15.9494C13.9437 15.8828 14.6031 15.8815 15.5629 15.8815H17.686C17.7222 15.8815 17.7516 15.8521 17.7516 15.8159V15.7683C17.7516 15.7583 17.7597 15.7503 17.7696 15.7503C17.7796 15.7503 17.7876 15.7422 17.7876 15.7322V14.4691C17.7876 13.9808 17.7889 13.6749 17.8189 13.4518C17.8466 13.246 17.8884 13.2027 17.9048 13.1863C17.9212 13.1699 17.9645 13.1281 18.1703 13.1004C18.3934 13.0704 18.6993 13.0691 19.1876 13.0691H20.8124C21.3008 13.0691 21.6067 13.0704 21.8297 13.1004C22.0355 13.1281 22.0789 13.1699 22.0952 13.1863C22.1116 13.2027 22.1535 13.246 22.1811 13.4518C22.2111 13.6749 22.2124 13.9808 22.2124 14.4691V15.7322ZM17.7876 20.9063C17.7876 19.6844 18.7782 18.6939 20 18.6939C21.2219 18.6939 22.2124 19.6844 22.2124 20.9063C22.2124 22.1281 21.2219 23.1187 20 23.1187C18.7782 23.1187 17.7876 22.1281 17.7876 20.9063ZM20 17.4939C18.1154 17.4939 16.5876 19.0217 16.5876 20.9063C16.5876 22.7909 18.1154 24.3187 20 24.3187C21.8846 24.3187 23.4124 22.7909 23.4124 20.9063C23.4124 19.0217 21.8846 17.4939 20 17.4939Z" fill="#AAAAAA"/>
</svg>
