<svg width="40" height="40" viewBox="0 0 40 40" fill="none" xmlns="http://www.w3.org/2000/svg">
<g clip-path="url(#clip0_431_979)">
<path d="M37.5866 16.8782L21.8658 16.8774C21.1716 16.8774 20.6089 17.4401 20.6089 18.1343V23.1563C20.6089 23.8504 21.1716 24.4132 21.8657 24.4132H30.7187C29.7493 26.929 27.9399 29.0359 25.6315 30.3746L29.4064 36.9093C35.4618 33.4072 39.0418 27.2625 39.0418 20.3838C39.0418 19.4044 38.9696 18.7043 38.8252 17.9159C38.7155 17.3169 38.1955 16.8782 37.5866 16.8782Z" fill="#167EE6"/>
<path d="M19.7708 31.9589C15.4383 31.9589 11.6561 29.5917 9.6248 26.0889L3.09033 29.8553C6.41568 35.6186 12.6451 39.4996 19.7708 39.4996C23.2664 39.4996 26.5648 38.5585 29.4062 36.9182V36.9093L25.6313 30.3745C23.9046 31.376 21.9065 31.9589 19.7708 31.9589Z" fill="#12B347"/>
<path d="M29.4062 36.9182V36.9093L25.6313 30.3745C23.9046 31.3759 21.9066 31.9589 19.7708 31.9589V39.4996C23.2664 39.4996 26.5649 38.5584 29.4062 36.9182Z" fill="#0F993E"/>
<path d="M8.04077 20.229C8.04077 18.0935 8.62356 16.0956 9.62481 14.3689L3.09035 10.6025C1.44111 13.435 0.5 16.7244 0.5 20.229C0.5 23.7336 1.44111 27.023 3.09035 29.8555L9.62481 26.0891C8.62356 24.3624 8.04077 22.3645 8.04077 20.229Z" fill="#FFD500"/>
<path d="M19.7708 8.49878C22.596 8.49878 25.1911 9.50266 27.2181 11.1725C27.7182 11.5844 28.445 11.5547 28.903 11.0966L32.4613 7.53832C32.9811 7.01861 32.944 6.16791 32.3888 5.68629C28.9927 2.74003 24.574 0.958008 19.7708 0.958008C12.6451 0.958008 6.41568 4.83905 3.09033 10.6024L9.6248 14.3688C11.6561 10.8659 15.4383 8.49878 19.7708 8.49878Z" fill="#FF4B26"/>
<path d="M27.218 11.1725C27.7181 11.5844 28.445 11.5547 28.903 11.0966L32.4613 7.53832C32.9809 7.01861 32.9439 6.16791 32.3888 5.68629C28.9927 2.73996 24.5739 0.958008 19.7708 0.958008V8.49878C22.5959 8.49878 25.1911 9.50266 27.218 11.1725Z" fill="#D93F21"/>
</g>
<defs>
<clipPath id="clip0_431_979">
<rect width="38.5417" height="38.5417" fill="white" transform="translate(0.5 0.958008)"/>
</clipPath>
</defs>
</svg>
