<svg width="16" height="16" viewBox="0 0 16 16" fill="none" xmlns="http://www.w3.org/2000/svg">
<path fill-rule="evenodd" clip-rule="evenodd" d="M5.55147 1.07985C5.55147 0.759608 5.29848 0.5 4.9864 0.5C4.67433 0.5 4.42134 0.759608 4.42134 1.07985V1.69084C2.81036 2.48944 1.60629 3.99932 1.18725 5.83246C0.82658 7.4103 0.82658 9.05237 1.18725 10.6302C1.70811 12.9088 3.44189 14.6879 5.66239 15.2224C7.19998 15.5925 8.80018 15.5925 10.3378 15.2224C12.5583 14.6879 14.2921 12.9088 14.8129 10.6302C15.1736 9.05237 15.1736 7.4103 14.8129 5.83247C14.3939 3.99932 13.1898 2.48943 11.5788 1.69084V1.07985C11.5788 0.759608 11.3258 0.5 11.0138 0.5C10.7017 0.5 10.4487 0.759608 10.4487 1.07985V1.26808C10.4119 1.25845 10.3749 1.24917 10.3378 1.24024C8.80018 0.870133 7.19998 0.870134 5.66238 1.24024C5.62527 1.24917 5.5883 1.25845 5.55147 1.26808V1.07985ZM5.28775 8.23133C5.28775 7.97514 5.49014 7.76745 5.7398 7.76745H10.2603C10.51 7.76745 10.7124 7.97514 10.7124 8.23133C10.7124 8.48752 10.51 8.69521 10.2603 8.69521H5.7398C5.49014 8.69521 5.28775 8.48752 5.28775 8.23133ZM5.28775 10.5507C5.28775 10.2945 5.49014 10.0868 5.7398 10.0868H8.00006C8.24972 10.0868 8.45211 10.2945 8.45211 10.5507C8.45211 10.8069 8.24972 11.0146 8.00006 11.0146H5.7398C5.49014 11.0146 5.28775 10.8069 5.28775 10.5507Z" fill="white"/>
</svg>
