<svg width="16" height="21" viewBox="0 0 16 21" fill="none" xmlns="http://www.w3.org/2000/svg">
<path d="M8.44976 13.6323L8.57396 14.4984L8.57397 14.4984L8.44976 13.6323ZM7.55901 13.6323L7.68321 12.7661H7.68321L7.55901 13.6323ZM7.55235 1.03274L7.67837 1.89862L7.67837 1.89862L7.55235 1.03274ZM8.45643 1.03274L8.3304 1.89862L8.3304 1.89862L8.45643 1.03274ZM3.87983 9.91268L3.01418 10.0403L3.87983 9.91268ZM3.88002 4.75693L3.01437 4.62935L3.88002 4.75693ZM12.1263 4.77402L12.9922 4.64772L12.1263 4.77402ZM12.1265 9.8956L11.2607 9.7693L12.1265 9.8956ZM8.54953 13.618L8.42532 12.7518L8.42532 12.7518L8.54953 13.618ZM8.55318 1.04682L8.6792 0.180947L8.6792 0.180947L8.55318 1.04682ZM7.44019 1.04907L7.31417 0.183189L7.31417 0.183189L7.44019 1.04907ZM7.44385 13.6158L7.31965 14.4819H7.31965L7.44385 13.6158ZM15.875 10.4531C15.875 9.96983 15.4832 9.57808 15 9.57808C14.5168 9.57808 14.125 9.96983 14.125 10.4531H15.875ZM1.875 10.4531C1.875 9.96983 1.48325 9.57808 1 9.57808C0.516751 9.57808 0.125 9.96983 0.125 10.4531H1.875ZM7.125 20C7.125 20.4832 7.51675 20.875 8 20.875C8.48325 20.875 8.875 20.4832 8.875 20H7.125ZM7.56621 1.91494L7.67837 1.89862L7.42632 0.166865L7.31417 0.183189L7.56621 1.91494ZM8.3304 1.89862L8.42716 1.9127L8.6792 0.180947L8.58245 0.166865L8.3304 1.89862ZM8.42532 12.7518L8.32555 12.7662L8.57397 14.4984L8.67374 14.4841L8.42532 12.7518ZM7.68321 12.7661L7.56805 12.7496L7.31965 14.4819L7.43481 14.4984L7.68321 12.7661ZM8.32556 12.7661C8.11237 12.7967 7.89641 12.7967 7.68321 12.7661L7.43481 14.4984C7.81276 14.5526 8.19601 14.5526 8.57396 14.4984L8.32556 12.7661ZM7.67837 1.89862C7.89475 1.86713 8.11402 1.86713 8.3304 1.89862L8.58245 0.166865C8.19892 0.111045 7.80985 0.111045 7.42632 0.166866L7.67837 1.89862ZM4.74548 9.7851C4.50626 8.16199 4.50644 6.50775 4.74567 4.88451L3.01437 4.62935C2.75022 6.42165 2.75001 8.24783 3.01418 10.0403L4.74548 9.7851ZM11.2605 4.90033C11.4958 6.51329 11.496 8.15646 11.2607 9.7693L12.9924 10.0219C13.2521 8.24142 13.2519 6.42807 12.9922 4.64772L11.2605 4.90033ZM11.2607 9.7693C11.0286 11.3607 9.84937 12.5476 8.42532 12.7518L8.67373 14.4841C10.9255 14.1612 12.6573 12.3189 12.9924 10.0219L11.2607 9.7693ZM12.9922 4.64772C12.6574 2.35264 10.929 0.508396 8.6792 0.180947L8.42716 1.9127C9.85032 2.11983 11.0284 3.30897 11.2605 4.90033L12.9922 4.64772ZM4.74567 4.88451C4.97887 3.3022 6.15106 2.12091 7.56621 1.91494L7.31417 0.183189C5.07344 0.509314 3.35115 2.34426 3.01437 4.62935L4.74567 4.88451ZM3.01418 10.0403C3.35124 12.3273 5.07697 14.1603 7.31965 14.4819L7.56805 12.7496C6.152 12.5466 4.97868 11.3674 4.74548 9.7851L3.01418 10.0403ZM14.125 10.4531C14.125 14.1201 11.3348 17.0035 8 17.0035V18.7535C12.3972 18.7535 15.875 14.9879 15.875 10.4531H14.125ZM8 17.0035C4.66517 17.0035 1.875 14.1201 1.875 10.4531H0.125C0.125 14.9879 3.60284 18.7535 8 18.7535V17.0035ZM7.125 17.8785V20H8.875V17.8785H7.125Z" fill="white"/>
</svg>
