<svg width="32" height="32" viewBox="0 0 32 32" fill="none" xmlns="http://www.w3.org/2000/svg">
<path d="M15.1104 28.9849C16.3959 28.9849 17.4379 27.9428 17.4379 26.6574C17.4379 25.3719 16.3959 24.3298 15.1104 24.3298C13.825 24.3298 12.7829 25.3719 12.7829 26.6574C12.7829 27.9428 13.825 28.9849 15.1104 28.9849Z" stroke="#8E97FD" stroke-miterlimit="10" stroke-linecap="round"/>
<path d="M14.2379 24.4996L8.29542 9.80342C7.65074 8.2091 6.43822 6.91016 4.89198 6.15742L3.08765 5.27905" stroke="#8E97FD" stroke-miterlimit="10" stroke-linecap="round"/>
<path d="M17.2682 25.7848L28.9123 21.0764" stroke="#8E97FD" stroke-miterlimit="10" stroke-linecap="round"/>
<path d="M23.3728 8.82789L13.1053 12.9796C12.8597 13.0789 12.7411 13.3585 12.8404 13.6041L16.6162 22.9419C16.7155 23.1875 16.9951 23.3061 17.2406 23.2068L27.5082 19.055C27.7538 18.9557 27.8723 18.6761 27.773 18.4305L23.9973 9.09276C23.898 8.84717 23.6184 8.72859 23.3728 8.82789Z" stroke="#8E97FD" stroke-miterlimit="10" stroke-linecap="round"/>
<path d="M15.2042 14.2171L19.2961 12.5625" stroke="#8E97FD" stroke-miterlimit="10" stroke-linecap="round"/>
<path d="M15.8735 15.8722L18.2642 14.9055" stroke="#8E97FD" stroke-miterlimit="10" stroke-linecap="round"/>
</svg>
