<svg width="28" height="29" viewBox="0 0 28 29" fill="none" xmlns="http://www.w3.org/2000/svg">
<circle cx="14.2057" cy="14.3661" r="13.7936" fill="#9A9BA6"/>
<path fill-rule="evenodd" clip-rule="evenodd" d="M10.1794 10.3393C10.4694 10.0493 10.9395 10.0493 11.2295 10.3393L14.2075 13.3174L17.1827 10.3422C17.4727 10.0522 17.9428 10.0522 18.2328 10.3422C18.5228 10.6321 18.5228 11.1023 18.2328 11.3922L15.2576 14.3674L18.2299 17.3398C18.5199 17.6297 18.5199 18.0999 18.2299 18.3898C17.94 18.6798 17.4698 18.6798 17.1799 18.3898L14.2075 15.4175L11.2323 18.3927C10.9424 18.6827 10.4722 18.6827 10.1823 18.3927C9.8923 18.1028 9.8923 17.6326 10.1823 17.3426L13.1575 14.3674L10.1794 11.3894C9.88942 11.0994 9.88942 10.6293 10.1794 10.3393Z" fill="white"/>
</svg>
