<svg width="1035" height="846" viewBox="0 0 1035 846" fill="none" xmlns="http://www.w3.org/2000/svg">
<g id="No Internet">
<g id="circle">
<path id="Stroke 1" d="M34.0474 388.531V397.291" stroke="#D2D8DF" stroke-width="2.921" stroke-linecap="round"/>
<g id="Group 8">
<path id="Stroke 2" d="M14.3716 393.278L21.53 400.647" stroke="#D2D8DF" stroke-width="2.921" stroke-linecap="round"/>
<path id="Stroke 4" d="M6 412.894H16.1218" stroke="#D2D8DF" stroke-width="2.921" stroke-linecap="round"/>
<path id="Stroke 6" d="M13.5527 432.859L20.7111 425.49" stroke="#D2D8DF" stroke-width="2.921" stroke-linecap="round"/>
</g>
<path id="Stroke 9" d="M34.0474 435.252V426.492" stroke="#D2D8DF" stroke-width="2.921" stroke-linecap="round"/>
<path id="Stroke 10" d="M48.6473 429.412L42.8071 423.572" stroke="#D2D8DF" stroke-width="2.921" stroke-linecap="round"/>
<path id="Stroke 11" d="M60.3271 414.811H51.5669" stroke="#D2D8DF" stroke-width="2.921" stroke-linecap="round"/>
<path id="Stroke 12" d="M54.4876 394.371L48.6475 400.211" stroke="#D2D8DF" stroke-width="2.921" stroke-linecap="round"/>
<path id="Stroke 13" d="M504.18 6V11.8402" stroke="#D2D8DF" stroke-width="2.921" stroke-linecap="round"/>
<path id="Stroke 15" d="M486.659 23.5206H492.499" stroke="#D2D8DF" stroke-width="2.921" stroke-linecap="round"/>
<path id="Stroke 16" d="M504.18 41.0418V35.2017" stroke="#D2D8DF" stroke-width="2.921" stroke-linecap="round"/>
<path id="Stroke 17" d="M518.78 23.5206H512.94" stroke="#D2D8DF" stroke-width="2.921" stroke-linecap="round"/>
<path id="Stroke 18" d="M165.45 251.287V260.047" stroke="#D2D8DF" stroke-width="2.921" stroke-linecap="round"/>
<path id="Stroke 19" d="M139.17 277.567H147.931" stroke="#D2D8DF" stroke-width="2.921" stroke-linecap="round"/>
<path id="Stroke 20" d="M165.45 300.928V292.168" stroke="#D2D8DF" stroke-width="2.921" stroke-linecap="round"/>
<path id="Stroke 21" d="M188.812 277.567H180.051" stroke="#D2D8DF" stroke-width="2.921" stroke-linecap="round"/>
<g id="Group 42">
<path id="Stroke 22" d="M794.009 569.689C800.988 569.689 806.647 575.35 806.647 582.33C806.647 589.313 800.988 594.971 794.009 594.971C787.031 594.971 781.371 589.313 781.371 582.33" stroke="#D2D8DF" stroke-width="2.921" stroke-linecap="round"/>
<path id="Stroke 24" d="M851.698 735.873C853.259 746.774 845.693 756.876 834.798 758.438C823.9 759.998 813.801 752.43 812.239 741.532C810.677 730.634 818.243 720.532 829.138 718.969" stroke="#D2D8DF" stroke-width="2.921" stroke-linecap="round"/>
<path id="Fill 26" fill-rule="evenodd" clip-rule="evenodd" d="M851.851 455.001C859.355 452.66 870.857 443.483 873.52 433.609C875.934 442.338 886.056 452.66 895.189 453.442C884.908 457.082 875.079 467.896 873.52 476.391C872.459 467.732 858.864 456.263 851.851 455.001Z" fill="#EBECEE"/>
<path id="Fill 28" fill-rule="evenodd" clip-rule="evenodd" d="M81.5654 565.794C85.3187 564.624 91.0675 560.037 92.3988 555.1C93.6061 559.461 98.6658 564.624 103.232 565.016C98.0931 566.833 93.1797 572.242 92.3988 576.489C91.8683 572.16 85.0708 566.424 81.5654 565.794Z" fill="#EBECEE"/>
<path id="Fill 30" fill-rule="evenodd" clip-rule="evenodd" d="M151.215 159.589C151.215 165.005 146.828 169.391 141.416 169.391C136.002 169.391 131.616 165.005 131.616 159.589C131.616 154.176 136.002 149.787 141.416 149.787C146.828 149.787 151.215 154.176 151.215 159.589Z" fill="#D1D8DF"/>
<path id="Fill 32" fill-rule="evenodd" clip-rule="evenodd" d="M729.92 775.027C729.92 784.075 722.585 791.41 713.542 791.41C704.493 791.41 697.16 784.075 697.16 775.027C697.16 765.979 704.493 758.644 713.542 758.644C722.585 758.644 729.92 765.979 729.92 775.027Z" fill="#EBECEE"/>
<path id="Fill 34" fill-rule="evenodd" clip-rule="evenodd" d="M1032.47 141.52C1032.47 148.699 1026.65 154.516 1019.47 154.516C1012.3 154.516 1006.48 148.699 1006.48 141.52C1006.48 134.341 1012.3 128.524 1019.47 128.524C1026.65 128.524 1032.47 134.341 1032.47 141.52Z" fill="#EBECEE"/>
<path id="Stroke 36" fill-rule="evenodd" clip-rule="evenodd" d="M334.361 748.483C334.361 753.009 330.695 756.676 326.171 756.676C321.649 756.676 317.982 753.009 317.982 748.483C317.982 743.958 321.649 740.29 326.171 740.29C330.695 740.29 334.361 743.958 334.361 748.483Z" stroke="#D2D8DF" stroke-width="2.921" stroke-linecap="round"/>
<path id="Stroke 38" fill-rule="evenodd" clip-rule="evenodd" d="M329.487 96.6158C329.487 102.031 325.099 106.418 319.687 106.418C314.276 106.418 309.888 102.031 309.888 96.6158C309.888 91.2026 314.276 86.8136 319.687 86.8136C325.099 86.8136 329.487 91.2026 329.487 96.6158Z" stroke="#D2D8DF" stroke-width="2.921" stroke-linecap="round"/>
<path id="Stroke 40" fill-rule="evenodd" clip-rule="evenodd" d="M579.457 839.204C573.195 841.587 566.187 838.441 563.805 832.179C561.422 825.916 564.566 818.903 570.83 816.523C577.09 814.14 584.098 817.284 586.48 823.548C588.865 829.811 585.719 836.821 579.457 839.204Z" stroke="#D2D8DF" stroke-width="2.921" stroke-linecap="round"/>
</g>
</g>
<path id="Fill 1" fill-rule="evenodd" clip-rule="evenodd" d="M407.81 636.605H463.817L434.479 729.951L565.167 597.934H486.485L530.494 404.569L407.81 636.605Z" fill="#EF5858"/>
<g id="Group 6">
<path id="Fill 2" fill-rule="evenodd" clip-rule="evenodd" d="M742.842 345.895C729.033 336.083 712.911 329.32 695.44 326.622C685.883 243.128 615.004 178.285 528.952 178.285C475.327 178.285 427.596 203.479 396.912 242.676C386.145 239.069 374.652 237.101 362.668 237.101C307.648 237.101 262.276 278.344 255.726 331.598C210.193 345.713 177.132 388.163 177.132 438.324C177.132 499.85 226.861 549.745 288.328 550.034C291.494 550.461 294.712 550.709 297.994 550.709H663.346C670.091 551.973 677.012 552.662 684.122 552.662C745.835 552.662 795.844 502.644 795.844 440.94C795.844 400.777 774.647 365.582 742.842 345.895Z" fill="#F1F2F7"/>
<path id="Fill 4" fill-rule="evenodd" clip-rule="evenodd" d="M432.258 282.612C419.329 277.366 404.941 274.42 389.775 274.42C333.609 274.42 288.094 314.511 288.094 363.956C288.094 368.958 288.57 373.854 289.47 378.624C333.138 316.935 363.23 292.437 432.258 282.612Z" fill="#E0E2EE"/>
</g>
</g>
</svg>
