<svg width="76" height="76" viewBox="0 0 76 76" fill="none" xmlns="http://www.w3.org/2000/svg">
<path d="M0 38C0 17.0132 17.0132 0 38 0C58.9868 0 76 17.0132 76 38C76 58.9868 58.9868 76 38 76C17.0132 76 0 58.9868 0 38Z" fill="#D3DCFF" fill-opacity="0.2"/>
<path fill-rule="evenodd" clip-rule="evenodd" d="M2 38C2 57.8823 18.1178 74 38 74C57.8823 74 74 57.8823 74 38C74 18.1178 57.8823 2 38 2C18.1178 2 2 18.1178 2 38ZM38 0C17.0132 0 0 17.0132 0 38C0 58.9868 17.0132 76 38 76C58.9868 76 76 58.9868 76 38C76 17.0132 58.9868 0 38 0Z" fill="#8E97FD"/>
<path d="M14.8293 38.0003C14.8293 25.2035 25.2032 14.8296 38.0001 14.8296C50.7969 14.8296 61.1708 25.2035 61.1708 38.0003C61.1708 50.7972 50.7969 61.1711 38.0001 61.1711C25.2032 61.1711 14.8293 50.7972 14.8293 38.0003Z" fill="#8E97FD"/>
<path fill-rule="evenodd" clip-rule="evenodd" d="M15.8293 38.0003C15.8293 50.2449 25.7555 60.1711 38.0001 60.1711C50.2446 60.1711 60.1708 50.2449 60.1708 38.0003C60.1708 25.7558 50.2446 15.8296 38.0001 15.8296C25.7555 15.8296 15.8293 25.7558 15.8293 38.0003ZM38.0001 14.8296C25.2032 14.8296 14.8293 25.2035 14.8293 38.0003C14.8293 50.7972 25.2032 61.1711 38.0001 61.1711C50.7969 61.1711 61.1708 50.7972 61.1708 38.0003C61.1708 25.2035 50.7969 14.8296 38.0001 14.8296Z" fill="#8E97FD"/>
<path d="M46.36 31.7921L45.2487 30.8978C44.7009 30.4575 44.3826 30.4626 43.9136 31.0419L35.8367 41.0095L32.078 37.8865C31.5594 37.4509 31.235 37.4741 30.8087 38.007L29.9509 39.1238C29.5158 39.6716 29.5714 39.9825 30.0858 40.4121L35.4428 44.8433C35.9943 45.3067 36.3048 45.259 36.7311 44.7404L46.4995 33.1268C46.9582 32.5753 46.9304 32.2458 46.36 31.7921Z" fill="white"/>
</svg>
