<svg width="28" height="28" viewBox="0 0 28 28" fill="none" xmlns="http://www.w3.org/2000/svg">
<path d="M10.5106 20.8875L10.5944 20.1421L9.69708 20.0413L9.7626 20.9419L10.5106 20.8875ZM17.4894 20.8875L18.2374 20.9419L18.3029 20.0413L17.4056 20.1421L17.4894 20.8875ZM17.3835 21.5569L18.1118 21.736H18.1118L17.3835 21.5569ZM17.2879 21.9458L16.5596 21.7667L17.2879 21.9458ZM14.8212 24.4033L14.9957 25.1327H14.9957L14.8212 24.4033ZM13.1788 24.4033L13.0043 25.1327L13.1788 24.4033ZM10.7121 21.9458L11.4404 21.7667L10.7121 21.9458ZM10.6165 21.5569L9.88819 21.736L10.6165 21.5569ZM7.03243 10.0715L7.75633 10.2677V10.2676L7.03243 10.0715ZM11.8514 5.01942L12.0827 5.73287H12.0827L11.8514 5.01942ZM6.34375 12.6132L5.61985 12.4171L5.61521 12.4342L5.61139 12.4515L6.34375 12.6132ZM5.79856 15.0822L6.53092 15.244L5.79856 15.0822ZM7.33552 20.3668L7.48524 19.6319H7.48524L7.33552 20.3668ZM7.76438 20.4542L7.61467 21.1891H7.61467L7.76438 20.4542ZM20.2356 20.4542L20.3853 21.1891H20.3853L20.2356 20.4542ZM20.6645 20.3668L20.5148 19.6319H20.5148L20.6645 20.3668ZM22.2014 15.0822L21.4691 15.244V15.244L22.2014 15.0822ZM21.6562 12.6132L22.3886 12.4515L22.3854 12.4371L22.3817 12.4229L21.6562 12.6132ZM20.9759 10.0199L20.2504 10.2102L20.9759 10.0199ZM16.2949 5.02659L16.5301 4.31443V4.31443L16.2949 5.02659ZM22.7183 17.3944L21.9773 17.5104L22.7183 17.3944ZM5.28173 17.3944L6.0227 17.5104L5.28173 17.3944ZM10.4268 21.6328C12.8015 21.8997 15.1985 21.8997 17.5732 21.6328L17.4056 20.1421C15.1423 20.3966 12.8577 20.3966 10.5944 20.1421L10.4268 21.6328ZM18.1118 21.736C18.176 21.4751 18.2179 21.2094 18.2374 20.9419L16.7414 20.833C16.728 21.0166 16.6992 21.1989 16.6552 21.3778L18.1118 21.736ZM18.0162 22.1249L18.1118 21.736L16.6552 21.3778L16.5596 21.7667L18.0162 22.1249ZM14.9957 25.1327C16.4854 24.7763 17.6499 23.6146 18.0162 22.1249L16.5596 21.7667C16.3266 22.714 15.5874 23.4488 14.6467 23.6739L14.9957 25.1327ZM13.0043 25.1327C13.6589 25.2893 14.3411 25.2893 14.9957 25.1327L14.6467 23.6739C14.2215 23.7756 13.7785 23.7756 13.3533 23.6739L13.0043 25.1327ZM9.98382 22.1249C10.3501 23.6146 11.5146 24.7763 13.0043 25.1327L13.3533 23.6739C12.4126 23.4488 11.6734 22.714 11.4404 21.7667L9.98382 22.1249ZM9.88819 21.736L9.98382 22.1249L11.4404 21.7667L11.3448 21.3778L9.88819 21.736ZM9.7626 20.9419C9.78206 21.2094 9.82404 21.4751 9.88819 21.736L11.3448 21.3778C11.3008 21.1989 11.272 21.0166 11.2586 20.833L9.7626 20.9419ZM7.75633 10.2676C8.33627 8.12725 9.97885 6.41485 12.0827 5.73287L11.6202 4.30597C9.03784 5.14304 7.02201 7.24211 6.30853 9.87537L7.75633 10.2676ZM7.06765 12.8094L7.75633 10.2677L6.30853 9.87537L5.61985 12.4171L7.06765 12.8094ZM6.53092 15.244L7.07611 12.7749L5.61139 12.4515L5.0662 14.9205L6.53092 15.244ZM6 17.8039C6 17.7036 6.00781 17.6056 6.0227 17.5104L4.54075 17.2784C4.51388 17.4501 4.5 17.6256 4.5 17.8039H6ZM7.48524 19.6319C6.62353 19.4564 6 18.6938 6 17.8039H4.5C4.5 19.402 5.62075 20.7829 7.18581 21.1018L7.48524 19.6319ZM7.9141 19.7193L7.48524 19.6319L7.18581 21.1018L7.61467 21.1891L7.9141 19.7193ZM20.0859 19.7193C16.0695 20.5375 11.9305 20.5375 7.9141 19.7193L7.61467 21.1891C11.8287 22.0476 16.1713 22.0476 20.3853 21.1891L20.0859 19.7193ZM20.5148 19.6319L20.0859 19.7193L20.3853 21.1891L20.8142 21.1018L20.5148 19.6319ZM22 17.8039C22 18.6938 21.3765 19.4564 20.5148 19.6319L20.8142 21.1018C22.3792 20.7829 23.5 19.402 23.5 17.8039H22ZM21.9773 17.5104C21.9922 17.6056 22 17.7036 22 17.8039H23.5C23.5 17.6256 23.4861 17.4501 23.4593 17.2784L21.9773 17.5104ZM20.9239 12.7749L21.4691 15.244L22.9338 14.9205L22.3886 12.4515L20.9239 12.7749ZM20.2504 10.2102L20.9308 12.8036L22.3817 12.4229L21.7013 9.82956L20.2504 10.2102ZM16.0597 5.73876C18.1188 6.41881 19.697 8.10103 20.2504 10.2102L21.7013 9.82956C21.0196 7.23123 19.0741 5.1546 16.5301 4.31443L16.0597 5.73876ZM12.0827 5.73287C13.3728 5.31469 14.7753 5.31457 16.0597 5.73876L16.5301 4.31443C14.9395 3.78912 13.2102 3.79055 11.6202 4.30597L12.0827 5.73287ZM23.4593 17.2784C23.3349 16.484 23.0856 15.6078 22.9338 14.9205L21.4691 15.244C21.6532 16.0776 21.8607 16.7658 21.9773 17.5104L23.4593 17.2784ZM5.0662 14.9205C4.91444 15.6078 4.66509 16.484 4.54075 17.2784L6.0227 17.5104C6.13925 16.7658 6.34684 16.0776 6.53092 15.244L5.0662 14.9205Z" fill="white"/>
</svg>
