<svg width="164" height="164" viewBox="0 0 164 164" fill="none" xmlns="http://www.w3.org/2000/svg">
<rect x="1" y="1" width="162" height="162" rx="81" fill="#D3DCFF" fill-opacity="0.2" stroke="#8E97FD" stroke-width="2"/>
<rect x="32.5" y="32.5" width="99" height="99" rx="49.5" fill="#8E97FD" stroke="#8E97FD"/>
<path d="M100.04 68.6039L97.6421 66.6739C96.4601 65.7239 95.7731 65.7349 94.7611 66.9849L77.3321 88.4939L69.2211 81.7549C68.1021 80.8149 67.4021 80.8649 66.4821 82.0149L64.6311 84.4249C63.6921 85.6069 63.8121 86.2779 64.9221 87.2049L76.4821 96.7669C77.6721 97.7669 78.3421 97.6639 79.2621 96.5449L100.341 71.4839C101.331 70.2939 101.271 69.5829 100.04 68.6039Z" fill="white"/>
<rect x="61.5" y="61.5" width="41" height="41" stroke="#8E97FD"/>
</svg>
