<svg version="1.1" id="Layer_1"
    xmlns="http://www.w3.org/2000/svg"
    xmlns:xlink="http://www.w3.org/1999/xlink" x="0px" y="0px" width="100%" viewBox="0 0 225 225" enable-background="new 0 0 225 225" xml:space="preserve">
    <path fill="#FFFFFF" opacity="1.000000" stroke="none" d="
M130.000000,226.000000 
	C86.666672,226.000000 43.833340,226.000000 1.000006,226.000000 
	C1.000004,151.000000 1.000004,76.000015 1.000002,1.000016 
	C75.999992,1.000010 150.999985,1.000010 225.999969,1.000005 
	C225.999985,75.999985 225.999985,150.999969 226.000000,225.999969 
	C194.166672,226.000000 162.333328,226.000000 130.000000,226.000000 
M19.157618,162.995209 
	C13.208625,164.577560 15.416255,169.480438 15.070398,173.259735 
	C14.647878,177.876740 17.009615,179.877228 21.573662,179.854065 
	C29.013546,179.816299 36.454395,179.968857 44.211132,180.633881 
	C52.692387,190.044601 62.980328,196.936722 74.510071,201.973541 
	C91.472031,209.383423 109.123047,211.769958 127.499344,209.066818 
	C152.651138,205.367004 172.987442,193.358170 189.036377,173.852371 
	C192.281357,169.908447 195.237671,165.727020 199.034363,161.905991 
	C199.785950,162.241425 200.515610,162.642517 201.292587,162.901886 
	C207.461197,164.961212 213.307449,162.952805 216.785324,157.608200 
	C220.440659,151.990906 219.958557,146.063934 215.098999,141.228561 
	C212.999435,139.139481 210.392380,137.560425 208.026459,134.935684 
	C210.131790,123.109970 210.863068,111.280914 209.077789,99.301826 
	C206.281586,80.539436 198.797516,63.930851 186.232559,49.823635 
	C170.181381,31.802311 150.268906,20.764641 126.060646,17.764612 
	C108.343124,15.568954 91.315697,17.539368 74.354408,24.913870 
	C67.439606,21.371510 67.444992,21.374472 63.692841,28.194733 
	C62.827374,29.767878 61.911160,31.313107 60.316875,32.988811 
	C56.261066,36.096474 51.784225,38.791378 48.243061,42.403564 
	C42.147621,48.621250 36.634995,55.410282 30.657782,61.341194 
	C27.800451,58.452412 24.943121,55.563629 22.432310,53.025181 
	C20.415735,55.314518 18.034943,58.017338 16.294186,59.993546 
	C18.524084,62.925926 20.832758,65.961899 22.353308,67.961464 
	C24.961861,66.121750 27.942678,64.019493 30.922548,62.642193 
	C28.559729,67.551102 25.932425,72.352394 23.883146,77.388878 
	C17.456032,93.184738 14.880795,109.638657 18.035709,126.457054 
	C19.910368,136.450607 23.346319,146.151291 25.333271,156.139709 
	C21.029415,156.415375 19.953217,159.264023 19.157618,162.995209 
z"/>
    <path fill="#B8E3EB" opacity="1.000000" stroke="none" d="
M26.080307,155.983643 
	C23.346319,146.151291 19.910368,136.450607 18.035709,126.457054 
	C14.880795,109.638657 17.456032,93.184738 23.883146,77.388878 
	C25.932425,72.352394 28.559729,67.551102 30.944466,62.324493 
	C30.966381,62.006798 30.877764,61.959522 30.877766,61.959526 
	C36.634995,55.410282 42.147621,48.621250 48.243061,42.403564 
	C51.784225,38.791378 56.261066,36.096474 60.896450,33.186710 
	C64.077866,35.197678 66.679710,37.010746 69.076942,39.080006 
	C68.540367,40.110683 68.208412,40.885166 67.536057,41.669662 
	C63.399300,39.946892 58.896870,36.910732 55.997051,41.876217 
	C48.394825,54.893841 41.429646,68.284874 34.283108,81.566109 
	C32.815197,84.294106 33.350071,86.674049 36.233658,88.292572 
	C37.671852,89.099815 39.047005,90.019371 40.322121,91.219910 
	C39.759930,92.636841 39.326286,93.721992 38.535297,94.805862 
	C28.506353,90.004852 28.099194,90.209663 23.156233,102.593971 
	C39.234772,111.335426 55.344749,120.093964 71.627640,128.946518 
	C73.925179,124.706421 75.948990,120.971489 78.043938,117.105270 
	C75.775871,115.564026 73.883438,114.278046 72.133835,112.711411 
	C72.912712,111.346130 73.548759,110.261513 74.513641,109.284462 
	C78.973747,112.223038 81.830826,111.009544 84.006134,106.739594 
	C85.874374,103.072411 88.026878,99.550034 90.370026,96.102982 
	C93.384903,97.611633 96.083435,98.980919 98.936546,100.673729 
	C100.153061,106.937843 104.041504,110.269325 109.166016,113.037933 
	C138.948608,129.128448 168.618851,145.426941 198.327087,161.655106 
	C195.237671,165.727020 192.281357,169.908447 189.036377,173.852371 
	C172.987442,193.358170 152.651138,205.367004 127.499344,209.066818 
	C109.123047,211.769958 91.472031,209.383423 74.510071,201.973541 
	C62.980328,196.936722 52.692387,190.044601 44.526394,180.250366 
	C59.093040,179.851761 73.344437,179.823853 87.595802,179.831223 
	C90.866516,179.832916 94.071877,179.799805 94.956596,175.675629 
	C96.336342,169.243866 94.948448,164.850464 90.852409,162.602753 
	C90.494125,157.650360 88.030151,156.082794 83.516632,156.104980 
	C64.371849,156.199051 45.225857,156.046249 26.080307,155.983643 
M116.458527,153.317215 
	C117.840271,151.394516 119.222008,149.471832 120.391899,147.843933 
	C118.987099,145.942245 117.663727,144.150772 116.350006,142.372391 
	C114.802544,144.105713 113.208061,145.891678 111.916817,147.337997 
	C113.179237,149.079315 114.574814,151.004303 116.458527,153.317215 
z"/>
    <path fill="#B8E3EC" opacity="1.000000" stroke="none" d="
M75.022911,25.022795 
	C91.315697,17.539368 108.343124,15.568954 126.060646,17.764612 
	C150.268906,20.764641 170.181381,31.802311 186.232559,49.823635 
	C198.797516,63.930851 206.281586,80.539436 209.077789,99.301826 
	C210.863068,111.280914 210.131790,123.109970 207.694183,135.271713 
	C179.711777,120.507027 151.983536,105.546265 124.475876,90.190353 
	C118.810715,87.027824 113.247437,85.699272 106.725952,86.250877 
	C103.654594,84.508041 100.844452,83.021614 98.079292,81.203857 
	C99.888725,77.512444 101.638069,74.144325 103.420868,70.794006 
	C106.816086,64.413582 106.741631,64.061462 101.042931,59.695404 
	C101.464149,58.539299 101.768059,57.700966 102.460518,56.845161 
	C110.997986,60.024864 111.441933,59.726334 115.961327,47.801018 
	C102.341660,40.223007 88.682289,32.622902 75.022911,25.022795 
M151.682053,52.375496 
	C150.043228,54.448700 148.404419,56.521900 147.059235,58.223621 
	C148.877991,60.377579 150.705658,62.542103 152.367538,64.510284 
	C154.004608,62.627384 155.681030,60.699203 157.011322,59.169144 
	C155.406387,56.803471 153.886932,54.563793 151.682053,52.375496 
z"/>
    <path fill="#2C2F3C" opacity="1.000000" stroke="none" d="
M106.987183,86.507294 
	C113.247437,85.699272 118.810715,87.027824 124.475876,90.190353 
	C151.983536,105.546265 179.711777,120.507027 207.688873,135.678711 
	C210.392380,137.560425 212.999435,139.139481 215.098999,141.228561 
	C219.958557,146.063934 220.440659,151.990906 216.785324,157.608200 
	C213.307449,162.952805 207.461197,164.961212 201.292587,162.901886 
	C200.515610,162.642517 199.785950,162.241425 198.680725,161.780548 
	C168.618851,145.426941 138.948608,129.128448 109.166016,113.037933 
	C104.041504,110.269325 100.153061,106.937843 99.031898,100.279755 
	C101.644180,95.210602 104.315681,90.858948 106.987183,86.507294 
z"/>
    <path fill="#F79623" opacity="1.000000" stroke="none" d="
M90.986847,162.950958 
	C94.948448,164.850464 96.336342,169.243866 94.956596,175.675629 
	C94.071877,179.799805 90.866516,179.832916 87.595802,179.831223 
	C73.344437,179.823853 59.093040,179.851761 44.368248,179.953979 
	C36.454395,179.968857 29.013546,179.816299 21.573662,179.854065 
	C17.009615,179.877228 14.647878,177.876740 15.070398,173.259735 
	C15.416255,169.480438 13.208625,164.577560 20.008595,162.987152 
	C44.235329,162.969727 67.611092,162.960342 90.986847,162.950958 
z"/>
    <path fill="#D47529" opacity="1.000000" stroke="none" d="
M74.688660,24.968332 
	C88.682289,32.622902 102.341660,40.223007 115.961327,47.801018 
	C111.441933,59.726334 110.997986,60.024864 102.302155,56.549309 
	C95.783134,52.831825 89.876541,49.271664 83.817932,45.992371 
	C79.070068,43.422539 74.134003,41.200417 69.281555,38.823811 
	C66.679710,37.010746 64.077866,35.197678 61.247162,33.127895 
	C61.911160,31.313107 62.827374,29.767878 63.692841,28.194733 
	C67.444992,21.374472 67.439606,21.371510 74.688660,24.968332 
z"/>
    <path fill="#D4782F" opacity="1.000000" stroke="none" d="
M90.852409,162.602753 
	C67.611092,162.960342 44.235329,162.969727 20.386436,162.958923 
	C19.953217,159.264023 21.029415,156.415375 25.706789,156.061676 
	C45.225857,156.046249 64.371849,156.199051 83.516632,156.104980 
	C88.030151,156.082794 90.494125,157.650360 90.852409,162.602753 
z"/>
    <path fill="#F2B745" opacity="1.000000" stroke="none" d="
M30.944939,61.962013 
	C27.942678,64.019493 24.961861,66.121750 22.353308,67.961464 
	C20.832758,65.961899 18.524084,62.925926 16.294186,59.993546 
	C18.034943,58.017338 20.415735,55.314518 22.432310,53.025181 
	C24.943121,55.563629 27.800451,58.452412 30.767773,61.650360 
	C30.877764,61.959522 30.966381,62.006798 30.944939,61.962013 
z"/>
    <path fill="#F79520" opacity="1.000000" stroke="none" d="
M100.925621,60.013180 
	C106.741631,64.061462 106.816086,64.413582 103.420868,70.794006 
	C101.638069,74.144325 99.888725,77.512444 97.800247,81.445473 
	C95.002037,86.666832 92.527855,91.315224 90.053680,95.963623 
	C88.026878,99.550034 85.874374,103.072411 84.006134,106.739594 
	C81.830826,111.009544 78.973747,112.223038 74.192764,109.109879 
	C62.512260,102.847855 51.481468,96.867989 40.450672,90.888130 
	C39.047005,90.019371 37.671852,89.099815 36.233658,88.292572 
	C33.350071,86.674049 32.815197,84.294106 34.283108,81.566109 
	C41.429646,68.284874 48.394825,54.893841 55.997051,41.876217 
	C58.896870,36.910732 63.399300,39.946892 67.711960,41.992355 
	C79.127380,48.207752 90.026497,54.110466 100.925621,60.013180 
z"/>
    <path fill="#D47529" opacity="1.000000" stroke="none" d="
M71.991013,112.992065 
	C73.883438,114.278046 75.775871,115.564026 78.043938,117.105270 
	C75.948990,120.971489 73.925179,124.706421 71.627640,128.946518 
	C55.344749,120.093964 39.234772,111.335426 23.156233,102.593971 
	C28.099194,90.209663 28.506353,90.004852 38.726830,95.106812 
	C50.180805,101.270050 61.085911,107.131058 71.991013,112.992065 
z"/>
    <path fill="#F9A858" opacity="1.000000" stroke="none" d="
M72.133835,112.711411 
	C61.085911,107.131058 50.180805,101.270050 39.084175,95.108093 
	C39.326286,93.721992 39.759930,92.636841 40.322121,91.219910 
	C51.481468,96.867989 62.512260,102.847855 73.863937,109.002304 
	C73.548759,110.261513 72.912712,111.346130 72.133835,112.711411 
z"/>
    <path fill="#F8A858" opacity="1.000000" stroke="none" d="
M101.042931,59.695404 
	C90.026497,54.110466 79.127380,48.207752 68.052353,41.982346 
	C68.208412,40.885166 68.540367,40.110683 69.076942,39.080006 
	C74.134003,41.200417 79.070068,43.422539 83.817932,45.992371 
	C89.876541,49.271664 95.783134,52.831825 101.913605,56.566780 
	C101.768059,57.700966 101.464149,58.539299 101.042931,59.695404 
z"/>
    <path fill="#484F65" opacity="1.000000" stroke="none" d="
M90.370018,96.102982 
	C92.527855,91.315224 95.002037,86.666832 97.755272,81.776810 
	C100.844452,83.021614 103.654594,84.508041 106.725952,86.250877 
	C104.315681,90.858948 101.644180,95.210602 98.877327,99.956223 
	C96.083435,98.980919 93.384903,97.611633 90.370018,96.102982 
z"/>
    <path fill="#F0B643" opacity="1.000000" stroke="none" d="
M116.214462,153.123260 
	C114.574814,151.004303 113.179237,149.079315 111.916817,147.337997 
	C113.208061,145.891678 114.802544,144.105713 116.350006,142.372391 
	C117.663727,144.150772 118.987099,145.942245 120.391899,147.843933 
	C119.222008,149.471832 117.840271,151.394516 116.214462,153.123260 
z"/>
    <path fill="#EEB748" opacity="1.000000" stroke="none" d="
M152.024750,52.349808 
	C153.886932,54.563793 155.406387,56.803471 157.011322,59.169144 
	C155.681030,60.699203 154.004608,62.627384 152.367538,64.510284 
	C150.705658,62.542103 148.877991,60.377579 147.059235,58.223621 
	C148.404419,56.521900 150.043228,54.448700 152.024750,52.349808 
z"/>
</svg>