<svg width="20" height="20" viewBox="0 0 20 20" fill="none" xmlns="http://www.w3.org/2000/svg">
<path fill-rule="evenodd" clip-rule="evenodd" d="M9.28135 3.76155C9.75268 3.64208 10.2476 3.64208 10.7189 3.76155C11.8184 4.04027 12.605 4.9669 12.6923 6.05489L12.6598 6.04818C10.9061 5.68677 9.0942 5.68677 7.34058 6.04818L7.30797 6.05491C7.39527 4.9669 8.18185 4.04027 9.28135 3.76155ZM13.9043 6.25699V6.432C15.1328 7.00024 16.0642 8.07369 16.4154 9.38946C16.8298 10.9414 16.73 12.5811 16.1304 14.0746L16.06 14.25C15.4168 15.8521 13.9524 17.0045 12.2083 17.2809L11.6407 17.3708C10.5542 17.5431 9.44614 17.5431 8.35959 17.3708L7.79199 17.2809C6.04794 17.0045 4.58348 15.8521 3.94031 14.25L3.86989 14.0746C3.2703 12.5811 3.17056 10.9414 3.58489 9.38946C3.93617 8.07372 4.86748 7.00028 6.09594 6.43202V6.25698C6.09594 4.54961 7.28058 3.0577 8.97795 2.62743C9.64823 2.45752 10.352 2.45752 11.0223 2.62743C12.7197 3.0577 13.9043 4.54961 13.9043 6.25699ZM10.0002 10.7086C10.2661 10.7086 10.4817 10.9185 10.4817 11.1774V12.74C10.4817 12.9989 10.2661 13.2088 10.0002 13.2088C9.7342 13.2088 9.5186 12.9989 9.5186 12.74V11.1774C9.5186 10.9185 9.7342 10.7086 10.0002 10.7086Z" fill="white"/>
</svg>
