<svg width="56" height="56" viewBox="0 0 56 56" fill="none" xmlns="http://www.w3.org/2000/svg">
<circle cx="28" cy="28" r="28" fill="#FDEEEE"/>
<path d="M19 22.2826C18.5858 22.2826 18.25 22.6184 18.25 23.0326C18.25 23.4468 18.5858 23.7826 19 23.7826V22.2826ZM37 23.7826C37.4142 23.7826 37.75 23.4468 37.75 23.0326C37.75 22.6184 37.4142 22.2826 37 22.2826V23.7826ZM21 23.0326V22.2826H20.25V23.0326H21ZM35 23.0326H35.75V22.2826H35V23.0326ZM34.3418 32.8303L35.0624 33.0383L34.3418 32.8303ZM29.724 36.8553L29.8489 37.5949L29.8489 37.5949L29.724 36.8553ZM26.276 36.8553L26.401 36.1158L26.401 36.1158L26.276 36.8553ZM26.1183 36.8287L25.9933 37.5682L25.9933 37.5682L26.1183 36.8287ZM21.6581 32.8303L20.9376 33.0383L21.6581 32.8303ZM29.8817 36.8287L29.7568 36.0892L29.7568 36.0892L29.8817 36.8287ZM23.8425 21.4894L24.5233 21.8041L24.5233 21.8041L23.8425 21.4894ZM24.818 20.1811L24.3175 19.6226L24.3175 19.6226L24.818 20.1811ZM26.2779 19.307L26.5389 20.0101L26.5389 20.0101L26.2779 19.307ZM29.7221 19.307L29.9831 18.6038L29.9831 18.6038L29.7221 19.307ZM32.1575 21.4894L32.8383 21.1747L32.8383 21.1747L32.1575 21.4894ZM19 23.7826H37V22.2826H19V23.7826ZM29.7568 36.0892L29.599 36.1158L29.8489 37.5949L30.0067 37.5682L29.7568 36.0892ZM26.401 36.1158L26.2432 36.0892L25.9933 37.5682L26.151 37.5949L26.401 36.1158ZM34.25 23.0326V28.1758H35.75V23.0326H34.25ZM21.75 28.1759V23.0326H20.25V28.1759H21.75ZM34.25 28.1758C34.25 29.6806 34.0383 31.1776 33.6212 32.6223L35.0624 33.0383C35.5185 31.4583 35.75 29.8212 35.75 28.1758H34.25ZM29.599 36.1158C28.5404 36.2947 27.4596 36.2947 26.401 36.1158L26.151 37.5949C27.3751 37.8017 28.6248 37.8017 29.8489 37.5949L29.599 36.1158ZM26.2432 36.0892C24.4052 35.7786 22.9016 34.4335 22.3787 32.6223L20.9376 33.0383C21.6188 35.3981 23.5817 37.1607 25.9933 37.5682L26.2432 36.0892ZM22.3787 32.6223C21.9617 31.1776 21.75 29.6806 21.75 28.1759H20.25C20.25 29.8212 20.4815 31.4583 20.9376 33.0383L22.3787 32.6223ZM30.0067 37.5682C32.4183 37.1607 34.3812 35.3981 35.0624 33.0383L33.6212 32.6223C33.0984 34.4335 31.5947 35.7786 29.7568 36.0892L30.0067 37.5682ZM24.25 23.0326C24.25 22.6137 24.3419 22.1965 24.5233 21.8041L23.1618 21.1747C22.8908 21.7608 22.75 22.3924 22.75 23.0326H24.25ZM24.5233 21.8041C24.7049 21.4113 24.9736 21.0488 25.3185 20.7397L24.3175 19.6226C23.8267 20.0623 23.4325 20.5889 23.1618 21.1747L24.5233 21.8041ZM25.3185 20.7397C25.6637 20.4304 26.0778 20.1813 26.5389 20.0101L26.0169 18.6038C25.3862 18.838 24.8081 19.1829 24.3175 19.6226L25.3185 20.7397ZM26.5389 20.0101C27.0001 19.8389 27.4968 19.75 28 19.75V18.25C27.3213 18.25 26.6477 18.3697 26.0169 18.6038L26.5389 20.0101ZM28 19.75C28.5032 19.75 28.9999 19.8389 29.4611 20.0101L29.9831 18.6038C29.3523 18.3697 28.6787 18.25 28 18.25V19.75ZM29.4611 20.0101C29.9222 20.1813 30.3363 20.4304 30.6815 20.7397L31.6825 19.6226C31.1919 19.1829 30.6138 18.838 29.9831 18.6038L29.4611 20.0101ZM30.6815 20.7397C31.0264 21.0488 31.2951 21.4113 31.4767 21.8041L32.8383 21.1747C32.5675 20.5889 32.1733 20.0623 31.6825 19.6226L30.6815 20.7397ZM31.4767 21.8041C31.6581 22.1965 31.75 22.6137 31.75 23.0326H33.25C33.25 22.3924 33.1092 21.7608 32.8383 21.1747L31.4767 21.8041ZM21 23.7826H35V22.2826H21V23.7826Z" fill="#EF5858"/>
<path d="M26 28V32M30 28V32" stroke="#EF5858" stroke-width="1.5" stroke-linecap="round"/>
</svg>
