<svg width="18" height="17" viewBox="0 0 18 17" fill="none" xmlns="http://www.w3.org/2000/svg">
<path fill-rule="evenodd" clip-rule="evenodd" d="M2.97814 6.87185C2.04553 6.87185 1.2895 7.60115 1.2895 8.50079C1.2895 9.40043 2.04553 10.1297 2.97814 10.1297C3.91074 10.1297 4.66677 9.40043 4.66677 8.50079C4.66677 7.60115 3.91074 6.87185 2.97814 6.87185ZM0 8.50079C0 6.91415 1.33336 5.62793 2.97814 5.62793C4.62292 5.62793 5.95627 6.91415 5.95627 8.50079C5.95627 10.0874 4.62292 11.3736 2.97814 11.3736C1.33336 11.3736 0 10.0874 0 8.50079Z" fill="white"/>
<path fill-rule="evenodd" clip-rule="evenodd" d="M14.6456 1.24392C13.713 1.24392 12.957 1.97323 12.957 2.87287C12.957 3.77251 13.713 4.50181 14.6456 4.50181C15.5782 4.50181 16.3343 3.77251 16.3343 2.87287C16.3343 1.97323 15.5782 1.24392 14.6456 1.24392ZM11.6675 2.87287C11.6675 1.28623 13.0008 0 14.6456 0C16.2904 0 17.6238 1.28623 17.6238 2.87287C17.6238 4.45951 16.2904 5.74573 14.6456 5.74573C13.0008 5.74573 11.6675 4.45951 11.6675 2.87287Z" fill="white"/>
<path fill-rule="evenodd" clip-rule="evenodd" d="M14.6456 12.4983C13.713 12.4983 12.957 13.2276 12.957 14.1273C12.957 15.0269 13.713 15.7562 14.6456 15.7562C15.5782 15.7562 16.3343 15.0269 16.3343 14.1273C16.3343 13.2276 15.5782 12.4983 14.6456 12.4983ZM11.6675 14.1273C11.6675 12.5406 13.0008 11.2544 14.6456 11.2544C16.2904 11.2544 17.6238 12.5406 17.6238 14.1273C17.6238 15.7139 16.2904 17.0001 14.6456 17.0001C13.0008 17.0001 11.6675 15.7139 11.6675 14.1273Z" fill="white"/>
<path fill-rule="evenodd" clip-rule="evenodd" d="M12.8683 3.68465C13.0478 3.98136 12.9439 4.3622 12.6363 4.53527L6.13509 8.19358C6.02446 8.25584 5.95601 8.37291 5.95601 8.49985C5.95601 8.62679 6.02446 8.74386 6.13509 8.80611L12.6363 12.4644C12.9439 12.6375 13.0478 13.0183 12.8683 13.315C12.6889 13.6118 12.2941 13.712 11.9865 13.5389L5.02903 9.62381C4.80454 9.49749 4.6665 9.26565 4.6665 9.01494V7.98475C4.6665 7.73405 4.80454 7.50221 5.02903 7.37588L11.9865 3.4608C12.2941 3.28772 12.6889 3.38794 12.8683 3.68465Z" fill="white"/>
</svg>
