<svg width="8" height="9" viewBox="0 0 8 9" fill="none" xmlns="http://www.w3.org/2000/svg">
<path fill-rule="evenodd" clip-rule="evenodd" d="M4.24984 0.931396C4.55065 0.931396 4.79451 1.18366 4.79451 1.49484V3.93645H7.15472C7.45553 3.93645 7.69939 4.18871 7.69939 4.49989C7.69939 4.81108 7.45553 5.06334 7.15472 5.06334H4.79451V7.50494C4.79451 7.81613 4.55065 8.06839 4.24984 8.06839C3.94903 8.06839 3.70517 7.81613 3.70517 7.50494V5.06334H1.34496C1.04415 5.06334 0.800293 4.81108 0.800293 4.49989C0.800293 4.18871 1.04415 3.93645 1.34496 3.93645H3.70518V1.49484C3.70518 1.18366 3.94903 0.931396 4.24984 0.931396Z" fill="#03174C"/>
</svg>
