<svg width="40" height="40" viewBox="0 0 40 40" fill="none" xmlns="http://www.w3.org/2000/svg">
<rect x="0.6" y="0.6" width="38.8" height="38.8" rx="19.4" stroke="#AAAAAA" stroke-width="1.2" stroke-dasharray="4 4"/>
<path d="M10.8825 23.4419L10.1508 23.6065H10.1508L10.8825 23.4419ZM10.8825 16.5581L11.6142 16.7228L10.8825 16.5581ZM24.574 16.3199L25.301 16.1355V16.1355L24.574 16.3199ZM24.574 23.6801L23.8471 23.4957L23.8471 23.4957L24.574 23.6801ZM21.1909 27.0813L21.369 27.8098L21.1909 27.0813ZM14.2665 27.0876L14.0884 27.8162L14.2665 27.0876ZM14.2665 12.9124L14.4447 13.6409L14.2665 12.9124ZM21.1909 12.9187L21.369 12.1902L21.1909 12.9187ZM10.9441 23.7158L11.6758 23.5512L10.9441 23.7158ZM24.549 23.7787L25.276 23.9631V23.9631L24.549 23.7787ZM24.549 16.2213L23.8221 16.4058L23.8221 16.4058L24.549 16.2213ZM10.9441 16.2842L10.2124 16.1195L10.9441 16.2842ZM24.6633 23.3084L23.9319 23.1426L23.7814 23.8064L24.4276 24.0203L24.6633 23.3084ZM24.8603 23.3736L25.096 22.6616L25.096 22.6616L24.8603 23.3736ZM25.0097 23.4351L24.6761 24.1068L24.6761 24.1068L25.0097 23.4351ZM26.6936 24.2713L27.0272 23.5996V23.5996L26.6936 24.2713ZM29.5 22.5485L30.25 22.5485V22.5485L29.5 22.5485ZM29.5 17.8101H30.25V17.8101L29.5 17.8101ZM26.533 16.1768L26.1375 15.5396L26.533 16.1768ZM25.0474 17.0991L24.6518 16.4619L25.0474 17.0991ZM24.8453 17.2587L24.3168 16.7266L24.3168 16.7266L24.8453 17.2587ZM24.7904 17.3132L24.2619 16.7811L23.9817 17.0594L24.0526 17.4479L24.7904 17.3132ZM23.8221 16.4058L23.8471 16.5043L25.301 16.1355L25.276 16.0369L23.8221 16.4058ZM23.8471 23.4957L23.8221 23.5942L25.276 23.9631L25.301 23.8645L23.8471 23.4957ZM11.6758 23.5512L11.6142 23.2772L10.1508 23.6065L10.2124 23.8805L11.6758 23.5512ZM11.6142 16.7228L11.6758 16.4488L10.2124 16.1195L10.1508 16.3935L11.6142 16.7228ZM11.6142 23.2772C11.1286 21.119 11.1286 18.881 11.6142 16.7228L10.1508 16.3935C9.6164 18.7685 9.6164 21.2315 10.1508 23.6065L11.6142 23.2772ZM23.8471 16.5043C24.4291 18.7989 24.4291 21.2011 23.8471 23.4957L25.301 23.8645C25.9445 21.3278 25.9445 18.6722 25.301 16.1355L23.8471 16.5043ZM21.0127 26.3528C18.8627 26.8785 16.5919 26.8842 14.4447 26.3591L14.0884 27.8162C16.4724 28.3992 18.9877 28.3922 21.369 27.8098L21.0127 26.3528ZM14.4447 13.6409C16.5919 13.1158 18.8627 13.1215 21.0127 13.6472L21.369 12.1902C18.9877 11.6078 16.4724 11.6008 14.0884 12.1838L14.4447 13.6409ZM14.4447 26.3591C13.0571 26.0198 11.9862 24.9304 11.6758 23.5512L10.2124 23.8805C10.6488 25.8196 12.1519 27.3426 14.0884 27.8162L14.4447 26.3591ZM21.369 27.8098C23.274 27.344 24.7934 25.8656 25.276 23.9631L23.8221 23.5942C23.4788 24.9476 22.3901 26.0159 21.0127 26.3528L21.369 27.8098ZM21.0127 13.6472C22.3901 13.9841 23.4788 15.0524 23.8221 16.4058L25.276 16.0369C24.7934 14.1344 23.274 12.656 21.369 12.1902L21.0127 13.6472ZM14.0884 12.1838C12.1519 12.6574 10.6488 14.1804 10.2124 16.1195L11.6758 16.4488C11.9862 15.0696 13.0571 13.9802 14.4447 13.6409L14.0884 12.1838ZM24.4276 24.0203L24.6246 24.0856L25.096 22.6616L24.899 22.5964L24.4276 24.0203ZM24.6246 24.0856C24.6423 24.0914 24.6595 24.0985 24.6761 24.1068L25.3433 22.7633C25.2634 22.7236 25.1807 22.6896 25.096 22.6616L24.6246 24.0856ZM24.6761 24.1068L26.36 24.943L27.0272 23.5996L25.3433 22.7633L24.6761 24.1068ZM26.36 24.943C28.1405 25.8273 30.25 24.5453 30.25 22.5485L28.75 22.5485C28.75 23.4154 27.8254 23.996 27.0272 23.5996L26.36 24.943ZM30.25 17.8101C30.25 15.7002 27.921 14.4324 26.1375 15.5396L26.9286 16.814C27.7282 16.3176 28.75 16.8943 28.75 17.8101L30.25 17.8101ZM26.1375 15.5396L24.6518 16.4619L25.4429 17.7363L26.9286 16.814L26.1375 15.5396ZM24.6518 16.4619C24.5305 16.5372 24.4181 16.626 24.3168 16.7266L25.3739 17.7908C25.3946 17.7702 25.4178 17.7519 25.4429 17.7363L24.6518 16.4619ZM24.3168 16.7266L24.2619 16.7811L25.319 17.8454L25.3739 17.7908L24.3168 16.7266ZM24.0526 17.4479C24.3966 19.3329 24.3564 21.2696 23.9319 23.1426L25.3948 23.4742C25.8641 21.4036 25.9086 19.2625 25.5282 17.1786L24.0526 17.4479ZM30.25 22.5485L30.25 17.8101L28.75 17.8101L28.75 22.5485L30.25 22.5485Z" fill="#AAAAAA"/>
</svg>
