<svg width="24" height="24" viewBox="0 0 24 24" fill="none" xmlns="http://www.w3.org/2000/svg">
<path d="M5.93408 6.64307H12.5357" stroke="#8E97FD" stroke-miterlimit="10" stroke-linecap="round"/>
<path d="M5.93408 9.31299H9.79123" stroke="#8E97FD" stroke-miterlimit="10" stroke-linecap="round"/>
<path d="M8.70742 20.25H3.71741C3.52714 20.25 3.34467 20.1744 3.21013 20.0399C3.07558 19.9053 3 19.7229 3 19.5326V4.46741C3 4.27714 3.07558 4.09467 3.21013 3.96013C3.34467 3.82558 3.52714 3.75 3.71741 3.75H20.2826C20.4729 3.75 20.6553 3.82558 20.7899 3.96013C20.9244 4.09467 21 4.27714 21 4.46741V12.6758" stroke="#8E97FD" stroke-miterlimit="10" stroke-linecap="round"/>
<path d="M12.8282 21.3918C13.4029 21.3918 13.8688 20.9259 13.8688 20.3511C13.8688 19.7764 13.4029 19.3105 12.8282 19.3105C12.2535 19.3105 11.7876 19.7764 11.7876 20.3511C11.7876 20.9259 12.2535 21.3918 12.8282 21.3918Z" stroke="#8E97FD" stroke-miterlimit="10" stroke-linecap="round"/>
<path d="M19.9688 21.3918C20.5435 21.3918 21.0094 20.9259 21.0094 20.3511C21.0094 19.7764 20.5435 19.3105 19.9688 19.3105C19.3941 19.3105 18.9282 19.7764 18.9282 20.3511C18.9282 20.9259 19.3941 21.3918 19.9688 21.3918Z" stroke="#8E97FD" stroke-miterlimit="10" stroke-linecap="round"/>
<path d="M18.9282 14.7471V17.1773C18.9282 17.2797 18.9689 17.3779 19.0413 17.4503C19.1137 17.5227 19.2119 17.5634 19.3143 17.5634H21.8443" stroke="#8E97FD" stroke-miterlimit="10" stroke-linecap="round"/>
<path d="M11.7879 20.3797H11.192C11.1715 20.3797 11.1519 20.3716 11.1374 20.3571C11.1229 20.3426 11.1147 20.3229 11.1147 20.3025V14.8243C11.1147 14.8038 11.1229 14.7842 11.1374 14.7697C11.1519 14.7552 11.1715 14.7471 11.192 14.7471H19.4483C19.5065 14.7471 19.5639 14.7602 19.6163 14.7855C19.6687 14.8108 19.7147 14.8477 19.7508 14.8932L21.7852 17.458C21.8394 17.5263 21.8689 17.6108 21.8689 17.698V20.3025C21.8689 20.3127 21.8669 20.3227 21.863 20.3321C21.8591 20.3415 21.8534 20.35 21.8462 20.3571C21.8391 20.3643 21.8305 20.37 21.8212 20.3739C21.8118 20.3778 21.8017 20.3798 21.7916 20.3798H21.0096" stroke="#8E97FD" stroke-miterlimit="10" stroke-linecap="round"/>
<path d="M18.9285 20.3794H13.8687" stroke="#8E97FD" stroke-miterlimit="10" stroke-linecap="round"/>
<path d="M17.4839 14.7471V20.351" stroke="#8E97FD" stroke-miterlimit="10" stroke-linecap="round"/>
</svg>
