<svg width="24" height="24" viewBox="0 0 24 24" fill="none" xmlns="http://www.w3.org/2000/svg">
<path fill-rule="evenodd" clip-rule="evenodd" d="M12 3.5C7.86804 3.5 4.5 6.92615 4.5 11.1755C4.5 13.3118 5.35196 15.663 6.74021 17.4771C8.13081 19.2942 9.99929 20.5 12 20.5C14.0007 20.5 15.8692 19.2942 17.2598 17.4771C18.648 15.663 19.5 13.3118 19.5 11.1755C19.5 6.92615 16.132 3.5 12 3.5ZM3.5 11.1755C3.5 6.39443 7.29541 2.5 12 2.5C16.7046 2.5 20.5 6.39443 20.5 11.1755C20.5 13.5544 19.5611 16.1154 18.0539 18.0848C16.5491 20.0512 14.4176 21.5 12 21.5C9.58243 21.5 7.45091 20.0512 5.94608 18.0848C4.4389 16.1154 3.5 13.5544 3.5 11.1755Z" fill="#8E97FD"/>
<path fill-rule="evenodd" clip-rule="evenodd" d="M9 10.5C9 8.84315 10.3431 7.5 12 7.5C13.6569 7.5 15 8.84315 15 10.5C15 12.1569 13.6569 13.5 12 13.5C10.3431 13.5 9 12.1569 9 10.5ZM12 8.5C10.8954 8.5 10 9.39543 10 10.5C10 11.6046 10.8954 12.5 12 12.5C13.1046 12.5 14 11.6046 14 10.5C14 9.39543 13.1046 8.5 12 8.5Z" fill="#8E97FD"/>
</svg>
