<svg width="20" height="20" viewBox="0 0 20 20" fill="none" xmlns="http://www.w3.org/2000/svg">
<path d="M1.35288 13.0496L0.768733 13.1866L1.35288 13.0496ZM1.35288 6.95043L0.768733 6.81341L1.35288 6.95043ZM18.6471 6.95044L18.063 7.08746L18.6471 6.95044ZM18.6471 13.0496L18.063 12.9125L18.6471 13.0496ZM13.0496 18.6471L12.9125 18.063L13.0496 18.6471ZM6.95044 18.6471L7.08746 18.063L6.95044 18.6471ZM6.95043 1.35288L7.08745 1.93702L6.95043 1.35288ZM13.0496 1.35288L12.9125 1.93702L13.0496 1.35288ZM12.6172 1.40949C12.469 1.11311 12.1086 0.992972 11.8122 1.14117C11.5158 1.28936 11.3957 1.64976 11.5439 1.94615L12.6172 1.40949ZM12.6103 2.73741L13.147 2.46908V2.46908L12.6103 2.73741ZM17.2626 7.38966L16.9943 7.92632L17.2626 7.38966ZM18.0539 8.45611C18.3502 8.60431 18.7106 8.48417 18.8588 8.18779C19.007 7.8914 18.8869 7.53099 18.5905 7.3828L18.0539 8.45611ZM8.45611 1.94615C8.6043 1.64976 8.48417 1.28935 8.18778 1.14116C7.89139 0.992968 7.53099 1.1131 7.3828 1.40949L8.45611 1.94615ZM7.38966 2.7374L6.85301 2.46908L7.38966 2.7374ZM2.73741 7.38966L2.46909 6.853H2.46909L2.73741 7.38966ZM1.4095 7.3828C1.11311 7.53099 0.992976 7.8914 1.14117 8.18778C1.28936 8.48417 1.64977 8.6043 1.94615 8.45611L1.4095 7.3828ZM7.62654 16.2838L8.2161 16.3952L7.62654 16.2838ZM7.64666 16.1774L8.23622 16.2888L7.64666 16.1774ZM12.3533 16.1774L11.7638 16.2888L11.7638 16.2888L12.3533 16.1774ZM12.3735 16.2838L12.963 16.1723V16.1723L12.3735 16.2838ZM12.072 18.5889L12.6131 18.8482L12.6131 18.8482L12.072 18.5889ZM11.4094 18.583C11.2662 18.8818 11.3924 19.2402 11.6912 19.3834C11.99 19.5266 12.3484 19.4005 12.4916 19.1016L11.4094 18.583ZM7.92801 18.5889L7.38694 18.8482H7.38694L7.92801 18.5889ZM7.50842 19.1016C7.65164 19.4005 8.00999 19.5266 8.30881 19.3834C8.60763 19.2402 8.73377 18.8818 8.59055 18.583L7.50842 19.1016ZM9.33533 14.3442L9.17596 13.7658L9.33533 14.3442ZM10.6647 14.3442L10.824 13.7658L10.6647 14.3442ZM1.93702 12.9126C1.48766 10.9969 1.48766 9.00315 1.93702 7.08745L0.768733 6.81341C0.277089 8.90936 0.277089 11.0906 0.768733 13.1866L1.93702 12.9126ZM18.063 7.08746C18.5123 9.00315 18.5123 10.9968 18.063 12.9125L19.2313 13.1866C19.7229 11.0906 19.7229 8.90936 19.2313 6.81341L18.063 7.08746ZM12.9125 18.063C10.9968 18.5123 9.00315 18.5123 7.08746 18.063L6.81341 19.2313C8.90936 19.7229 11.0906 19.7229 13.1866 19.2313L12.9125 18.063ZM7.08745 1.93702C9.00315 1.48766 10.9969 1.48766 12.9125 1.93702L13.1866 0.768732C11.0906 0.277089 8.90936 0.27709 6.81341 0.768732L7.08745 1.93702ZM7.08746 18.063C4.53189 17.4635 2.53648 15.4681 1.93702 12.9126L0.768733 13.1866C1.47227 16.1859 3.81413 18.5277 6.81341 19.2313L7.08746 18.063ZM13.1866 19.2313C16.1859 18.5277 18.5277 16.1859 19.2313 13.1866L18.063 12.9125C17.4635 15.4681 15.4681 17.4635 12.9125 18.063L13.1866 19.2313ZM12.9125 1.93702C15.4681 2.53648 17.4635 4.53189 18.063 7.08746L19.2313 6.81341C18.5277 3.81413 16.1859 1.47227 13.1866 0.768732L12.9125 1.93702ZM6.81341 0.768732C3.81413 1.47227 1.47227 3.81413 0.768733 6.81341L1.93702 7.08745C2.53648 4.53188 4.53189 2.53648 7.08745 1.93702L6.81341 0.768732ZM11.5439 1.94615L12.0737 3.00573L13.147 2.46908L12.6172 1.40949L11.5439 1.94615ZM16.9943 7.92632L18.0539 8.45611L18.5905 7.3828L17.5309 6.85301L16.9943 7.92632ZM12.0737 3.00573C13.1383 5.13507 14.8649 6.86165 16.9943 7.92632L17.5309 6.85301C15.6338 5.90446 14.0955 4.36618 13.147 2.46908L12.0737 3.00573ZM7.3828 1.40949L6.85301 2.46908L7.92632 3.00573L8.45611 1.94615L7.3828 1.40949ZM2.46909 6.853L1.4095 7.3828L1.94615 8.45611L3.00574 7.92632L2.46909 6.853ZM6.85301 2.46908C5.90446 4.36618 4.36619 5.90445 2.46909 6.853L3.00574 7.92632C5.13508 6.86165 6.86166 5.13507 7.92632 3.00573L6.85301 2.46908ZM8.2161 16.3952L8.23622 16.2888L7.0571 16.0659L7.03698 16.1723L8.2161 16.3952ZM11.7638 16.2888L11.7839 16.3952L12.963 16.1723L12.9429 16.0659L11.7638 16.2888ZM11.5309 18.3295L11.4094 18.583L12.4916 19.1016L12.6131 18.8482L11.5309 18.3295ZM7.38694 18.8482L7.50842 19.1016L8.59055 18.583L8.46907 18.3295L7.38694 18.8482ZM11.7839 16.3952C11.9078 17.0505 11.8191 17.7282 11.5309 18.3295L12.6131 18.8482C13.0118 18.0163 13.1344 17.0788 12.963 16.1723L11.7839 16.3952ZM7.03698 16.1723C6.86562 17.0788 6.98823 18.0163 7.38694 18.8482L8.46908 18.3295C8.18086 17.7282 8.09223 17.0505 8.2161 16.3952L7.03698 16.1723ZM9.49469 14.9227C9.8254 14.8315 10.1746 14.8315 10.5053 14.9227L10.824 13.7658C10.2847 13.6172 9.71527 13.6172 9.17596 13.7658L9.49469 14.9227ZM12.9429 16.0659C12.7334 14.9577 11.9114 14.0653 10.824 13.7658L10.5053 14.9227C11.1511 15.1006 11.6394 15.6306 11.7638 16.2888L12.9429 16.0659ZM8.23622 16.2888C8.36065 15.6306 8.84888 15.1006 9.49469 14.9227L9.17596 13.7658C8.08862 14.0653 7.2666 14.9577 7.0571 16.0659L8.23622 16.2888Z" fill="#8E97FD"/>
</svg>
