<svg width="26" height="26" viewBox="0 0 26 26" fill="none" xmlns="http://www.w3.org/2000/svg">
<path fill-rule="evenodd" clip-rule="evenodd" d="M13 25.5C6.09625 25.5 0.5 19.9037 0.5 13C0.5 6.09625 6.09625 0.5 13 0.5C19.9037 0.5 25.5 6.09625 25.5 13C25.5 19.9037 19.9037 25.5 13 25.5ZM16.9325 9.4325C17.1769 9.18811 17.5731 9.18811 17.8175 9.4325C18.0619 9.67689 18.0619 10.0731 17.8175 10.3175L11.5675 16.5675C11.4502 16.6851 11.291 16.7511 11.125 16.7511C10.959 16.7511 10.7998 16.6851 10.6825 16.5675L8.1825 14.0675C7.93811 13.8231 7.93811 13.4269 8.1825 13.1825C8.42689 12.9381 8.82311 12.9381 9.0675 13.1825L11.125 15.2413L16.9325 9.4325Z" fill="#8E97FD"/>
</svg>
