<svg width="25" height="24" viewBox="0 0 25 24" fill="none" xmlns="http://www.w3.org/2000/svg">
<path d="M14.1109 4.75306L14.6412 5.28339L14.1109 4.75306ZM10.194 8.66988L10.7244 9.20021L10.194 8.66988ZM17.7469 8.38914L17.2166 7.85881V7.85881L17.7469 8.38914ZM13.8301 12.306L13.2998 11.7756L13.8301 12.306ZM7.65752 15.8008L7.47562 15.0732H7.47562L7.65752 15.8008ZM6.90049 15.9901L7.08239 16.7177H7.08239L6.90049 15.9901ZM6.50991 15.5995L7.23752 15.7814L7.23752 15.7814L6.50991 15.5995ZM6.69917 14.8425L7.42678 15.0244H7.42678L6.69917 14.8425ZM13.5805 4.22273L9.6637 8.13955L10.7244 9.20021L14.6412 5.28339L13.5805 4.22273ZM17.2166 7.85881L13.2998 11.7756L14.3604 12.8363L18.2773 8.91947L17.2166 7.85881ZM7.47562 15.0732L6.71858 15.2625L7.08239 16.7177L7.83943 16.5284L7.47562 15.0732ZM7.23752 15.7814L7.42678 15.0244L5.97156 14.6606L5.7823 15.4176L7.23752 15.7814ZM6.71859 15.2625C7.03199 15.1841 7.31587 15.468 7.23752 15.7814L5.7823 15.4176C5.58601 16.2028 6.29722 16.914 7.08239 16.7177L6.71859 15.2625ZM13.2998 11.7756C11.6931 13.3823 9.67997 14.5221 7.47562 15.0732L7.83943 16.5284C10.3075 15.9114 12.5615 14.6352 14.3604 12.8363L13.2998 11.7756ZM9.6637 8.13955C7.86478 9.93847 6.58859 12.1925 5.97156 14.6606L7.42678 15.0244C7.97786 12.82 9.11768 10.8069 10.7244 9.20021L9.6637 8.13955ZM15.9289 3.25C15.0481 3.25 14.2034 3.5999 13.5805 4.22273L14.6412 5.28339C14.9827 4.94187 15.4459 4.75 15.9289 4.75V3.25ZM17.75 6.5711C17.75 7.05409 17.5581 7.51729 17.2166 7.85881L18.2773 8.91947C18.9001 8.29665 19.25 7.45191 19.25 6.5711H17.75ZM19.25 6.5711C19.25 4.73691 17.7631 3.25 15.9289 3.25V4.75C16.9347 4.75 17.75 5.56533 17.75 6.5711H19.25ZM16.7628 8.42457C16.2382 8.59944 15.4629 8.3564 14.8033 7.69673C14.1436 7.03706 13.9006 6.26178 14.0754 5.73717L12.6524 5.26283C12.2213 6.55626 12.8872 7.90203 13.7426 8.75739C14.598 9.61276 15.9437 10.2787 17.2372 9.8476L16.7628 8.42457Z" fill="#8E97FD"/>
<path d="M19.5 20H5.5" stroke="#8E97FD" stroke-width="1.5" stroke-linecap="round" stroke-linejoin="round"/>
</svg>
