<svg width="39" height="39" viewBox="0 0 39 39" fill="none" xmlns="http://www.w3.org/2000/svg">
<g clip-path="url(#clip0_431_988)">
<path d="M26.4958 0C24.4411 0.142122 22.0394 1.45735 20.6399 3.17003C19.3632 4.72373 18.313 7.0314 18.7225 9.27403C20.9675 9.34389 23.2872 7.99735 24.6314 6.25576C25.8888 4.63461 26.8403 2.34139 26.4958 0Z" fill="black"/>
<path d="M34.616 12.9305C32.6431 10.4567 29.8706 9.021 27.2521 9.021C23.7955 9.021 22.3333 10.6759 19.9317 10.6759C17.4554 10.6759 15.5741 9.02581 12.5847 9.02581C9.64834 9.02581 6.52167 10.8204 4.53919 13.8893C1.75216 18.2107 2.22911 26.3357 6.74569 33.2563C8.36202 35.7326 10.5203 38.5172 13.3435 38.5413C15.8559 38.5654 16.5641 36.9298 19.9678 36.913C23.3715 36.8937 24.0171 38.563 26.5247 38.5365C29.3502 38.5148 31.6266 35.4291 33.2429 32.9528C34.4016 31.1775 34.8328 30.2838 35.7313 28.2797C29.1961 25.7913 28.1482 16.498 34.616 12.9305Z" fill="black"/>
</g>
<defs>
<clipPath id="clip0_431_988">
<rect width="38.5417" height="38.5417" fill="white"/>
</clipPath>
</defs>
</svg>
