<svg width="20" height="20" viewBox="0 0 20 20" fill="none" xmlns="http://www.w3.org/2000/svg">
<path d="M10.0001 2.5C7.97163 2.5 6.32724 4.13096 6.32724 6.14286C6.32724 8.15475 7.97163 9.78571 10.0001 9.78571C12.0285 9.78571 13.6729 8.15475 13.6729 6.14286C13.6729 4.13096 12.0285 2.5 10.0001 2.5Z" fill="white"/>
<path d="M12.1675 11.4064C10.7317 11.1791 9.26851 11.1791 7.83262 11.4064L7.6787 11.4307C5.65548 11.751 4.16675 13.4819 4.16675 15.514C4.16675 16.6108 5.06322 17.5 6.16907 17.5H13.8311C14.9369 17.5 15.8334 16.6108 15.8334 15.514C15.8334 13.4819 14.3447 11.751 12.3215 11.4307L12.1675 11.4064Z" fill="white"/>
</svg>
