<svg width="25" height="25" viewBox="0 0 25 25" fill="none" xmlns="http://www.w3.org/2000/svg">
<path fill-rule="evenodd" clip-rule="evenodd" d="M23.2496 12.5002C23.2496 12.9144 22.9139 13.2502 22.4996 13.2502L12.3929 13.2503C11.9787 13.2503 11.6429 12.9145 11.6429 12.5003C11.6429 12.0861 11.9787 11.7503 12.3929 11.7503L22.4996 11.7502C22.9138 11.7502 23.2496 12.086 23.2496 12.5002Z" fill="white"/>
<path fill-rule="evenodd" clip-rule="evenodd" d="M15.0047 8.34278C15.3281 8.60153 15.3805 9.0735 15.1218 9.39695L12.6395 12.4999L15.1218 15.6028C15.3805 15.9262 15.3281 16.3982 15.0047 16.6569C14.6812 16.9157 14.2092 16.8633 13.9505 16.5398L11.1433 13.0308C10.895 12.7204 10.895 12.2793 11.1433 11.9689L13.9505 8.45991C14.2092 8.13646 14.6812 8.08402 15.0047 8.34278Z" fill="white"/>
<path fill-rule="evenodd" clip-rule="evenodd" d="M4.5 21.25L12.5 21.25C12.6381 21.25 12.75 21.138 12.75 21L12.75 20.3571C12.75 19.9429 13.0858 19.6071 13.5 19.6071C13.9142 19.6071 14.25 19.9429 14.25 20.3571L14.25 21C14.25 21.9665 13.4665 22.75 12.5 22.75L4.50001 22.75C3.53351 22.75 2.75 21.9665 2.75 21L2.75 4C2.75 3.03351 3.5335 2.25 4.5 2.25L12.5 2.25C13.4665 2.25 14.25 3.0335 14.25 4L14.25 4.64283C14.25 5.05704 13.9142 5.39283 13.5 5.39283C13.0858 5.39283 12.75 5.05704 12.75 4.64283L12.75 4C12.75 3.86193 12.6381 3.75 12.5 3.75L4.5 3.75C4.36193 3.75 4.25 3.86193 4.25 4L4.25 21C4.25 21.1381 4.36193 21.25 4.5 21.25Z" fill="white"/>
</svg>
