<svg width="24" height="24" viewBox="0 0 24 24" fill="none" xmlns="http://www.w3.org/2000/svg">
<path d="M3 12V7.5C3 7.30109 3.07902 7.11032 3.21967 6.96967C3.36032 6.82902 3.55109 6.75 3.75 6.75H20.25C20.4489 6.75 20.6397 6.82902 20.7803 6.96967C20.921 7.11032 21 7.30109 21 7.5V20.4C21 20.5989 20.921 20.7897 20.7803 20.9303C20.6397 21.071 20.4489 21.15 20.25 21.15H10.995" stroke="#8E97FD" stroke-linecap="round"/>
<path d="M3.8999 6.75008L18.4349 2.88008C18.6656 2.82032 18.9105 2.85368 19.1168 2.97296C19.323 3.09223 19.4741 3.28785 19.5374 3.51758L20.3474 6.75008" stroke="#8E97FD" stroke-linecap="round"/>
<path d="M20.9998 12.8628H17.3998C17.1611 12.8628 16.9322 12.9576 16.7634 13.1264C16.5946 13.2952 16.4998 13.5241 16.4998 13.7628V15.5628C16.4947 15.6841 16.5143 15.8052 16.5572 15.9187C16.6002 16.0323 16.6657 16.136 16.7498 16.2236C16.8339 16.3112 16.9348 16.3808 17.0465 16.4284C17.1582 16.4759 17.2784 16.5004 17.3998 16.5003H20.9998" stroke="#8E97FD" stroke-linecap="round"/>
<path d="M18.375 14.6626H19.275" stroke="#8E97FD" stroke-linecap="round"/>
<path d="M5.2124 17.6626C6.24794 17.6626 7.0874 16.8231 7.0874 15.7876C7.0874 14.7521 6.24794 13.9126 5.2124 13.9126C4.17687 13.9126 3.3374 14.7521 3.3374 15.7876C3.3374 16.8231 4.17687 17.6626 5.2124 17.6626Z" stroke="#8E97FD" stroke-linecap="round" stroke-linejoin="round"/>
<path d="M5.25 17.6626C4.35489 17.6626 3.49645 18.0182 2.86351 18.6511C2.23058 19.2841 1.875 20.1425 1.875 21.0376V21.7501C1.875 21.8695 1.92241 21.9839 2.0068 22.0683C2.09119 22.1527 2.20565 22.2001 2.325 22.2001H8.175C8.29435 22.2001 8.40881 22.1527 8.4932 22.0683C8.57759 21.9839 8.625 21.8695 8.625 21.7501V21.0751C8.63097 20.6285 8.54803 20.1851 8.381 19.7709C8.21397 19.3566 7.9662 18.9797 7.6521 18.6621C7.33801 18.3445 6.96387 18.0926 6.55148 17.921C6.13908 17.7494 5.69667 17.6616 5.25 17.6626V17.6626Z" stroke="#8E97FD" stroke-linecap="round" stroke-linejoin="round"/>
</svg>
