<svg width="24" height="24" viewBox="0 0 24 24" fill="none" xmlns="http://www.w3.org/2000/svg">
<path fill-rule="evenodd" clip-rule="evenodd" d="M12 3.99993C11.245 3.99999 10.5096 4.24036 9.90034 4.68623C9.29105 5.13209 8.83949 5.76032 8.61103 6.47993L7.81103 8.99993H16.189L15.389 6.47993C15.1606 5.76032 14.709 5.13209 14.0997 4.68623C13.4904 4.24036 12.755 3.99999 12 3.99993ZM18.287 8.99993L17.295 5.87493C16.9383 4.7504 16.2329 3.76864 15.2809 3.07187C14.3289 2.3751 13.1798 1.99951 12 1.99951C10.8203 1.99951 9.67118 2.3751 8.71918 3.07187C7.76718 3.76864 7.06173 4.7504 6.70503 5.87493L5.71303 8.99993H3.34803C3.03578 8.99994 2.72787 9.07306 2.44896 9.21343C2.17004 9.35381 1.92787 9.55754 1.74183 9.80831C1.55579 10.0591 1.43105 10.3499 1.3776 10.6576C1.32415 10.9652 1.34348 11.2811 1.43403 11.5799L2.55803 15.2899L3.94603 19.8699C4.13272 20.486 4.51262 21.0257 5.02962 21.4093C5.54662 21.7928 6.17329 21.9999 6.81703 21.9999H17.183C17.8266 21.9997 18.453 21.7925 18.9698 21.409C19.4866 21.0254 19.8664 20.4858 20.053 19.8699L21.442 15.2899L22.566 11.5799C22.6566 11.2811 22.6759 10.9652 22.6225 10.6576C22.569 10.3499 22.4443 10.0591 22.2582 9.80831C22.0722 9.55754 21.83 9.35381 21.5511 9.21343C21.2722 9.07306 20.9643 8.99994 20.652 8.99993H18.287ZM6.44403 10.9999H3.34803L4.25703 13.9999H8.03703L7.62703 10.9999H6.44403ZM9.64603 10.9999L10.055 13.9999H13.945L14.355 10.9999H9.64503H9.64603ZM16.373 10.9999L15.963 13.9999H19.743L20.652 10.9999H16.373ZM19.137 15.9999H15.69L15.145 19.9999H17.182C17.3966 19.9999 17.6055 19.9309 17.7778 19.803C17.9502 19.6752 18.0768 19.4953 18.139 19.2899L19.136 15.9999H19.137ZM13.127 19.9999L13.672 15.9999H10.327L10.873 19.9999H13.127ZM8.85403 19.9999L8.30903 15.9999H4.86303L5.86003 19.2899C5.92226 19.4953 6.04889 19.6752 6.22123 19.803C6.39356 19.9309 6.60245 19.9999 6.81703 19.9999H8.85403Z" fill="#A1A4B2"/>
</svg>
