<svg width="40" height="51" viewBox="0 0 40 51" fill="none" xmlns="http://www.w3.org/2000/svg">
<path d="M19.8639 0.817871C13.0357 0.817871 7.50027 6.27418 7.50027 13.0049C7.50027 19.7356 13.0357 25.1919 19.8639 25.1919C26.6921 25.1919 32.2275 19.7356 32.2275 13.0049C32.2275 6.27418 26.6921 0.817871 19.8639 0.817871Z" fill="#8E97FD"/>
<path d="M27.1601 30.6138C22.3266 29.8534 17.4012 29.8534 12.5677 30.6138L12.0496 30.6953C5.23895 31.7667 0.227539 37.5574 0.227539 44.3557C0.227539 48.0251 3.24526 50.9997 6.96781 50.9997H32.76C36.4825 50.9997 39.5003 48.0251 39.5003 44.3557C39.5003 37.5574 34.4889 31.7667 27.6782 30.6953L27.1601 30.6138Z" fill="#8E97FD"/>
</svg>
