<svg width="72" height="72" viewBox="0 0 72 72" fill="none" xmlns="http://www.w3.org/2000/svg">
<mask id="mask0_2211_2190" style="mask-type:alpha" maskUnits="userSpaceOnUse" x="0" y="0" width="72" height="72">
<circle cx="36" cy="36" r="36" fill="black"/>
</mask>
<g mask="url(#mask0_2211_2190)">
<path d="M72 36C72 55.8823 55.8823 72 36 72C16.1178 72 0 55.8823 0 36C0 16.1178 16.1178 0 36 0C55.8823 0 72 16.1178 72 36Z" fill="#E0E2EE"/>
<path d="M35.8639 21.8179C29.0357 21.8179 23.5003 27.2742 23.5003 34.0049C23.5003 40.7356 29.0357 46.1919 35.8639 46.1919C42.6921 46.1919 48.2275 40.7356 48.2275 34.0049C48.2275 27.2742 42.6921 21.8179 35.8639 21.8179Z" fill="#8E97FD"/>
<path d="M43.1601 51.6138C38.3266 50.8534 33.4012 50.8534 28.5677 51.6138L28.0496 51.6953C21.2389 52.7667 16.2275 58.5574 16.2275 65.3557C16.2275 69.0251 19.2453 71.9997 22.9678 71.9997H48.76C52.4825 71.9997 55.5003 69.0251 55.5003 65.3557C55.5003 58.5574 50.4888 52.7667 43.6782 51.6953L43.1601 51.6138Z" fill="#8E97FD"/>
</g>
</svg>
