<svg width="144" height="148" viewBox="0 0 144 148" fill="none" xmlns="http://www.w3.org/2000/svg">
<path d="M8.59499 68.6118C8.12981 63.2307 8.40032 57.8114 9.39907 52.5034C9.7542 50.597 7.96178 52.0276 7.51953 51.3375C7.96513 50.6406 8.6888 50.7947 9.32871 50.7847C11.4428 50.7545 13.5669 50.8785 15.6709 50.7444C17.6141 50.6171 19.0212 51.3375 20.0531 52.8987C20.337 53.3092 20.6553 53.6948 21.0046 54.0512C21.2257 54.2992 21.3698 54.6107 21.6144 54.9324C21.7182 54.4566 21.5139 54.1316 21.4502 53.7832C21.3859 53.5453 21.3444 53.3019 21.3263 53.0562C21.3263 52.4464 21.2626 51.8333 21.5809 51.2772C21.7455 51.0793 21.9701 50.9404 22.2208 50.8818C24.8173 50.2989 26.201 48.9353 26.6332 46.5264C26.526 44.5162 26.9682 42.506 26.2144 40.546C25.2931 38.3114 23.8692 36.6664 21.3196 36.2945C19.6611 35.343 17.6342 36.0767 15.9791 35.1755C16.4113 33.5003 17.3193 32.0362 18.1535 30.5419C18.6594 29.6474 19.4735 29.4363 20.4049 29.4397C21.9662 28.4781 23.5777 29.3057 25.1155 29.4397C28.8234 29.739 32.5002 30.3453 36.1079 31.2522C36.9202 31.4405 37.6995 31.75 38.4197 32.1702C39.2807 32.7431 39.6291 33.6209 39.8402 34.5791C39.8871 35.3865 40.1116 36.2308 39.398 36.8908C38.5637 36.2442 38.0042 36.1336 37.6323 37.4235C36.9623 39.8157 35.9069 42.0972 35.0827 44.4592C34.7477 45.4442 34.9085 46.0473 35.9572 46.3488C36.8852 46.6168 37.5285 47.1663 37.5218 48.2317C37.2135 50.5032 36.5167 52.6877 35.9471 54.8922C35.6791 55.914 35.3843 56.9325 35.143 57.9644C34.7745 59.5257 34.5534 61.097 35.9706 62.2897C37.5017 63.5796 39.274 63.6533 40.9961 62.8358C44.7283 61.0668 47.6967 58.4804 49.3116 54.5538C50.3167 52.1549 51.5731 49.9571 53.4761 48.1647C53.6436 47.9905 53.8111 47.8297 53.9987 47.6554C55.8313 45.595 58.2201 44.3051 60.5453 42.9114C61.3627 42.4993 62.1802 42.0805 63.0111 41.6952C63.5371 41.4506 64.0765 41.0955 64.6695 41.5545C64.8461 41.7718 64.9388 42.0452 64.9308 42.3251C64.6561 44.3353 65.6009 45.8161 67.0282 47.0758C67.5207 48.2283 66.8841 49.2335 66.5156 50.2386C65.9694 51.7764 66.0968 52.041 67.7552 52.6575C69.2293 53.2069 69.5543 53.0629 70.144 51.5954C70.5326 50.6238 70.7169 49.5517 71.5042 48.7678C71.7259 48.6528 71.9759 48.604 72.2245 48.627C73.0969 48.8457 74.0118 48.8272 74.8746 48.5734C77.8229 48.0039 80.5367 47.0122 82.6642 44.7206C83.9306 43.357 84.4197 41.98 83.686 40.1742C83.4113 39.5041 82.6809 38.7235 83.5252 37.9127C85.5354 37.4001 87.5087 37.7887 89.4888 38.0433C96.3402 38.9245 102.89 40.7236 108.894 44.2783C109.349 44.4895 109.776 44.755 110.167 45.069C112.375 47.2467 115.075 47.5013 118.017 47.4142C123.686 47.2735 129.364 47.364 135.04 47.3841C135.857 47.3841 136.715 47.2233 137.422 47.8665C137.447 47.9065 137.464 47.9511 137.472 47.9977C137.48 48.0443 137.479 48.0921 137.468 48.1382C137.458 48.1842 137.438 48.2278 137.411 48.2663C137.383 48.3047 137.348 48.3374 137.308 48.3624C136.534 48.7912 135.687 48.6706 134.862 48.6739C128.869 48.6739 122.875 48.6739 116.881 48.6739C116.338 48.6739 115.779 48.5466 115.152 48.8448C115.662 50.0409 117.015 50.5702 117.447 51.7764C115.903 53.4515 116.965 55.1267 117.504 56.7583C118.044 58.3899 118.767 59.9713 119.213 61.6364C119.548 62.8727 120.178 63.0703 121.3 62.5745C122.168 62.1925 123.073 61.9212 123.709 61.1573C123.88 61.1338 124.084 61.1338 124.178 61.2611C126.58 64.5043 130.108 66.6585 132.514 69.8916C135.278 73.6038 136.625 77.8788 137.435 82.3649C137.518 82.7502 137.462 83.1524 137.278 83.5007C136.692 83.3392 136.075 83.3344 135.487 83.4867C134.899 83.639 134.361 83.943 133.928 84.3684C133.194 85.0385 133.057 85.4941 133.646 86.3049C134.815 87.9231 135.864 89.6251 136.997 91.2667C137.526 92.0306 137.931 92.8682 138.461 93.6287C138.983 94.9421 138.95 96.3592 139.01 97.7161C139.259 103.102 139.167 108.497 138.735 113.871C138.748 114.208 138.628 114.535 138.4 114.783C134.222 116.458 130.004 117.222 125.625 115.503C123.917 114.833 123.826 114.873 123.86 116.602C123.893 118.331 123.16 119.282 121.605 119.879C118.493 121.044 115.27 121.969 112.485 123.899C112.149 124.104 111.76 124.205 111.366 124.19C107.621 124.026 103.882 123.963 100.15 124.412C99.5437 124.447 98.9362 124.447 98.3303 124.412C94.6852 124.335 91.0567 124.921 87.4082 124.747C85.9173 124.991 84.3929 124.723 82.9121 125.038C81.2537 125.112 79.5919 125.078 77.9335 125.072C77.2634 124.911 77.0021 124.368 76.7542 123.809C76.0841 122.257 75.2499 120.773 74.5195 119.245C73.6384 117.044 72.5462 114.937 71.6282 112.756C71.33 112.046 70.6767 111.325 71.3836 110.484C72.114 110.149 72.908 110.297 73.6685 110.206C74.9584 110.049 75.1728 109.516 75.1226 107.583C75.0924 106.363 74.3821 106.474 73.5714 106.474C72.191 106.474 70.8073 106.595 69.4303 106.38C68.6028 106.162 68.4051 105.412 68.117 104.765C65.2659 98.3527 62.4482 91.9268 59.768 85.4405C58.7863 83.0651 58.7629 83.0953 56.8197 84.6599C52.1493 88.4156 46.7955 90.6034 40.9056 91.5448C40.5781 91.6236 40.2344 91.6003 39.9206 91.4778C39.3376 90.6603 40.0111 90.1377 40.4232 89.6083C41.0731 88.7942 40.8989 88.3117 40.0881 87.7254C38.1349 86.3149 38.1282 86.2714 36.7177 88.1811C36.1314 88.9751 35.458 89.7155 34.9923 90.6101C35.6087 91.1026 36.2687 90.7876 36.8316 90.9853C37.1666 91.1026 37.696 91.0892 37.3945 91.7123C36.7244 92.2316 35.9069 92.1646 35.1464 92.1144C32.3254 91.92 29.4977 91.7793 26.7404 91.0523C26.4054 90.9719 26.0703 90.8144 25.7185 90.7642C21.3966 89.8093 17.594 87.9131 14.5921 84.5795C14.0024 83.9094 13.3558 83.2996 13.2519 82.3548C13.6506 81.2023 14.1431 80.0833 14.4715 78.9074C14.639 78.3043 15.1884 77.5136 14.3274 77.1484C13.3759 76.743 12.4546 75.7781 11.2552 76.5353C10.9905 76.7028 10.8364 77.0714 10.4243 76.9642C8.96017 74.3945 8.1829 71.6304 8.59499 68.6118Z" fill="#D3DCFF"/>
<path d="M137.446 48.198C136.93 47.6854 136.286 47.9601 135.713 47.9601C128.644 47.9378 121.577 47.9378 114.513 47.9601C113.789 47.9601 113.132 47.94 112.502 47.4274C105.715 41.9898 97.7475 39.6044 89.2979 38.5122C87.315 38.2231 85.3103 38.111 83.3075 38.1771C82.6877 37.7483 82.5403 37.0648 82.5503 36.4115C82.5705 35.1216 81.9004 34.7363 80.7378 34.5286C78.8449 34.1936 77.2535 33.3728 76.7174 31.2955C76.8581 30.4781 77.488 30.6824 78.0274 30.6657C79.0042 30.6306 79.9425 30.2759 80.6984 29.6562C81.4543 29.0365 81.986 28.1859 82.212 27.2349C82.6442 25.3655 81.7898 24.3 79.8969 24.3738C79.4044 24.3905 78.8918 24.5748 78.4764 24.1493C78.2619 22.836 79.3206 22.1726 79.9806 21.3451C81.3744 19.5928 81.1801 18.6815 79.0493 17.9679C77.4032 17.4622 75.6887 17.2147 73.9668 17.2342C70.5528 17.1705 67.4001 16.2458 64.6495 14.1485C63.8923 13.5689 63.1519 12.9525 63.4166 11.8033L72.2414 0.318359C72.6267 2.30176 72.9885 3.91327 73.2465 5.54153C73.3939 6.50977 73.6619 6.90846 74.7374 6.57343C76.111 6.14459 77.5751 5.99047 78.9387 5.54153C80.3023 5.09258 81.093 5.32041 81.7161 6.7778C82.6509 8.96222 83.8838 11.0193 84.9927 13.1434C86.0081 13.4218 87.0785 13.4311 88.0985 13.1702C88.8047 13.0181 89.5291 12.9685 90.2494 13.0228C91.7135 13.1166 92.0955 13.5689 92.0117 15.033C91.9916 15.4217 91.9011 15.8036 91.8576 16.1889C91.5996 18.5911 91.6767 18.6748 94.0889 18.5743C94.5345 18.5576 95.0303 18.4738 95.3218 18.8792C95.6736 19.3684 95.362 19.8441 95.104 20.2662C94.635 21.0268 94.1392 21.7705 93.2714 22.1458L88.6915 28.1261C89.2276 28.5818 89.8675 28.3472 90.4538 28.3506C105.763 28.364 121.069 28.364 136.373 28.3506C138.276 28.3506 138.28 28.3506 138.28 30.2167C138.28 48.9183 138.272 67.6199 138.256 86.3214C138.256 86.9044 138.689 87.6783 137.838 88.0904C137.017 87.226 137.013 86.1237 137.191 85.1019C137.442 83.6546 137.338 82.2307 137.332 80.7867C137.295 70.3738 137.312 59.9576 137.312 49.5415C137.296 49.0896 137.341 48.6378 137.446 48.198Z" fill="#03174C"/>
<path d="M63.4196 11.8035C64.1667 13.75 65.8955 14.5976 67.6008 15.3883C69.8403 16.3896 72.2744 16.8806 74.727 16.8256C76.5127 16.8256 78.2884 17.0266 79.9301 17.7805C81.7727 18.6314 81.9805 19.7572 80.6571 21.2615C79.8563 22.1727 79.002 23.0505 78.5229 24.1964C78.5557 24.332 78.5558 24.4736 78.5232 24.6093C78.4906 24.745 78.4262 24.871 78.3353 24.977C76.707 26.5081 76.3988 28.3675 76.8913 30.4514C76.9382 30.6591 76.8008 30.8803 76.8209 31.1047C77.6887 33.1149 79.3237 34.0162 81.3875 34.2004C82.4964 34.301 83.1095 34.5824 82.9722 35.8756C82.8951 36.616 83.1832 37.3933 83.3072 38.1572C83.4177 38.4118 83.5317 38.6631 83.6422 38.9177C85.0728 42.4959 84.5502 44.2213 81.374 46.5029C79.4545 47.8326 77.2305 48.6565 74.9079 48.8984C74.0306 49.1319 73.1083 49.1388 72.2276 48.9185H71.5576C69.6814 49.23 68.1302 48.6236 66.8504 47.2433C64.3812 46.0305 64.3309 43.8226 64.5051 41.5243C64.0662 40.3885 64.4314 39.236 64.5051 38.1069C64.5822 37.0851 64.2337 36.6194 63.3225 36.2609C61.5803 35.5908 59.818 34.9208 58.1998 33.9592C56.7591 33.0044 55.6234 31.8284 55.3654 30.0293C55.2448 29.1816 54.6752 28.9706 53.9348 28.9672C49.8206 28.9538 45.7053 28.9538 41.5888 28.9672C41.1384 28.9331 40.6904 29.0584 40.3229 29.3211C39.9555 29.5838 39.692 29.9673 39.5786 30.4045C39.3609 31.021 39.2939 31.7245 38.7344 32.1835C38.6316 32.2281 38.518 32.2414 38.4078 32.2217C38.2975 32.202 38.1955 32.1503 38.1145 32.073C35.7023 29.6138 32.3922 30.0125 29.4037 29.3927C28.6633 29.2419 27.886 29.1515 27.1288 28.9873C26.1237 28.7696 25.065 28.3575 24.1872 29.3827C24.1269 29.4618 24.048 29.5249 23.9576 29.5663C23.8672 29.6078 23.7679 29.6264 23.6686 29.6204C23.5693 29.6144 23.4729 29.5841 23.3881 29.5322C23.3033 29.4802 23.2325 29.4081 23.1821 29.3224C22.6762 28.6523 22.0698 28.2436 21.2088 28.2637C21.0942 28.2663 20.9802 28.2458 20.8737 28.2033C20.7173 28.1384 20.5913 28.0165 20.521 27.8624C20.4508 27.7082 20.4415 27.5332 20.4951 27.3725C21.0211 26.0323 18.438 25.0272 20.0864 23.6201C20.8536 22.95 21.0144 21.9885 21.4835 21.1777C23.4367 17.8274 25.4838 14.5206 27.0584 10.9592C27.6246 9.68271 27.8826 8.29902 28.5091 7.04934C29.4204 5.23681 30.2245 5.1095 31.7891 6.55349C31.0252 7.72611 30.8108 9.10645 30.1575 10.728C30.8845 9.19691 30.9917 7.83667 31.7389 6.72436C32.1436 6.54108 32.5022 6.26968 32.7886 5.93C33.0749 5.59032 33.2817 5.19094 33.3939 4.76107C33.8228 3.38073 34.6872 2.58335 36.2685 2.97869C36.5958 3.06682 36.9353 3.10077 37.2736 3.0792C38.4931 2.97869 38.7377 3.13615 39.5485 4.21831C40.1951 5.0894 41.0226 5.1296 41.8602 4.45283C42.2522 4.1379 42.5973 3.78277 43.1668 3.83973C44.0915 3.93688 44.6879 4.92188 44.0312 5.48139C42.614 6.68751 42.7615 8.38278 42.3728 9.89043C41.9272 11.6091 41.3007 13.3714 42.1249 15.1706C42.1426 15.217 42.1454 15.2678 42.1328 15.3159C42.1202 15.3639 42.0928 15.4069 42.0545 15.4386C41.9889 15.5937 41.8879 15.7314 41.7597 15.8406C40.4196 16.8156 40.2722 17.8877 41.3275 19.1373C41.7195 19.5997 42.1148 19.4891 42.5068 19.2412C43.2305 18.7822 44.0748 18.6683 44.8521 18.3601C45.2742 18.1926 45.7667 18.0552 46.0917 18.4639C46.4971 18.9665 46.1151 19.4087 45.7969 19.8041C44.3797 21.5228 42.7816 23.0941 41.2806 24.7257C40.3995 25.6772 40.0075 26.6354 40.2219 27.8784C40.691 28.3307 41.2773 28.1263 41.81 28.1296C45.9242 28.1464 50.035 28.1028 54.1459 28.1598C55.2615 28.1765 55.8211 28.0392 55.8881 26.7024C55.9886 25.0964 56.4185 23.5283 57.1511 22.0957C57.3488 22.1856 57.5354 22.298 57.7073 22.4307C58.106 22.6786 58.5918 22.8395 58.833 22.347C59.1345 21.7339 58.642 21.4859 58.1261 21.362C57.9115 21.3339 57.7045 21.2645 57.5163 21.1576C57.759 20.1996 58.1907 19.2997 58.7861 18.5108C58.9453 18.553 59.0937 18.6283 59.2216 18.732C59.6136 19.0301 60.086 19.4757 60.4613 18.8593C60.8365 18.2428 60.2267 18.0116 59.7912 17.7637C59.6476 17.6893 59.5306 17.5722 59.4562 17.4287C59.4729 16.5073 60.8398 16.0249 60.2703 14.9159C60.8331 14.2995 61.2117 15.0198 61.6808 15.0834C61.5401 14.7484 60.8332 14.8724 60.9806 14.276C62.1398 13.7701 62.4279 12.4367 63.4196 11.8035Z" fill="#B24949"/>
<path d="M111.725 123.829C114.657 121.872 117.94 120.676 121.247 119.584C122.965 119.021 123.719 118.083 123.461 116.291C123.415 115.598 123.415 114.903 123.461 114.21C124.56 114.632 125.528 115.024 126.51 115.379C129.572 116.485 132.618 116.106 135.667 115.289C136.564 115.048 137.446 114.619 138.421 114.82C138.407 116.359 138.393 117.895 138.377 119.43C138.273 120.375 138.159 121.319 138.116 122.271C138.089 122.8 138.213 123.363 137.761 123.792C137.616 124.268 137.426 124.733 137.335 125.216C136.665 128.389 135.395 131.099 132.829 133.33C128.939 136.711 126.641 141.452 123.294 145.325C122.624 146.092 121.954 146.789 120.975 147.174C119.27 147.844 118.486 147.308 118.711 145.499C118.831 144.53 119.129 143.579 119.005 142.333C118.288 143.153 117.608 144.008 116.841 144.782C116.241 145.388 115.464 145.921 114.603 145.452C113.688 144.959 114.033 143.991 114.07 143.18C114.097 142.651 114.543 142.175 114.231 141.505C112.891 142.034 111.749 143.82 110.211 142.792C108.921 141.921 109.839 140.336 109.933 139.006C109.105 139.006 108.392 140.064 107.634 139.297C106.964 138.607 107.132 137.672 107.232 136.768C107.507 134.305 108.794 132.275 109.913 130.168C110.221 129.591 110.536 129.015 110.938 128.271C110.532 128.342 110.328 128.392 110.12 128.412C109.688 128.456 109.165 128.667 108.881 128.224C108.546 127.725 109.005 127.296 109.216 126.857C109.624 126.017 110.609 125.561 110.75 124.542C110.884 124.053 111.457 124.147 111.725 123.829Z" fill="#B24949"/>
<path d="M28.7704 4.08755C29.4405 2.93838 30.0636 1.77917 30.7504 0.646758C31.0151 0.214565 31.4205 -0.160673 31.9934 0.0705001C32.4792 0.26817 32.4424 0.78077 32.4692 1.22636C32.5395 2.32862 32.3151 3.40408 32.2547 4.51304C32.8109 3.44763 33.3235 2.35543 33.9299 1.32017C34.2817 0.723814 34.6435 -0.0903174 35.5213 0.0872503C36.4963 0.28492 36.4494 1.19621 36.5264 1.96344C36.5465 2.16446 36.5666 2.36213 36.6135 2.83453C37.2132 2.16446 37.6186 1.67531 38.0743 1.22636C38.5299 0.777419 38.9454 0.261468 39.6322 0.459137C40.319 0.656807 40.4195 1.33022 40.5267 1.92993C40.6105 2.41573 40.6339 2.91158 40.6909 3.46774C41.7831 2.91158 42.2555 0.17436 44.1384 2.42578C44.7716 6.87838 43.8033 11.0864 42.1751 15.1906C40.1649 13.636 41.84 11.8402 41.897 10.1651C41.9473 9.0896 42.4733 8.04764 42.5202 6.92528C42.5378 6.64532 42.6321 6.37561 42.7929 6.14572C42.9536 5.91583 43.1746 5.73464 43.4315 5.622C43.8737 5.39083 44.4533 5.09265 43.8636 4.52979C43.4884 4.17131 42.8351 3.77262 42.4766 4.52979C41.9205 5.69571 40.9489 5.61865 40.0811 5.31377C39.076 4.95529 38.5366 4.0976 38.8515 2.80437C38.2451 3.74581 37.5717 3.77932 36.6504 3.49119C35.0891 3.00204 34.0706 3.52469 33.7155 5.29702C33.5379 6.17146 33.2766 7.43453 31.7622 6.78122C29.6415 5.58515 29.541 5.65551 28.7469 7.87008C27.8022 10.4565 26.5357 12.8956 25.3799 15.3916C24.1369 18.0718 21.8687 20.1792 21.2288 23.1509C21.1283 23.6133 20.7061 23.821 20.3075 24.0555C19.758 24.3504 19.5034 24.7692 20.1567 25.1645C21.2757 25.8346 21.1618 26.7593 20.6492 27.9486C22.0865 27.7074 23.2758 27.7811 23.6243 29.7578C24.6294 27.3791 26.2744 28.2569 27.5475 28.6656C28.958 29.1179 30.3953 29.0006 31.7991 29.2452C33.4743 29.5434 35.0791 30.1263 36.7911 30.2838C37.7158 30.3676 37.9503 31.5301 38.4864 32.2169C38.5068 32.2392 38.5222 32.2657 38.5313 32.2945C38.5405 32.3233 38.5432 32.3538 38.5394 32.3838C38.5356 32.4137 38.5253 32.4425 38.5092 32.4681C38.493 32.4937 38.4715 32.5155 38.4462 32.5319C32.6032 30.5217 26.4922 30.0627 20.4113 29.4429C20.4113 28.8432 20.6257 28.2401 20.2974 27.6504C18.7362 24.8295 19.433 22.233 21.0278 19.6766C24.0524 14.7127 26.6428 9.497 28.7704 4.08755Z" fill="#B24949"/>
<path d="M24.479 121.54L24.7705 117.768C25.186 115.62 24.6901 113.432 25.0385 111.281C25.0676 109.993 25.1 108.705 25.1357 107.418C25.856 107.529 25.779 108.122 25.8694 108.618C25.9331 111.332 25.8393 114.049 25.9264 116.763C25.98 118.756 25.8091 120.753 25.9264 122.746C25.9636 123.305 25.9502 123.865 25.8862 124.421C25.7522 126.214 25.7991 126.308 27.6618 126.281C35.3911 126.164 43.1136 125.775 50.8328 125.349C53.8313 125.185 56.8366 125.199 59.8385 125.031C65.1119 124.74 70.3987 124.696 75.6688 124.318C76.3401 124.263 77.0112 124.424 77.5852 124.777L82.882 124.756C84.2858 124.495 85.703 124.703 87.1102 124.636C87.5122 124.777 88.1756 124.281 88.2828 125.122L87.0364 125.185C85.6796 125.497 84.2858 125.088 82.9323 125.413L40.8622 127.155C35.8534 127.363 30.8447 127.547 25.8393 127.825C24.6465 127.889 24.2881 127.574 24.3852 126.381C24.5092 124.77 24.4556 123.152 24.479 121.54Z" fill="#070707"/>
<path d="M137.445 48.1982C137.781 48.6472 137.63 49.1665 137.63 49.6523C137.63 61.5929 137.62 73.5357 137.6 85.4808C137.6 86.3083 137.747 87.1358 137.827 87.9633C138.37 89.0388 138.099 90.2483 138.38 91.3673C138.409 92.1356 138.438 92.9029 138.467 93.669C137.777 93.7092 137.703 93.0659 137.439 92.6806C135.908 90.456 134.407 88.2146 132.899 85.9799C132.752 85.7588 132.48 85.407 132.564 85.2931C133.274 84.1239 134.501 83.5409 135.579 82.8306C136.417 82.2812 136.615 83.3566 137.124 83.6649C137.533 82.8507 137.191 82.0299 137.104 81.2225C136.769 77.9459 136.93 74.6592 136.916 71.3792C136.889 64.5311 136.889 57.683 136.916 50.835C136.916 49.9572 136.769 49.0392 137.362 48.2552L137.445 48.1982Z" fill="white"/>
<path d="M40.269 27.8882C39.4616 26.8429 39.5989 25.9249 40.5102 24.9734C42.2725 23.1542 43.9711 21.2713 45.6965 19.4152C45.8808 19.2142 46.1421 18.9897 45.9713 18.7083C45.8976 18.5844 45.4922 18.4872 45.4151 18.5643C44.6244 19.3315 43.4049 18.983 42.564 19.7804C41.8236 20.4806 41.0061 20.2863 40.8084 19.0769C40.804 18.91 40.7838 18.744 40.7481 18.581C39.867 16.2358 39.867 16.2358 42.0882 15.4585L41.2976 18.2828C42.889 17.73 44.2525 17.2074 45.653 16.7953C46.4638 16.5541 47.4153 16.0012 48.1289 16.8857C48.9129 17.8506 48.2763 18.8021 47.7938 19.6565C47.0936 20.876 45.9579 21.7337 45.0164 22.7522C43.4395 24.4675 41.8571 26.1796 40.269 27.8882Z" fill="#B24949"/>
<path d="M138.38 91.3669C137.909 90.2978 137.719 89.1262 137.828 87.963C138.357 87.2761 138.163 86.4587 138.163 85.7082C138.179 67.1574 138.163 48.6066 138.21 30.0524C138.21 28.6352 137.687 28.4376 136.467 28.4376C121.147 28.4711 105.828 28.4711 90.5076 28.4376C89.9012 28.4376 89.1674 28.7726 88.6816 28.1025L128.939 28.1461C131.556 28.1461 134.176 28.2332 136.789 28.1126C138.24 28.0456 138.699 28.5615 138.464 29.9017C138.456 30.0132 138.456 30.1252 138.464 30.2367C138.464 49.5614 138.464 68.8817 138.464 88.1975C138.468 89.2528 138.411 90.3082 138.38 91.3669Z" fill="#6E6857"/>
<path d="M88.2927 125.115C88.0482 124.726 87.6227 124.813 87.2876 124.78C87.1871 124.713 87.1603 124.652 87.2005 124.599C87.2126 124.579 87.2292 124.562 87.2489 124.549C87.2687 124.536 87.2911 124.528 87.3144 124.525C90.9998 124.411 94.6617 124.036 98.3471 124.157C99.2684 124.428 100.196 124.314 101.128 124.224C101.825 124.157 102.562 123.915 103.158 124.535C98.1896 124.927 93.2378 125.101 88.2927 125.115Z" fill="#212018"/>
<path d="M103.131 124.522C101.54 124.231 99.8782 124.834 98.3203 124.143C102.778 123.787 107.252 123.682 111.722 123.829C111.658 124.418 111.186 124.458 110.75 124.552L103.131 124.522Z" fill="#1F1D16"/>
<path d="M57.5164 21.1374C58.3172 20.6416 58.9939 20.7689 59.396 21.6299C59.6841 22.2497 59.5534 22.8662 58.8264 23.0739C57.9821 23.3152 57.3087 23.0907 57.1512 22.0688C57.1417 21.8965 57.1694 21.7241 57.2324 21.5634C57.2954 21.4027 57.3923 21.2574 57.5164 21.1374Z" fill="#9E1D1E"/>
<path d="M59.4799 17.4053C59.9557 17.4756 60.485 17.3483 60.8536 17.8174C61.0095 17.9765 61.1105 18.1813 61.1418 18.4019C61.1732 18.6225 61.1332 18.8473 61.0278 19.0436C60.9388 19.2493 60.7899 19.4233 60.6004 19.5428C60.4108 19.6624 60.1896 19.7219 59.9657 19.7137C59.2387 19.6567 58.9606 19.1206 58.7998 18.5042C58.8348 18.2851 58.9129 18.0751 59.0296 17.8865C59.1464 17.6979 59.2994 17.5343 59.4799 17.4053Z" fill="#160D0D"/>
<path d="M60.9907 14.2424C61.5669 14.7282 63.0478 14.7215 62.6457 15.5825C62.3107 16.3129 61.4262 15.1637 60.7461 14.9593C60.5913 14.923 60.4348 14.8951 60.277 14.8756C59.9085 14.6779 58.9704 15.0632 59.1915 14.4132C59.4797 13.6092 60.3574 14.162 60.9907 14.2424Z" fill="#1C1414"/>
<path d="M137.834 122.154C137.867 121.224 138.046 120.305 138.363 119.43C138.253 120.864 138.893 122.341 138.092 123.732C137.747 123.249 138.115 122.649 137.834 122.154Z" fill="#4E4142"/>
<path d="M82.9321 125.407C84.2723 124.874 85.6593 125.088 87.0363 125.179C85.6794 125.521 84.3024 125.46 82.9321 125.407Z" fill="#39372B"/>
<path d="M137.834 122.153C138.313 122.616 138.045 123.199 138.092 123.731L137.757 123.792C137.777 123.246 137.804 122.699 137.834 122.153Z" fill="#291F1F"/>
<path d="M137.355 48.2484C137.355 59.7959 137.355 71.3422 137.355 82.8875C137.355 83.1287 137.613 83.5576 137.104 83.6581C136.256 76.8837 133.971 70.833 128.456 66.3938C126.624 64.9197 125.237 63.0267 123.719 61.2577C122.935 60.9629 122.597 60.2292 122.164 59.6161C120.643 57.4618 119.283 55.197 117.595 53.16C117.476 53.0453 117.385 52.9043 117.331 52.7484C117.276 52.5925 117.258 52.426 117.28 52.2621C116.385 50.788 114.908 49.8197 113.718 48.2417L137.355 48.2484Z" fill="#FEFEFE"/>
<path d="M25.4439 122.773C25.8493 122.438 25.742 121.969 25.7554 121.534C25.8359 119.115 25.8325 119.115 28.3319 119.115H74.8646C75.7759 120.995 76.6783 122.881 77.5717 124.77C67.074 125.217 56.5673 125.664 46.0518 126.11C39.6593 126.382 33.2635 126.596 26.8711 126.928C25.4807 127.001 24.9313 126.7 25.2227 125.253C25.3451 124.431 25.4189 123.603 25.4439 122.773Z" fill="#FEFEFE"/>
<path d="M38.4395 32.5217C38.4718 32.4766 38.4923 32.4243 38.4993 32.3693C38.5063 32.3143 38.4996 32.2585 38.4797 32.2068C39.9405 28.4142 39.9405 28.4142 44.1385 28.4142C47.462 28.4142 50.7889 28.4443 54.1124 28.3941C55.2013 28.3773 55.8847 28.4778 55.868 29.8515C55.8412 31.7377 57.3488 32.7026 58.5817 33.7982C58.7292 34.2605 58.3606 34.5017 58.1395 34.8033C56.002 37.7047 56.5313 40.5558 59.5567 42.4186C59.9319 42.6498 60.3675 42.8005 60.5819 43.2327C58.3807 44.7136 56.0254 45.98 54.1727 47.9232C53.5183 48.2258 52.8027 48.3726 52.0821 48.352C47.8205 48.352 43.5555 48.352 39.2939 48.352C37.3272 48.352 36.9218 47.8562 37.2837 45.9163C37.4847 44.8375 37.5383 43.7018 38.1883 42.7503C38.5397 42.3318 38.9216 41.9399 39.3307 41.5776C40.9858 39.9025 41.3108 37.8085 40.1951 35.7313C40.0001 35.2773 39.7599 34.844 39.4781 34.4381C39.1699 33.7747 39.0995 32.9874 38.4395 32.5217Z" fill="#03174C"/>
<path d="M53.784 48.3016C51.948 50.2146 50.6816 52.4593 49.6095 54.8816C47.6428 59.3409 44.326 62.4601 39.5585 63.6227C36.188 64.4435 33.8126 61.8503 34.5966 58.4129C35.3002 55.3272 36.1646 52.2784 36.9418 49.2095C37.0256 48.8745 37.0625 48.5395 37.1194 48.2312C38.3088 47.866 39.5317 48.0805 40.7378 48.0704C44.5605 48.0369 48.3832 48.047 52.206 48.0704C52.7387 48.0738 53.325 47.8426 53.784 48.3016Z" fill="#FEFEFE"/>
<path d="M60.5819 43.229C58.4578 42.7499 56.9836 41.5539 56.5246 39.3628C56.0489 37.1113 56.739 35.2251 58.5817 33.7979C60.5685 34.6086 62.5519 35.4228 64.542 36.2235C64.9608 36.3944 65.1886 36.6758 65.0914 37.1147C64.7564 38.5721 65.0345 40.1065 64.5185 41.5371L60.5819 43.229Z" fill="#FEFEFD"/>
<path d="M88.8254 52.2015C88.3898 52.2517 88.0548 52.1412 87.9375 51.6621C87.9104 51.5544 87.8745 51.449 87.8303 51.3471C86.5505 48.2715 86.5337 48.2347 89.616 47.0587C91.7938 46.2278 94.0284 45.5477 96.2128 44.7336C97.1878 44.3684 97.6937 44.6733 97.9517 45.608C98.9568 49.2934 99.9116 48.3653 95.9415 49.8395C93.7034 50.6737 91.4152 51.3639 89.147 52.1177C89.0431 52.1546 88.9326 52.1747 88.8254 52.2015Z" fill="white"/>
<path d="M103.252 108.843C103.734 108.893 103.858 109.211 104.036 109.493C105.641 112.022 107.209 114.579 108.887 117.058C109.477 117.929 109.363 118.482 108.552 118.981C105.225 121.038 106.059 121.457 103.989 118.123C102.877 116.334 101.801 114.508 100.531 112.833C99.5262 111.493 99.7574 110.736 101.168 110.056C101.915 109.697 102.602 109.225 103.252 108.843Z" fill="white"/>
<path d="M35.8665 64.9799C36.5131 64.923 36.6572 65.2312 36.8448 65.6199C38.2988 68.6352 38.0677 69.1411 34.8346 70.116C32.7674 70.7358 30.6902 71.3355 28.6566 72.0626C27.4538 72.4914 26.8608 72.2569 26.4621 70.9971C25.5642 68.1728 25.5073 68.1695 28.4086 67.2515C30.6768 66.5345 32.9617 65.8745 35.24 65.1877C35.4979 65.1106 35.7559 65.0168 35.8665 64.9799Z" fill="white"/>
<path d="M86.3562 96.0172C85.7498 96.044 85.4885 95.9067 85.2573 95.4912C83.82 92.9215 84.1919 91.8662 86.9794 90.975C89.2944 90.2379 91.6397 89.5946 93.9481 88.8308C94.9029 88.5158 95.2245 88.9045 95.4959 89.7186C96.5479 92.8981 96.5613 92.8847 93.3048 93.8697C91.2946 94.4761 89.2844 95.1193 87.2742 95.7425C86.9224 95.8564 86.5505 95.9603 86.3562 96.0172Z" fill="#EF5858"/>
<path d="M74.5095 79.1216C74.007 80.1066 73.4843 81.2725 72.8344 82.3546C72.5161 82.8739 72.0236 82.3747 71.6651 82.1972C68.8408 80.79 66.0332 79.3561 63.2156 77.9355C62.9609 77.8082 62.5824 77.6005 62.6896 77.3827C63.2591 76.1967 63.7617 74.9303 64.5792 73.9252C65.209 73.1446 66.0097 74.0492 66.643 74.3641C69.0217 75.5434 71.3602 76.7998 73.7055 78.0495C74.0606 78.2337 74.5564 78.3443 74.5095 79.1216Z" fill="white"/>
<path d="M113.648 81.7548C118.097 85.7752 118.848 91.377 120.014 96.7911C120.295 98.0944 120.489 99.4111 120.727 100.721C121.106 102.101 121.789 103.435 121.498 104.922C121.387 105.479 121.535 106.437 120.396 106.031H120.412C119.461 104.581 119.444 102.999 119.742 101.368C119.307 96.1445 118.211 91.0755 116.121 86.2543C115.529 84.9318 114.606 83.7847 113.44 82.9241C111.688 82.0765 110.284 80.7933 108.998 79.366C104.217 75.9755 98.9769 73.4326 93.6599 71.0271C93.3081 70.8662 92.9396 70.7322 92.6012 70.5446C92.5381 70.4985 92.4863 70.4386 92.4498 70.3696C92.4132 70.3005 92.3928 70.224 92.3901 70.1459C92.4069 69.8578 92.685 69.8109 92.8793 69.8678C93.3046 69.994 93.7209 70.1485 94.1256 70.3302C99.3578 72.6368 104.414 75.3243 109.252 78.371C111.047 78.9898 112.591 80.178 113.648 81.7548Z" fill="#14130D"/>
<path d="M120.396 106.031C121.324 106.031 121.066 105.335 121.066 104.842C120.985 103.468 120.851 102.095 120.731 100.721C120.888 101.026 121.122 101.285 121.41 101.471C121.698 101.657 122.03 101.765 122.372 101.783C124.547 102.071 126.687 102.614 128.848 103.016C129.455 103.127 129.606 103.271 129.518 103.971C129.07 107.854 129.103 107.857 125.31 107.11C123.669 106.785 121.974 106.671 120.396 106.031Z" fill="white"/>
<path d="M117.293 52.2485C119.803 54.9858 121.649 58.1987 123.733 61.2442C123.833 62.5676 122.697 62.5106 121.937 62.7853C119.484 63.6698 119.488 63.6397 118.65 61.1839C117.879 58.9358 117.169 56.6609 116.261 54.4832C115.729 53.1967 115.94 52.5333 117.293 52.2485Z" fill="#EF5858"/>
<path d="M53.7839 48.3018L37.1261 48.2281C37.2668 47.0722 36.4057 46.8009 35.5983 46.6535C34.2113 46.4055 34.1309 45.7288 34.5932 44.5595C35.6151 41.9328 36.5263 39.266 37.4912 36.6192C37.6755 36.1066 37.7995 35.4667 38.5466 35.5605C39.3842 35.6644 39.0424 36.4048 39.1765 36.9006C40.0274 38.8773 39.1765 40.7267 38.7409 42.5962C37.9 44.0167 37.8832 45.6618 37.5113 47.2063C37.2433 48.3286 38.2685 47.8964 38.7275 47.8998C43.8803 47.9366 49.0298 47.9266 54.1826 47.9299L53.7839 48.3018Z" fill="#EF5858"/>
<path d="M109.007 79.3862C110.646 80.3609 112.141 81.5584 113.45 82.9443C112.522 84.0566 112.468 85.5006 112.11 86.8005C111.775 87.9999 111.477 88.4757 110.1 88.0602C107.027 87.0954 106.88 87.3667 107.892 84.3749C108.435 82.7734 109.135 81.1485 109.007 79.3862Z" fill="white"/>
<path d="M71.276 110.749C70.4604 109.252 69.7745 107.689 69.2256 106.075C71.0448 106.075 72.8674 106.052 74.6866 106.048C74.9413 106.048 75.3567 105.81 75.4304 106.115C75.7228 107.405 75.7308 108.742 75.4539 110.035C75.2796 110.812 74.3181 110.745 73.5944 110.745C72.8708 110.745 72.0466 110.745 71.276 110.749Z" fill="#EF5858"/>
<path d="M39.8203 91.27L37.5119 91.4007L35.0226 91.3572C34.1649 91.3572 34.0577 91.0556 34.587 90.3755C35.5017 89.2029 36.3895 88.0068 37.2371 86.7839C37.7665 86.0167 38.3294 85.9497 39.0363 86.4791C39.0845 86.506 39.1286 86.5398 39.1669 86.5796C39.8102 87.454 41.5122 87.5411 41.4586 88.6601C41.4251 89.548 40.4032 90.399 39.8203 91.27Z" fill="#EF5858"/>
<path d="M66.8673 47.2563C68.3521 48.028 69.9361 48.5917 71.5746 48.9315C71.3467 49.548 71.1055 50.1611 70.8877 50.7842C69.762 53.9738 69.7955 53.8934 66.6831 52.7107C65.4669 52.2483 65.5138 51.6721 65.8756 50.7172C66.3011 49.5882 66.998 48.5362 66.8673 47.2563Z" fill="white"/>
<path d="M13.3928 82.3377C12.1412 80.7711 11.2151 78.9702 10.6689 77.0408C10.8465 75.8414 11.3926 75.4327 12.5954 75.9821C16.0328 77.5568 15.6944 76.4478 14.5151 80.0494C14.2504 80.8401 14.2773 81.8217 13.3928 82.3377Z" fill="#EF5858"/>
<path d="M113.648 81.7548L109.263 78.381C110.653 76.086 110.646 76.1028 113.692 77.138C114.362 77.3659 114.653 77.5602 114.439 78.4011C114.158 79.5067 113.585 80.5621 113.648 81.7548Z" fill="white"/>
<path d="M26.5125 90.7069C26.2623 96.6057 26.0099 102.506 25.7553 108.407C25.6514 108.554 25.5442 108.564 25.4202 108.407C25.3934 108.055 25.4839 107.666 25.1221 107.402C25.3164 101.735 25.5118 96.0708 25.7084 90.4087L26.5125 90.7069Z" fill="#171718"/>
<path d="M38.7307 42.5961C38.3354 40.6529 39.3606 38.8169 39.1662 36.9005C39.6487 36.1266 39.2969 35.2522 39.4711 34.4414C42.2452 36.3176 41.8599 40.5625 38.7307 42.5961Z" fill="#FBFBFA"/>
<path d="M57.205 76.9741C56.8741 76.3957 56.739 75.7258 56.8197 75.0644C56.5081 74.5116 56.9001 73.8449 56.5316 73.3021C55.7978 71.0708 55.8615 68.7289 55.5901 66.4373C55.4528 65.2848 55.5131 64.1122 55.4829 62.9496C55.7677 61.8708 55.3924 60.7886 55.5131 59.7065C55.5767 59.1135 55.3958 58.4802 55.8481 57.9609C55.9285 58.0313 56.0726 58.105 56.0726 58.1787C56.0726 62.6916 56.5148 67.1777 56.9403 71.6638C57.0638 72.938 57.2709 74.2027 57.5601 75.4497C57.5367 75.9824 58.1397 76.6558 57.205 76.9741Z" fill="#1A190F"/>
<path d="M119.752 101.381C119.976 102.945 120.199 104.499 120.422 106.045C119.765 106.151 119.091 106.033 118.509 105.71C116.663 104.722 118.379 103.345 118.241 102.148C118.131 101.264 118.801 100.788 119.752 101.381Z" fill="white"/>
<path d="M90.4668 60.6511C90.9929 60.5841 91.1001 61.0096 91.2642 61.3479C92.6044 64.122 94.2795 66.6549 96.7152 68.6249C96.9632 68.8259 97.3384 69.0236 97.134 69.4089C96.9833 69.6936 96.6616 69.6534 96.417 69.4524C93.6128 67.1608 91.4786 64.3834 90.3094 60.9225C90.3027 60.8555 90.4099 60.7415 90.4668 60.6511Z" fill="#1D1B11"/>
<path d="M55.841 57.9608C55.5998 59.6125 56.2766 61.3346 55.4825 62.9495C55.1475 61.5323 55.2916 60.095 55.2681 58.6644C55.2614 58.3092 55.1944 57.8201 55.841 57.9608Z" fill="#03174C"/>
<path d="M57.2049 76.9741C57.6974 76.552 57.4629 75.969 57.54 75.4497C57.762 76.1094 57.9488 76.7804 58.0995 77.4599C58.1765 77.8753 58.5886 78.5622 57.9454 78.6928C57.3021 78.8235 57.4562 78.0027 57.2753 77.604C57.2162 77.3995 57.1924 77.1865 57.2049 76.9741Z" fill="#1E1C11"/>
<path d="M87.2875 124.512C87.2875 124.599 87.2875 124.683 87.2607 124.767L82.8784 124.75C84.3291 124.345 85.81 124.482 87.2875 124.512Z" fill="#39372B"/>
<path d="M72.2344 48.9215L74.9146 48.9014C74.509 49.1397 74.0477 49.267 73.5772 49.2705C73.1067 49.274 72.6436 49.1537 72.2344 48.9215Z" fill="#D3DCFF"/>
<path d="M56.5317 73.3018C57.0744 73.8144 56.7897 74.4643 56.8198 75.064C56.5583 74.5159 56.4584 73.9046 56.5317 73.3018Z" fill="#1E1C11"/>
<path d="M76.8213 31.1047C75.5281 28.3441 76.369 26.1094 78.5233 24.1964L79.6524 23.9384C81.6224 23.4995 83.0496 24.8296 82.7648 26.8364C82.3628 29.6574 80.1683 31.2622 77.2435 30.887C77.1128 30.8702 76.962 31.0277 76.8213 31.1047Z" fill="#9B1819"/>
<path d="M25.0381 111.281C25.0381 113.446 25.4133 115.637 24.77 117.767C24.7399 115.6 24.6595 113.432 25.0381 111.281Z" fill="#1A1B1D"/>
<path d="M40.4399 18.7853C37.2973 20.0819 34.2552 21.5058 31.5112 24.1458C32.1411 21.6532 37.6825 18.4302 40.4399 18.7853Z" fill="#1B1111"/>
<path d="M63.8119 25.8079C63.0815 26.1128 59.8987 25.2718 59.6508 24.7056C59.5067 24.3706 59.7312 24.183 59.9288 24.0021C61.0043 23.0338 62.0329 21.9919 63.1887 21.1375C63.9559 20.5646 64.1603 21.0203 63.8588 21.7875C63.7449 21.9785 63.8822 21.7305 63.765 21.9215C62.6661 23.7709 62.6728 24.2567 63.8119 25.8079Z" fill="#180A0A"/>
<path d="M63.8148 29.2553C62.9236 30.2202 62.0123 30.7931 60.7995 30.428C59.7241 30.0929 59.3187 29.1582 59.0104 28.1799C58.9133 27.8616 58.7491 27.483 59.0741 27.2686C59.2 27.2293 59.3326 27.2158 59.4639 27.2291C59.5952 27.2423 59.7224 27.282 59.838 27.3457C61.1547 27.9521 62.4378 28.5886 63.8148 29.2553Z" fill="#160E0E"/>
<path d="M33.4475 12.2923C32.9014 12.1717 32.9115 11.8701 33.0455 11.5183C33.8596 9.33392 34.667 7.16291 35.4912 4.97179C35.5884 4.72386 35.7391 4.43574 36.0943 4.5463C36.3455 4.6267 36.3757 4.85453 36.2919 5.0857C35.4387 7.37063 34.581 9.65443 33.7189 11.9371C33.6472 12.0688 33.5557 12.1885 33.4475 12.2923Z" fill="#190F0F"/>
<path d="M40.0241 5.84003C40.2687 6.80493 39.6456 7.57885 39.3541 8.41309C38.8649 9.75322 38.3255 11.0934 37.7962 12.4335C37.699 12.6781 37.5884 12.9829 37.2367 12.9193C37.1809 12.9116 37.1275 12.8916 37.0804 12.8607C37.0334 12.8298 36.9938 12.7887 36.9646 12.7406C36.9354 12.6924 36.9173 12.6384 36.9116 12.5824C36.9059 12.5263 36.9128 12.4698 36.9318 12.4167C37.7928 10.1586 38.674 7.91054 39.5517 5.65576L40.0241 5.84003Z" fill="#1C1010"/>
<path d="M63.812 25.808L60.981 24.3204C61.8252 23.2952 62.8839 22.585 63.8622 21.7876L63.812 25.808Z" fill="#98191A"/>
<path d="M68.8606 22.4304C68.8643 22.5858 68.8335 22.7401 68.7706 22.8822C68.7077 23.0243 68.6141 23.1508 68.4967 23.2526C68.3792 23.3543 68.2407 23.4289 68.0911 23.471C67.9414 23.513 67.7844 23.5215 67.6311 23.4958C67.4908 23.5016 67.3509 23.478 67.2203 23.4265C67.0897 23.375 66.9713 23.2967 66.8729 23.1966C66.7744 23.0966 66.698 22.977 66.6485 22.8456C66.5991 22.7142 66.5777 22.5739 66.5858 22.4337C66.5713 22.2789 66.5901 22.1228 66.6409 21.9759C66.6916 21.8289 66.7732 21.6945 66.8801 21.5816C66.987 21.4687 67.1167 21.3799 67.2607 21.3212C67.4046 21.2624 67.5595 21.2351 67.7148 21.241C68.4083 21.2444 68.8037 21.7268 68.8606 22.4304Z" fill="#120A0A"/>
<path d="M68.8607 26.7427C68.576 27.4395 68.1706 27.8617 67.4603 27.798C66.6663 27.731 66.4954 27.1715 66.5456 26.4947C66.606 25.7309 67.065 25.4025 67.7853 25.5365C68.0772 25.5802 68.3447 25.7248 68.5411 25.9451C68.7376 26.1654 68.8507 26.4476 68.8607 26.7427Z" fill="#9E1B1C"/>
<path d="M31.7625 6.76807C31.7256 8.57055 30.8947 10.1184 30.228 11.9711C29.6182 10.4635 30.6434 7.47164 31.7692 6.77142L31.7625 6.76807Z" fill="#2A1616"/>
<path d="M68.9413 18.0418C69.8223 18.182 70.6477 18.5622 71.3268 19.1408C71.568 19.3485 71.9064 19.6199 71.6618 19.9649C71.4172 20.31 71.0721 20.0755 70.8175 19.8644C70.2116 19.3763 69.5077 19.0244 68.7537 18.8325C68.4455 18.7454 67.9999 18.7287 68.1004 18.2797C68.2009 17.8308 68.6264 18.0117 68.9413 18.0418Z" fill="#201212"/>
<path d="M143.727 18.8087H107.667C108.602 18.0382 141.968 17.8472 143.727 18.8087Z" fill="#03174C"/>
<path d="M131.056 14.5505C130.721 15.2205 130.162 14.9994 129.699 14.9994C122.844 15.0128 115.991 15.0128 109.138 14.9994C108.802 15.0125 108.466 14.9945 108.133 14.9458C108.055 14.9206 107.983 14.877 107.925 14.8187C107.867 14.7605 107.823 14.6892 107.798 14.6108C107.738 14.3495 107.946 14.2121 108.173 14.1853C108.451 14.1596 108.729 14.1507 109.008 14.1585C115.972 14.1585 122.937 14.1585 129.904 14.1585C130.272 14.1819 130.694 14.0546 131.056 14.5505Z" fill="#03174C"/>
<path d="M111.564 127.631C112.904 125.33 114.955 123.862 117.239 122.663C117.284 122.63 117.336 122.607 117.39 122.595C117.444 122.583 117.5 122.582 117.555 122.593C117.609 122.603 117.661 122.624 117.707 122.655C117.753 122.686 117.792 122.727 117.822 122.773C117.851 122.821 117.869 122.875 117.875 122.93C117.881 122.986 117.875 123.042 117.857 123.095C117.839 123.148 117.81 123.196 117.772 123.236C117.733 123.277 117.687 123.309 117.635 123.329C115.43 124.512 113.618 126.211 111.564 127.631Z" fill="#1B1010"/>
<path d="M110.338 137.756C111.36 135.795 112.681 134.005 114.251 132.449C114.489 132.218 114.767 131.983 115.115 132.244C115.353 132.425 115.239 132.67 115.082 132.814C113.484 134.281 112.435 136.191 111.011 137.799C110.971 137.846 110.807 137.789 110.338 137.756Z" fill="#1D1212"/>
<path d="M115.923 139.998C115.588 139.924 115.4 139.73 115.588 139.415C116.662 137.531 117.915 135.756 119.33 134.114C119.406 134.045 119.498 133.996 119.597 133.97C119.696 133.943 119.8 133.941 119.9 133.964C120.134 134.057 120.121 134.359 119.994 134.54C118.741 136.309 117.48 138.069 116.211 139.82C116.144 139.904 116.02 139.937 115.923 139.998Z" fill="#1A1111"/>
<path d="M123.471 136.764C122.486 138.302 121.504 139.84 120.499 141.364C120.438 141.41 120.367 141.44 120.291 141.45C120.215 141.461 120.138 141.452 120.067 141.424C119.957 141.367 119.819 141.116 119.863 141.039C120.761 139.401 121.655 137.752 122.955 136.416L123.471 136.764Z" fill="#1B1010"/>
<path d="M25.4336 108.41H25.7686C25.8581 111.243 25.763 114.079 25.4838 116.899C25.4615 114.069 25.4448 111.24 25.4336 108.41Z" fill="#1A1B1D"/>
<path d="M21.5386 55.5591C19.6423 52.0674 16.6884 51.0007 12.8776 51.5705C11.1727 51.8166 9.39951 51.6616 7.66275 51.5705C5.6017 51.4948 3.6506 50.6216 2.221 49.1351C0.791405 47.6485 -0.00491034 45.6648 2.27841e-05 43.6023C2.27841e-05 39.2582 3.21372 35.6843 7.55791 35.5294C11.6605 35.3789 15.7357 35.388 19.8201 35.5294C24.105 35.6707 27.2139 38.9983 27.4464 43.3197C27.656 47.24 27.1364 50.6132 22.464 51.6662C21.0965 51.9807 22.2269 53.3528 22.0081 54.2053C21.9808 54.6793 22.6099 55.4041 21.5386 55.5591Z" fill="#060606"/>
<path d="M21.5391 55.5594C22.0815 55.2267 21.7396 54.5976 21.9949 54.1919C22.1362 54.6477 22.3049 55.1036 22.4006 55.5959C22.4553 55.8557 22.4416 56.2523 22.045 56.1748C21.849 56.1201 21.7077 55.7691 21.5391 55.5594Z" fill="#646464"/>
<path d="M20.4902 52.4002C19.4326 50.741 18.2383 50.4857 16.7659 50.5404C13.9716 50.6407 11.1682 50.6042 8.36931 50.5404C4.171 50.4675 1.02567 47.4042 1.04846 43.4748C1.07126 39.5455 4.21658 36.5415 8.44681 36.505C12.0024 36.4685 15.558 36.4594 19.109 36.505C24.8025 36.5825 28.513 42.978 25.8144 48.0287C25.4654 48.7511 24.9244 49.3637 24.2507 49.7994C23.577 50.2352 22.7965 50.4773 21.9945 50.4994C20.791 50.5586 20.0571 50.7546 20.4902 52.4002Z" fill="#FEFEFE"/>
<path d="M53.5364 38.1168C53.5364 40.9009 51.4525 43.1758 48.866 43.1925C46.2795 43.2093 44.1521 40.9511 44.132 38.167C44.1119 35.3829 46.2159 33.1214 48.8224 33.1114C51.429 33.1013 53.5263 35.3293 53.5364 38.1168Z" fill="#FEFEFE"/>
<path d="M80.0944 28.0024C79.7225 26.5651 79.0525 26.153 78.0239 27.4898C77.9947 27.5378 77.956 27.5793 77.9101 27.6116C77.8641 27.6439 77.812 27.6665 77.757 27.6778C77.702 27.6891 77.6453 27.689 77.5903 27.6774C77.5353 27.6658 77.4834 27.643 77.4376 27.6104C77.3824 27.5662 77.3379 27.5101 77.3072 27.4463C77.2766 27.3825 77.2607 27.3126 77.2607 27.2419C77.2607 27.1711 77.2766 27.1013 77.3072 27.0375C77.3379 26.9737 77.3824 26.9176 77.4376 26.8733C78.1375 26.075 79.0513 25.4938 80.071 25.1982C80.5434 25.0742 81.0761 25.1814 80.5735 25.8481C80.071 26.5149 81.1699 27.3826 80.0944 28.0024Z" fill="#1D0707"/>
<path d="M59.979 28.5615C61.0042 28.6151 61.5168 28.9803 62.14 29.3924C61.1315 30.1362 60.6591 29.57 59.979 28.5615Z" fill="#893B3B"/>
</svg>
