<svg width="18" height="18" viewBox="0 0 18 18" fill="none" xmlns="http://www.w3.org/2000/svg">
<path fill-rule="evenodd" clip-rule="evenodd" d="M3.21204 7.32516C2.28673 7.32516 1.53662 8.0753 1.53662 9.00064C1.53662 9.92599 2.28673 10.6761 3.21204 10.6761C4.13736 10.6761 4.88747 9.92599 4.88747 9.00064C4.88747 8.0753 4.13736 7.32516 3.21204 7.32516ZM0.257202 9.00064C0.257202 7.36868 1.58013 6.0457 3.21204 6.0457C4.84396 6.0457 6.16688 7.36868 6.16688 9.00064C6.16688 10.6326 4.84396 11.9556 3.21204 11.9556C1.58013 11.9556 0.257202 10.6326 0.257202 9.00064Z" fill="white"/>
<path fill-rule="evenodd" clip-rule="evenodd" d="M0 9.00064C0 7.22667 1.43805 5.78856 3.21198 5.78856C4.98592 5.78856 6.42397 7.22667 6.42397 9.00064C6.42397 10.7746 4.98592 12.2127 3.21198 12.2127C1.43805 12.2127 0 10.7746 0 9.00064ZM3.21198 6.30285C1.7221 6.30285 0.514287 7.51068 0.514287 9.00064C0.514287 10.4906 1.7221 11.6984 3.21198 11.6984C4.70187 11.6984 5.90968 10.4906 5.90968 9.00064C5.90968 7.51068 4.70187 6.30285 3.21198 6.30285ZM3.21198 7.58231C2.4287 7.58231 1.7937 8.21731 1.7937 9.00064C1.7937 9.78398 2.4287 10.419 3.21198 10.419C3.99527 10.419 4.63027 9.78398 4.63027 9.00064C4.63027 8.21731 3.99527 7.58231 3.21198 7.58231ZM1.27942 9.00064C1.27942 7.93329 2.14465 7.06802 3.21198 7.06802C4.27932 7.06802 5.14455 7.93329 5.14455 9.00064C5.14455 10.068 4.27932 10.9333 3.21198 10.9333C2.14465 10.9333 1.27942 10.068 1.27942 9.00064Z" fill="white"/>
<path fill-rule="evenodd" clip-rule="evenodd" d="M14.7881 1.53661C13.8628 1.53661 13.1127 2.28675 13.1127 3.21209C13.1127 4.13744 13.8628 4.88758 14.7881 4.88758C15.7134 4.88758 16.4635 4.13744 16.4635 3.21209C16.4635 2.28675 15.7134 1.53661 14.7881 1.53661ZM11.8333 3.21209C11.8333 1.58012 13.1562 0.257143 14.7881 0.257143C16.42 0.257143 17.7429 1.58012 17.7429 3.21209C17.7429 4.84406 16.42 6.16704 14.7881 6.16704C13.1562 6.16704 11.8333 4.84406 11.8333 3.21209Z" fill="white"/>
<path fill-rule="evenodd" clip-rule="evenodd" d="M11.576 3.21209C11.576 1.43811 13.0141 0 14.788 0C16.562 0 18 1.43811 18 3.21209C18 4.98607 16.562 6.42418 14.788 6.42418C13.0141 6.42418 11.576 4.98607 11.576 3.21209ZM14.788 0.514286C13.2981 0.514286 12.0903 1.72213 12.0903 3.21209C12.0903 4.70206 13.2981 5.9099 14.788 5.9099C16.2779 5.9099 17.4857 4.70206 17.4857 3.21209C17.4857 1.72213 16.2779 0.514286 14.788 0.514286ZM14.788 1.79375C14.0047 1.79375 13.3698 2.42875 13.3698 3.21209C13.3698 3.99543 14.0047 4.63043 14.788 4.63043C15.5713 4.63043 16.2063 3.99543 16.2063 3.21209C16.2063 2.42875 15.5713 1.79375 14.788 1.79375ZM12.8555 3.21209C12.8555 2.14474 13.7207 1.27946 14.788 1.27946C15.8554 1.27946 16.7206 2.14474 16.7206 3.21209C16.7206 4.27944 15.8554 5.14472 14.788 5.14472C13.7207 5.14472 12.8555 4.27944 12.8555 3.21209Z" fill="white"/>
<path fill-rule="evenodd" clip-rule="evenodd" d="M14.7881 13.1124C13.8628 13.1124 13.1127 13.8626 13.1127 14.7879C13.1127 15.7133 13.8628 16.4634 14.7881 16.4634C15.7134 16.4634 16.4635 15.7133 16.4635 14.7879C16.4635 13.8626 15.7134 13.1124 14.7881 13.1124ZM11.8333 14.7879C11.8333 13.1559 13.1562 11.833 14.7881 11.833C16.42 11.833 17.7429 13.1559 17.7429 14.7879C17.7429 16.4199 16.42 17.7429 14.7881 17.7429C13.1562 17.7429 11.8333 16.4199 11.8333 14.7879Z" fill="white"/>
<path fill-rule="evenodd" clip-rule="evenodd" d="M11.576 14.7879C11.576 13.0139 13.0141 11.5758 14.788 11.5758C16.562 11.5758 18 13.0139 18 14.7879C18 16.5619 16.562 18 14.788 18C13.0141 18 11.576 16.5619 11.576 14.7879ZM14.788 12.0901C13.2981 12.0901 12.0903 13.298 12.0903 14.7879C12.0903 16.2779 13.2981 17.4857 14.788 17.4857C16.2779 17.4857 17.4857 16.2779 17.4857 14.7879C17.4857 13.298 16.2779 12.0901 14.788 12.0901ZM14.788 13.3696C14.0047 13.3696 13.3698 14.0046 13.3698 14.7879C13.3698 15.5713 14.0047 16.2063 14.788 16.2063C15.5713 16.2063 16.2063 15.5713 16.2063 14.7879C16.2063 14.0046 15.5713 13.3696 14.788 13.3696ZM12.8555 14.7879C12.8555 13.7206 13.7207 12.8553 14.788 12.8553C15.8554 12.8553 16.7206 13.7206 16.7206 14.7879C16.7206 15.8553 15.8554 16.7205 14.788 16.7205C13.7207 16.7205 12.8555 15.8553 12.8555 14.7879Z" fill="white"/>
<path fill-rule="evenodd" clip-rule="evenodd" d="M13.0248 4.04726C13.2028 4.35245 13.0997 4.74417 12.7945 4.92219L6.34907 8.68218C6.23602 8.74813 6.1665 8.86916 6.1665 9.00004C6.1665 9.13092 6.23602 9.25196 6.34907 9.31791L12.7945 13.0779C13.0997 13.2559 13.2028 13.6476 13.0248 13.9528C12.8467 14.258 12.455 14.3611 12.1499 14.1831L5.24678 10.1561C5.02404 10.0262 4.88708 9.78772 4.88708 9.52985V8.47023C4.88708 8.21236 5.02405 7.9739 5.24678 7.84397L12.1499 3.81702C12.455 3.639 12.8467 3.74208 13.0248 4.04726Z" fill="white"/>
<path fill-rule="evenodd" clip-rule="evenodd" d="M12.0204 3.5949C12.4482 3.34532 12.9974 3.48984 13.2469 3.9177C13.4965 4.34555 13.352 4.89472 12.9242 5.1443L6.4787 8.90429C6.44465 8.92415 6.42371 8.96061 6.42371 9.00004C6.42371 9.03946 6.44465 9.07592 6.4787 9.09579L12.9242 12.8558C13.352 13.1054 13.4965 13.6545 13.2469 14.0824C12.9974 14.5102 12.4482 14.6548 12.0204 14.4052L5.11727 10.3782C4.81554 10.2022 4.63 9.87917 4.63 9.52985V8.47023C4.63 8.12091 4.81554 7.79787 5.11727 7.62185L12.0204 3.5949ZM12.8027 4.17682C12.6962 3.99431 12.462 3.93267 12.2795 4.03913L5.37641 8.06607C5.23268 8.14992 5.14429 8.30381 5.14429 8.47023V9.52985C5.14429 9.69627 5.23268 9.85015 5.37641 9.934L5.2488 10.1528L5.37641 9.934L12.2795 13.9609C12.462 14.0674 12.6962 14.0058 12.8027 13.8233C12.9092 13.6407 12.8475 13.4065 12.665 13.3L6.21956 9.54002C6.02751 9.42798 5.90942 9.22238 5.90942 9.00004C5.90942 8.7777 6.02751 8.57209 6.21956 8.46006L12.665 4.70008C12.8475 4.59361 12.9092 4.35934 12.8027 4.17682Z" fill="white"/>
</svg>
