<svg width="35" height="35" viewBox="0 0 35 35" fill="none" xmlns="http://www.w3.org/2000/svg">
<path d="M18.9583 8.75C18.9583 9.55541 18.3054 10.2083 17.5 10.2083C16.6945 10.2083 16.0416 9.55541 16.0416 8.75C16.0416 7.94458 16.6945 7.29167 17.5 7.29167C18.3054 7.29167 18.9583 7.94458 18.9583 8.75Z" fill="white"/>
<path fill-rule="evenodd" clip-rule="evenodd" d="M17.5 14.2188C15.6878 14.2188 14.2188 15.6878 14.2188 17.5C14.2188 19.3122 15.6878 20.7812 17.5 20.7812C19.3122 20.7812 20.7812 19.3122 20.7812 17.5C20.7812 15.6878 19.3122 14.2188 17.5 14.2188ZM12.0312 17.5C12.0312 14.4797 14.4797 12.0312 17.5 12.0312C20.5203 12.0312 22.9688 14.4797 22.9688 17.5C22.9688 20.5203 20.5203 22.9688 17.5 22.9688C14.4797 22.9688 12.0312 20.5203 12.0312 17.5Z" fill="white"/>
<path fill-rule="evenodd" clip-rule="evenodd" d="M17.5 4.01042C11.6607 4.01042 6.92706 8.74407 6.92706 14.5833C6.92706 20.4226 11.6607 25.1562 17.5 25.1562C23.3392 25.1562 28.0729 20.4226 28.0729 14.5833C28.0729 8.74407 23.3392 4.01042 17.5 4.01042ZM4.73956 14.5833C4.73956 7.53595 10.4526 1.82292 17.5 1.82292C24.5474 1.82292 30.2604 7.53595 30.2604 14.5833C30.2604 21.6307 24.5474 27.3438 17.5 27.3438C10.4526 27.3438 4.73956 21.6307 4.73956 14.5833Z" fill="white"/>
<path fill-rule="evenodd" clip-rule="evenodd" d="M19.3046 29.6014C18.3079 28.6047 16.6921 28.6047 15.6954 29.6014L13.8984 31.3984C13.4713 31.8255 12.7787 31.8255 12.3516 31.3984C11.9245 30.9713 11.9245 30.2787 12.3516 29.8516L14.1486 28.0546C15.9995 26.2037 19.0005 26.2037 20.8514 28.0546L22.6484 29.8516C23.0755 30.2787 23.0755 30.9713 22.6484 31.3984C22.2213 31.8255 21.5287 31.8255 21.1016 31.3984L19.3046 29.6014Z" fill="white"/>
</svg>
