<svg width="14" height="14" viewBox="0 0 14 14" fill="none" xmlns="http://www.w3.org/2000/svg">
<path fill-rule="evenodd" clip-rule="evenodd" d="M7 14C10.866 14 14 10.866 14 7C14 3.13401 10.866 0 7 0C3.13401 0 0 3.13401 0 7C0 10.866 3.13401 14 7 14ZM5.83336 3.04233C5.83336 2.65073 6.15082 2.33328 6.54242 2.33328C6.93402 2.33328 7.25147 2.65073 7.25147 3.04233V6.90004L10.138 8.74169C10.4757 8.95718 10.5991 9.41972 10.4136 9.77481C10.2281 10.1299 9.8039 10.2431 9.46615 10.0276L6.25585 7.97935C6.16388 7.92067 6.08781 7.84367 6.02954 7.75552C5.908 7.62824 5.83336 7.45579 5.83336 7.26591V3.04233Z" fill="white"/>
</svg>
